{
classes = (
{
code = "";
name = DevaIMatras;
}
);
copyright = "Copyright 2016 Michal Sahar. All rights reserved.";
customParameters = (
{
name = fsType;
value = (
);
},
{
name = license;
value = "This Font Software is licensed under the SIL Open Font License, Version 1.1. This license is available with a FAQ at: http://scripts.sil.org/OFL";
},
{
name = trademark;
value = "Suez is a tradmark of Michal Sahar";
},
{
name = licenseURL;
value = "http://scripts.sil.org/OFL";
},
{
name = vendorID;
value = MCHL;
}
);
date = "2016-03-16 13:31:07 +0000";
designer = "Michal Sahar";
designerURL = "http://hagilda.com";
familyName = "Suez One";
featurePrefixes = (
{
automatic = 1;
code = "languagesystem DFLT dflt;\012languagesystem latn dflt;\012languagesystem hebr dflt;\012languagesystem latn ROM;\012languagesystem latn MOL;\012languagesystem latn KAZ;\012languagesystem latn TAT;\012languagesystem latn TRK;\012languagesystem latn CRT;\012languagesystem latn AZE;\012";
name = Languagesystems;
}
);
features = (
{
automatic = 1;
code = "feature ccmp;\012feature locl;\012feature sups;\012feature frac;\012feature ordn;\012feature salt;\012feature ss01;\012";
name = aalt;
},
{
automatic = 1;
code = "lookup latn_comb1 {\012\011script latn;\012@CombiningTopAccents = [acutecomb brevecomb caroncomb circumflexcomb commaturnedabovecomb dieresiscomb dotaccentcomb gravecomb hungarumlautcomb macroncomb ringcomb tildecomb];\012@CombiningNonTopAccents = [cedillacomb ogonekcomb slashlongcomb slashshortcomb strokelongcomb strokeshortcomb];\012\011sub [i]' @CombiningTopAccents by [idotless];\012\011sub [i]' @CombiningNonTopAccents @CombiningTopAccents by [idotless];\012} latn_comb1;\012";
name = ccmp;
},
{
automatic = 1;

glyphs = (
{
glyphname = A;
lastChange = "2016-03-12 19:18:28 +0000";
layers = (
{
anchors = (
{
name = bottom;
position = "{332, 0}";
},
{
name = ogonek;
position = "{669, 10}";
},
{
name = top;
position = "{377, 689}";
}
);
hints = (
{
horizontal = 1;
origin = "{0, 24}";
target = "{0, 15}";
},
{
horizontal = 1;
place = "{212.500000, 111.500000}";
},
{
horizontal = 1;
origin = "{0, 21}";
target = down;
type = TopGhost;
},
{
horizontal = 1;
origin = "{0, 24}";
target = "{0, 1}";
},
{
horizontal = 1;
origin = "{0, 24}";
target = "{0, 11}";
}
);
layerId = "DDABD3A5-4A8B-4D55-9B9E-1269DFBEF3A1";
name = Regular;
paths = (
{
closed = 1;
nodes = (
"282 0 LINE",
"292 88 LINE",
"223 117 LINE SMOOTH",
"215 120 OFFCURVE",
"212 124 OFFCURVE",
"212 133 CURVE SMOOTH",
"212 138 OFFCURVE",
"213 142 OFFCURVE",
"215 148 CURVE SMOOTH",
"237 211 LINE",
"440 214 LINE",
"472 113 LINE",
"401 95 LINE",
"411 0 LINE",
"692 0 LINE",
"698 71 LINE",
"680 94 LINE SMOOTH",
"665 113 OFFCURVE",
"664 115 OFFCURVE",
"651 150 CURVE SMOOTH",
"451 690 LINE",
"281 675 LINE",
"47 108 LINE",
"16 89 LINE",
"20 0 LINE"
);
},
{
closed = 1;
nodes = (
"277 327 LINE",
"343 519 LINE",
"406 321 LINE"
);
}
);
width = 712;
}
);
leftKerningGroup = A;
rightKerningGroup = A;
unicode = 0041;
},
{
glyphname = Aogonek;
lastChange = "2016-03-12 19:18:27 +0000";
layers = (
{
hints = (
{
horizontal = 1;
origin = "{0, 46}";
target = "{0, 6}";
},
{
horizontal = 1;
origin = "{0, 28}";
target = up;
type = BottomGhost;
},
{
horizontal = 1;
place = "{212.500000, 111.500000}";
},
{
horizontal = 1;
origin = "{0, 25}";
target = down;
type = TopGhost;
},
{
horizontal = 1;
origin = "{0, 28}";
target = "{0, 30}";
},
{
origin = "{0, 43}";
target = "{0, 9}";
}
);
layerId = "DDABD3A5-4A8B-4D55-9B9E-1269DFBEF3A1";
name = Regular;
paths = (
{
closed = 1;
nodes = (
"562 -227 OFFCURVE",
"605 -216 OFFCURVE",
"639 -198 CURVE",
"626 -138 LINE",
"610 -142 OFFCURVE",
"598 -145 OFFCURVE",
"576 -145 CURVE SMOOTH",
"521 -145 OFFCURVE",
"491 -123 OFFCURVE",
"491 -73 CURVE SMOOTH",
"491 -61 OFFCURVE",
"493 -50 OFFCURVE",
"495 -45 CURVE",
"539 -25 OFFCURVE",
"594 -11 OFFCURVE",
"684 0 CURVE",
"692 0 LINE",
"692 1 LINE",
"693 1 LINE",
"698 71 LINE",
"680 94 LINE SMOOTH",
"665 113 OFFCURVE",
"664 115 OFFCURVE",
"651 150 CURVE SMOOTH",
"451 690 LINE",
"281 675 LINE",
"47 108 LINE",
"16 89 LINE",
"20 0 LINE",
"282 0 LINE",
"292 88 LINE",
"223 117 LINE SMOOTH",
"215 120 OFFCURVE",
"212 124 OFFCURVE",
"212 133 CURVE SMOOTH",
"212 138 OFFCURVE",
"213 142 OFFCURVE",
"215 148 CURVE SMOOTH",
"237 211 LINE",
"440 214 LINE",
"496 37 LINE",
"417 -2 OFFCURVE",
"373 -57 OFFCURVE",
"373 -119 CURVE SMOOTH",
"373 -199 OFFCURVE",
"450 -227 OFFCURVE",
"519 -227 CURVE SMOOTH"
);
},
{
closed = 1;
nodes = (
"277 327 LINE",
"344 518 LINE",
"406 321 LINE"
);
}
);
width = 712;
}
);
leftKerningGroup = A;
leftMetricsKey = "|";
rightKerningGroup = A;
rightMetricsKey = "|";
unicode = 0104;
},
{
glyphname = AE;
lastChange = "2016-03-12 19:18:28 +0000";
layers = (
{
anchors = (
{
name = bottom;
position = "{475, 0}";
},
{
name = top;
position = "{475, 674}";
}
);
hints = (
{
horizontal = 1;
place = "{554.000000, 120.000000}";
},
{
place = "{445.500000, 169.500000}";
},
{
place = "{463.500000, 175.500000}";
},
{
horizontal = 1;
origin = "{0, 21}";
target = "{0, 24}";
},
{
horizontal = 1;
origin = "{0, 10}";
target = "{1, 2}";
},
{
horizontal = 1;
origin = "{0, 13}";
target = "{0, 11}";
},
{
horizontal = 1;
origin = "{0, 18}";
target = up;
type = BottomGhost;
},
{
horizontal = 1;
origin = "{0, 27}";
target = up;
type = BottomGhost;
}
);
layerId = "DDABD3A5-4A8B-4D55-9B9E-1269DFBEF3A1";
name = Regular;
paths = (
{
closed = 1;
nodes = (
"276 0 LINE",
"286 88 LINE",
"217 117 LINE SMOOTH",
"209 121 OFFCURVE",
"205 128 OFFCURVE",
"205 135 CURVE SMOOTH",
"205 140 OFFCURVE",
"207 145 OFFCURVE",
"209 149 CURVE SMOOTH",
"245 212 LINE",
"450 214 LINE",
"457 113 LINE",
"395 95 LINE",
"405 0 LINE",
"887 0 LINE",
"895 74 OFFCURVE",
"900 130 OFFCURVE",
"903 205 CURVE",
"829 210 LINE",
"751 122 LINE",
"636 119 LINE",
"622 280 LINE",
"798 257 LINE",
"798 411 LINE",
"612 393 LINE",
"598 556 LINE",
"736 552 LINE",
"807 464 LINE",
"882 469 LINE",
"882 545 OFFCURVE",
"880 599 OFFCURVE",
"875 674 CURVE",
"386 674 LINE",
"21 108 LINE",
"-10 89 LINE",
"-6 0 LINE"
);
},
{
closed = 1;
nodes = (
"310 324 LINE",
"428 538 LINE",
"443 317 LINE"
);
}
);
width = 927;
}
);
rightKerningGroup = E;
unicode = 00C6;
},
{
glyphname = B;
lastChange = "2016-03-12 19:18:28 +0000";
layers = (
{
anchors = (
{
name = bottom;
position = "{332, 0}";
},
{
name = top;
position = "{329, 676}";
}
);
hints = (
{
horizontal = 1;
origin = "{0, 28}";
target = "{1, 15}";
},
{
horizontal = 1;
origin = "{1, 6}";
target = "{2, 2}";
},
{
horizontal = 1;
origin = "{0, 14}";
target = "{2, 9}";
},
{
origin = "{0, 23}";
target = "{1, 2}";
},
{
origin = "{1, 9}";
target = "{0, 5}";
},
{
origin = "{2, 12}";
target = "{0, 11}";
}
);
layerId = "DDABD3A5-4A8B-4D55-9B9E-1269DFBEF3A1";
name = Regular;
paths = (
{
closed = 1;
nodes = (
"344 -4 OFFCURVE",
"412 -1 OFFCURVE",
"437 6 CURVE",
"566 29 OFFCURVE",
"634 103 OFFCURVE",
"634 223 CURVE SMOOTH",
"634 291 OFFCURVE",
"601 339 OFFCURVE",
"534 369 CURVE",
"573 406 OFFCURVE",
"591 451 OFFCURVE",
"591 511 CURVE SMOOTH",
"591 632 OFFCURVE",
"507 686 OFFCURVE",
"317 686 CURVE SMOOTH",
"231 686 OFFCURVE",
"147 679 OFFCURVE",
"39 665 CURVE",
"33 582 LINE",
"85 553 LINE",
"108 543 OFFCURVE",
"110 538 OFFCURVE",
"110 503 CURVE SMOOTH",
"110 122 LINE",
"37 102 LINE",
"42 4 LINE",
"96 0 OFFCURVE",
"179 -4 OFFCURVE",
"258 -4 CURVE SMOOTH"
);
},
{
closed = 1;
nodes = (
"333 120 OFFCURVE",
"309 122 OFFCURVE",
"284 127 CURVE",
"284 290 LINE",
"307 291 OFFCURVE",
"316 293 OFFCURVE",
"340 293 CURVE SMOOTH",
"423 293 OFFCURVE",
"454 267 OFFCURVE",
"454 201 CURVE SMOOTH",
"454 178 OFFCURVE",
"449 150 OFFCURVE",
"444 130 CURVE",
"425 122 OFFCURVE",
"401 120 OFFCURVE",
"363 120 CURVE SMOOTH"
);
},
{
closed = 1;
nodes = (
"381 403 OFFCURVE",
"353 404 OFFCURVE",
"328 404 CURVE SMOOTH",
"309 404 OFFCURVE",
"301 404 OFFCURVE",
"284 403 CURVE",
"284 570 LINE",
"297 571 OFFCURVE",
"313 572 OFFCURVE",
"336 572 CURVE",
"389 570 OFFCURVE",
"415 544 OFFCURVE",
"415 488 CURVE SMOOTH",
"415 454 OFFCURVE",
"412 419 OFFCURVE",
"405 401 CURVE"
);
}
);
width = 648;
}
);
leftKerningGroup = D;
rightKerningGroup = B;
unicode = 0042;
},
{
glyphname = C;
lastChange = "2016-03-12 19:18:26 +0000";
layers = (
{
anchors = (
{
name = bottom;
position = "{358, 0}";
},
{
name = top;
position = "{352, 689}";
}
);
hints = (
{
horizontal = 1;
origin = "{0, 32}";
target = "{0, 6}";
},
{
horizontal = 1;
origin = "{0, 15}";
target = "{0, 26}";
},
{
origin = "{0, 29}";
target = "{0, 9}";
},
{
horizontal = 1;
origin = "{0, 19}";
target = up;
type = BottomGhost;
},
{
horizontal = 1;
origin = "{0, 3}";
target = down;
type = TopGhost;
}
);
layerId = "DDABD3A5-4A8B-4D55-9B9E-1269DFBEF3A1";
name = Regular;
paths = (
{
closed = 1;
nodes = (
"433 -15 OFFCURVE",
"540 17 OFFCURVE",
"608 62 CURVE",
"577 172 LINE",
"510 150 OFFCURVE",
"432 134 OFFCURVE",
"384 134 CURVE SMOOTH",
"267 137 OFFCURVE",
"215 206 OFFCURVE",
"215 354 CURVE SMOOTH",
"215 423 OFFCURVE",
"229 497 OFFCURVE",
"251 539 CURVE",
"282 545 OFFCURVE",
"307 546 OFFCURVE",
"327 546 CURVE SMOOTH",
"358 546 OFFCURVE",
"390 543 OFFCURVE",
"424 533 CURVE",
"493 432 LINE",
"569 437 LINE",
"580 496 OFFCURVE",
"592 574 OFFCURVE",
"598 636 CURVE",
"521 669 OFFCURVE",
"437 689 OFFCURVE",
"357 689 CURVE SMOOTH",
"149 689 OFFCURVE",
"25 558 OFFCURVE",
"25 341 CURVE SMOOTH",
"25 115 OFFCURVE",
"138 -15 OFFCURVE",
"341 -15 CURVE SMOOTH"
);
}
);
width = 643;
}
);
leftKerningGroup = O;
rightKerningGroup = C;
unicode = 0043;
},
{
glyphname = D;
lastChange = "2016-03-12 19:18:27 +0000";
layers = (
{
anchors = (
{
name = bottom;
position = "{365, 0}";
},
{
name = center;
position = "{193, 339}";
},
{
name = top;
position = "{357, 676}";
}
);
hints = (
{
horizontal = 1;
origin = "{0, 22}";
target = "{1, 15}";
},
{
horizontal = 1;
origin = "{0, 8}";
target = "{1, 6}";
},
{
origin = "{0, 17}";
target = "{1, 2}";
},
{
origin = "{1, 9}";
target = "{0, 5}";
}
);
layerId = "DDABD3A5-4A8B-4D55-9B9E-1269DFBEF3A1";
name = Regular;
paths = (
{
closed = 1;
nodes = (
"424 -3 OFFCURVE",
"560 24 OFFCURVE",
"644 133 CURVE SMOOTH",
"688 192 OFFCURVE",
"710 269 OFFCURVE",
"710 366 CURVE SMOOTH",
"710 592 OFFCURVE",
"601 682 OFFCURVE",
"328 682 CURVE SMOOTH",
"265 682 OFFCURVE",
"200 677 OFFCURVE",
"39 665 CURVE",
"33 582 LINE",
"85 553 LINE SMOOTH",
"108 543 OFFCURVE",
"110 538 OFFCURVE",
"110 503 CURVE SMOOTH",
"110 122 LINE",
"37 102 LINE",
"42 6 LINE",
"113 -1 OFFCURVE",
"179 -3 OFFCURVE",
"241 -3 CURVE SMOOTH"
);
},
{
closed = 1;
nodes = (
"342 140 OFFCURVE",
"315 142 OFFCURVE",
"291 145 CURVE",
"291 555 LINE",
"309 556 OFFCURVE",
"321 558 OFFCURVE",
"336 558 CURVE SMOOTH",
"462 558 OFFCURVE",
"524 488 OFFCURVE",
"524 337 CURVE SMOOTH",
"524 274 OFFCURVE",
"512 192 OFFCURVE",
"500 160 CURVE",
"466 146 OFFCURVE",
"417 140 OFFCURVE",
"367 140 CURVE SMOOTH"
);
}
);
width = 735;
}
);
leftKerningGroup = D;
rightKerningGroup = O;
unicode = 0044;
},
{
glyphname = Eth;
lastChange = "2016-03-12 19:18:27 +0000";
layers = (
{
anchors = (
{
name = bottom;
position = "{365, 0}";
},
{
name = center;
position = "{193, 339}";
},
{
name = top;
position = "{357, 676}";
}
);
hints = (
{
horizontal = 1;
origin = "{0, 22}";
target = "{2, 15}";
},
{
horizontal = 1;
place = "{298.500000, 73.000000}";
},
{
horizontal = 1;
origin = "{0, 8}";
target = "{2, 6}";
},
{
horizontal = 1;
place = "{288.000000, 108.000000}";
},
{
origin = "{0, 17}";
target = "{2, 2}";
},
{
origin = "{2, 9}";
target = "{0, 5}";
}
);
layerId = "DDABD3A5-4A8B-4D55-9B9E-1269DFBEF3A1";
name = Regular;
paths = (
{
closed = 1;
nodes = (
"424 -3 OFFCURVE",
"560 24 OFFCURVE",
"644 133 CURVE SMOOTH",
"688 192 OFFCURVE",
"710 269 OFFCURVE",
"710 366 CURVE SMOOTH",
"710 592 OFFCURVE",
"601 682 OFFCURVE",
"328 682 CURVE SMOOTH",
"265 682 OFFCURVE",
"200 677 OFFCURVE",
"39 665 CURVE",
"33 582 LINE",
"85 553 LINE SMOOTH",
"108 543 OFFCURVE",
"110 538 OFFCURVE",
"110 503 CURVE SMOOTH",
"110 122 LINE",
"37 102 LINE",
"42 6 LINE",
"113 -1 OFFCURVE",
"179 -3 OFFCURVE",
"241 -3 CURVE SMOOTH"
);
},
{
closed = 1;
nodes = (
"378 400 LINE",
"37 368 LINE",
"37 300 LINE",
"378 286 LINE"
);
},
{
closed = 1;
nodes = (
"342 140 OFFCURVE",
"315 142 OFFCURVE",
"291 145 CURVE",
"291 555 LINE",
"309 556 OFFCURVE",
"321 558 OFFCURVE",
"336 558 CURVE SMOOTH",
"462 558 OFFCURVE",
"524 488 OFFCURVE",
"524 337 CURVE SMOOTH",
"524 274 OFFCURVE",
"512 192 OFFCURVE",
"500 160 CURVE",
"466 146 OFFCURVE",
"417 140 OFFCURVE",
"367 140 CURVE SMOOTH"
);
}
);
width = 736;
}
);
leftKerningGroup = D;
rightKerningGroup = O;
unicode = 00D0;
},
{
glyphname = Dcroat;
lastChange = "2016-03-12 19:18:27 +0000";
layers = (
{
anchors = (
{
name = bottom;
position = "{365, 0}";
},
{
name = center;
position = "{193, 339}";
},
{
name = top;
position = "{357, 676}";
}
);
hints = (
{
horizontal = 1;
origin = "{0, 22}";
target = "{2, 15}";
},
{
horizontal = 1;
place = "{298.500000, 73.000000}";
},
{
horizontal = 1;
origin = "{0, 8}";
target = "{2, 6}";
},
{
horizontal = 1;
place = "{288.000000, 108.000000}";
},
{
origin = "{0, 17}";
target = "{2, 2}";
},
{
origin = "{2, 9}";
target = "{0, 5}";
}
);
layerId = "DDABD3A5-4A8B-4D55-9B9E-1269DFBEF3A1";
name = Regular;
paths = (
{
closed = 1;
nodes = (
"424 -3 OFFCURVE",
"560 24 OFFCURVE",
"644 133 CURVE SMOOTH",
"688 192 OFFCURVE",
"710 269 OFFCURVE",
"710 366 CURVE SMOOTH",
"710 592 OFFCURVE",
"601 682 OFFCURVE",
"328 682 CURVE SMOOTH",
"265 682 OFFCURVE",
"200 677 OFFCURVE",
"39 665 CURVE",
"33 582 LINE",
"85 553 LINE SMOOTH",
"108 543 OFFCURVE",
"110 538 OFFCURVE",
"110 503 CURVE SMOOTH",
"110 122 LINE",
"37 102 LINE",
"42 6 LINE",
"113 -1 OFFCURVE",
"179 -3 OFFCURVE",
"241 -3 CURVE SMOOTH"
);
},
{
closed = 1;
nodes = (
"378 400 LINE",
"37 368 LINE",
"37 300 LINE",
"378 286 LINE"
);
},
{
closed = 1;
nodes = (
"342 140 OFFCURVE",
"315 142 OFFCURVE",
"291 145 CURVE",
"291 555 LINE",
"309 556 OFFCURVE",
"321 558 OFFCURVE",
"336 558 CURVE SMOOTH",
"462 558 OFFCURVE",
"524 488 OFFCURVE",
"524 337 CURVE SMOOTH",
"524 274 OFFCURVE",
"512 192 OFFCURVE",
"500 160 CURVE",
"466 146 OFFCURVE",
"417 140 OFFCURVE",
"367 140 CURVE SMOOTH"
);
}
);
width = 736;
},
{
anchors = (
{
name = bottom;
position = "{377, 0}";
},
{
name = center;
position = "{199, 349}";
},
{
name = top;
position = "{368, 697}";
}
);
associatedMasterId = "DDABD3A5-4A8B-4D55-9B9E-1269DFBEF3A1";
hints = (
{
horizontal = 1;
origin = "{0, 20}";
target = "{2, 15}";
},
{
horizontal = 1;
place = "{307.500000, 76.000000}";
},
{
horizontal = 1;
origin = "{0, 9}";
target = "{2, 6}";
},
{
horizontal = 1;
place = "{297.000000, 111.000000}";
},
{
origin = "{0, 18}";
target = "{2, 2}";
},
{
origin = "{2, 9}";
target = "{0, 6}";
}
);
layerId = "FEBB97E5-EC73-4C4E-9BEE-E4F871BE3182";
name = "Bold Nov 7 15, 03:32";
paths = (
{
closed = 1;
nodes = (
"241 0 LINE SMOOTH",
"395 0 OFFCURVE",
"484 15 OFFCURVE",
"556 48 CURVE SMOOTH",
"674 108 OFFCURVE",
"732 217 OFFCURVE",
"732 378 CURVE SMOOTH",
"732 610 OFFCURVE",
"619 703 OFFCURVE",
"338 703 CURVE SMOOTH",
"273 703 OFFCURVE",
"206 698 OFFCURVE",
"40 686 CURVE",
"34 600 LINE",
"88 570 LINE SMOOTH",
"111 559 OFFCURVE",
"113 554 OFFCURVE",
"113 518 CURVE SMOOTH",
"113 125 LINE",
"38 105 LINE",
"43 0 LINE"
);
},
{
closed = 1;
nodes = (
"390 412 LINE",
"38 380 LINE",
"38 309 LINE",
"390 295 LINE"
);
},
{
closed = 1;
nodes = (
"357 144 OFFCURVE",
"326 147 OFFCURVE",
"300 153 CURVE",
"300 572 LINE",
"318 573 OFFCURVE",
"331 575 OFFCURVE",
"346 575 CURVE SMOOTH",
"477 575 OFFCURVE",
"540 503 OFFCURVE",
"540 347 CURVE SMOOTH",
"540 283 OFFCURVE",
"528 198 OFFCURVE",
"515 165 CURVE",
"483 151 OFFCURVE",
"435 144 OFFCURVE",
"387 144 CURVE SMOOTH"
);
}
);
width = 758;
}
);
leftKerningGroup = D;
rightKerningGroup = O;
unicode = 0110;
},
{
glyphname = E;
lastChange = "2016-03-12 19:18:26 +0000";
layers = (
{
anchors = (
{
name = bottom;
position = "{322, 0}";
},
{
name = ogonek;
position = "{560, 10}";
},
{
name = top;
position = "{314, 676}";
}
);
hints = (
{
horizontal = 1;
place = "{554.000000, 120.000000}";
},
{
horizontal = 1;
origin = "{0, 18}";
target = "{0, 19}";
},
{
origin = "{0, 24}";
target = "{0, 6}";
},
{
horizontal = 1;
origin = "{0, 4}";
target = up;
type = BottomGhost;
},
{
horizontal = 1;
origin = "{0, 13}";
target = up;
type = BottomGhost;
},
{
horizontal = 1;
origin = "{0, 7}";
target = "{0, 10}";
},
{
horizontal = 1;
origin = "{0, 26}";
target = "{0, 5}";
},
{
horizontal = 1;
origin = "{0, 26}";
target = "{0, 25}";
}
);
layerId = "DDABD3A5-4A8B-4D55-9B9E-1269DFBEF3A1";
name = Regular;
paths = (
{
closed = 1;
nodes = (
"584 0 LINE",
"592 74 OFFCURVE",
"596 130 OFFCURVE",
"599 205 CURVE",
"525 210 LINE",
"448 122 LINE",
"282 119 LINE",
"282 280 LINE",
"495 257 LINE",
"495 411 LINE",
"282 393 LINE",
"282 556 LINE",
"433 552 LINE",
"504 464 LINE",
"578 469 LINE",
"578 545 OFFCURVE",
"576 599 OFFCURVE",
"571 674 CURVE",
"28 674 LINE",
"25 584 LINE",
"75 555 LINE SMOOTH",
"98 545 OFFCURVE",
"100 540 OFFCURVE",
"100 505 CURVE SMOOTH",
"100 122 LINE",
"27 102 LINE",
"32 0 LINE"
);
}
);
width = 623;
}
);
leftKerningGroup = E;
rightKerningGroup = E;
unicode = 0045;
},
{
glyphname = Eogonek;
lastChange = "2016-03-12 19:18:26 +0000";
layers = (
{
hints = (
{
horizontal = 1;
origin = "{0, 48}";
target = "{0, 6}";
},
{
horizontal = 1;
place = "{554.000000, 120.000000}";
},
{
horizontal = 1;
origin = "{0, 33}";
target = "{0, 34}";
},
{
origin = "{0, 39}";
target = "{0, 21}";
},
{
origin = "{0, 45}";
target = "{0, 9}";
},
{
horizontal = 1;
origin = "{0, 22}";
target = "{0, 25}";
},
{
horizontal = 1;
origin = "{0, 28}";
target = up;
type = BottomGhost;
},
{
horizontal = 1;
origin = "{0, 41}";
target = "{0, 40}";
},
{
horizontal = 1;
origin = "{0, 41}";
target = "{0, 20}";
},
{
horizontal = 1;
origin = "{0, 19}";
target = up;
type = BottomGhost;
}
);
layerId = "DDABD3A5-4A8B-4D55-9B9E-1269DFBEF3A1";
name = Regular;
paths = (
{
closed = 1;
nodes = (
"478 -227 OFFCURVE",
"520 -216 OFFCURVE",
"554 -198 CURVE",
"542 -138 LINE",
"526 -142 OFFCURVE",
"513 -145 OFFCURVE",
"492 -145 CURVE SMOOTH",
"436 -145 OFFCURVE",
"407 -123 OFFCURVE",
"407 -72 CURVE SMOOTH",
"407 -62 OFFCURVE",
"408 -51 OFFCURVE",
"411 -45 CURVE",
"455 -18 OFFCURVE",
"530 -5 OFFCURVE",
"582 0 CURVE",
"590 74 OFFCURVE",
"595 130 OFFCURVE",
"597 205 CURVE",
"523 210 LINE",
"446 122 LINE",
"280 119 LINE",
"280 280 LINE",
"493 257 LINE",
"493 411 LINE",
"280 393 LINE",
"280 556 LINE",
"431 552 LINE",
"502 464 LINE",
"576 469 LINE",
"576 545 OFFCURVE",
"574 599 OFFCURVE",
"569 674 CURVE",
"26 674 LINE",
"23 584 LINE",
"73 555 LINE SMOOTH",
"96 544 OFFCURVE",
"98 542 OFFCURVE",
"98 505 CURVE SMOOTH",
"98 122 LINE",
"25 102 LINE",
"30 0 LINE",
"353 0 LINE",
"312 -34 OFFCURVE",
"289 -74 OFFCURVE",
"289 -119 CURVE SMOOTH",
"289 -199 OFFCURVE",
"365 -227 OFFCURVE",
"435 -227 CURVE SMOOTH"
);
}
);
width = 621;
}
);
leftKerningGroup = E;
rightKerningGroup = E;
unicode = 0118;
},
{
glyphname = F;
lastChange = "2016-03-12 19:18:26 +0000";
layers = (
{
anchors = (
{
name = bottom;
position = "{209, 0}";
},
{
name = top;
position = "{313, 676}";
}
);
hints = (
{
horizontal = 1;
origin = "{0, 25}";
target = "{0, 1}";
},
{
horizontal = 1;
place = "{554.000000, 120.000000}";
},
{
horizontal = 1;
origin = "{0, 25}";
target = "{0, 23}";
},
{
horizontal = 1;
origin = "{0, 17}";
target = "{0, 18}";
},
{
origin = "{0, 23}";
target = "{0, 5}";
},
{
horizontal = 1;
origin = "{0, 6}";
target = "{0, 9}";
}
);
layerId = "DDABD3A5-4A8B-4D55-9B9E-1269DFBEF3A1";
name = Regular;
paths = (
{
closed = 1;
nodes = (
"361 0 LINE",
"364 81 LINE",
"304 117 LINE SMOOTH",
"284 126 OFFCURVE",
"282 130 OFFCURVE",
"282 162 CURVE SMOOTH",
"282 266 LINE",
"495 243 LINE",
"495 397 LINE",
"282 378 LINE",
"282 556 LINE",
"433 552 LINE",
"504 464 LINE",
"578 469 LINE",
"578 545 OFFCURVE",
"576 599 OFFCURVE",
"571 674 CURVE",
"28 674 LINE",
"25 584 LINE",
"75 555 LINE SMOOTH",
"98 545 OFFCURVE",
"100 540 OFFCURVE",
"100 505 CURVE SMOOTH",
"100 122 LINE",
"27 102 LINE",
"32 0 LINE"
);
}
);
width = 608;
}
);
leftKerningGroup = E;
rightKerningGroup = F;
unicode = 0046;
},
{
glyphname = G;
lastChange = "2016-03-12 19:18:26 +0000";
layers = (
{
anchors = (
{
name = bottom;
position = "{370, -5}";
},
{
name = top;
position = "{367, 676}";
}
);
hints = (
{
horizontal = 1;
origin = "{0, 44}";
target = "{0, 18}";
},
{
horizontal = 1;
origin = "{0, 38}";
target = "{0, 27}";
},
{
origin = "{0, 41}";
target = "{0, 21}";
},
{
origin = "{0, 15}";
target = "{0, 2}";
},
{
horizontal = 1;
origin = "{0, 6}";
target = down;
type = TopGhost;
},
{
horizontal = 1;
origin = "{0, 31}";
target = up;
type = BottomGhost;
},
{
horizontal = 1;
origin = "{0, 10}";
target = "{0, 9}";
}
);
layerId = "DDABD3A5-4A8B-4D55-9B9E-1269DFBEF3A1";
name = Regular;
paths = (
{
closed = 1;
nodes = (
"459 -12 OFFCURVE",
"558 12 OFFCURVE",
"634 50 CURVE",
"634 312 LINE",
"631 327 OFFCURVE",
"627 340 OFFCURVE",
"619 355 CURVE",
"561 353 OFFCURVE",
"472 337 OFFCURVE",
"406 326 CURVE",
"402 258 LINE",
"440 239 LINE SMOOTH",
"458 229 OFFCURVE",
"460 226 OFFCURVE",
"460 199 CURVE SMOOTH",
"460 126 LINE",
"432 123 OFFCURVE",
"413 122 OFFCURVE",
"399 122 CURVE SMOOTH",
"269 124 OFFCURVE",
"210 199 OFFCURVE",
"210 351 CURVE SMOOTH",
"210 427 OFFCURVE",
"223 498 OFFCURVE",
"248 539 CURVE",
"290 545 OFFCURVE",
"311 546 OFFCURVE",
"332 546 CURVE SMOOTH",
"381 546 OFFCURVE",
"420 541 OFFCURVE",
"456 528 CURVE",
"519 436 LINE",
"595 441 LINE",
"606 500 OFFCURVE",
"617 576 OFFCURVE",
"623 633 CURVE",
"545 666 OFFCURVE",
"457 685 OFFCURVE",
"370 685 CURVE SMOOTH",
"154 685 OFFCURVE",
"25 556 OFFCURVE",
"25 341 CURVE SMOOTH",
"25 108 OFFCURVE",
"139 -12 OFFCURVE",
"364 -12 CURVE SMOOTH"
);
}
);
width = 676;
}
);
leftKerningGroup = O;
rightKerningGroup = G;
unicode = 0047;
},
{
glyphname = H;
lastChange = "2016-03-12 19:18:26 +0000";
layers = (
{
anchors = (
{
name = bottom;
position = "{390, 0}";
},
{
name = center;
position = "{385, 469}";
},
{
name = top;
position = "{386, 676}";
}
);
hints = (
{
horizontal = 1;
origin = "{0, 39}";
target = "{0, 37}";
},
{
horizontal = 1;
place = "{276.000000, 133.000000}";
},
{
horizontal = 1;
origin = "{0, 31}";
target = "{0, 28}";
},
{
horizontal = 1;
origin = "{0, 31}";
target = "{0, 29}";
},
{
horizontal = 1;
origin = "{0, 31}";
target = "{0, 21}";
},
{
origin = "{0, 37}";
target = "{0, 5}";
},
{
origin = "{0, 8}";
target = "{0, 16}";
}
);
layerId = "DDABD3A5-4A8B-4D55-9B9E-1269DFBEF3A1";
name = Regular;
paths = (
{
closed = 1;
nodes = (
"342 0 LINE",
"346 86 LINE",
"293 117 LINE SMOOTH",
"273 126 OFFCURVE",
"271 130 OFFCURVE",
"271 162 CURVE SMOOTH",
"271 281 LINE",
"499 271 LINE",
"499 122 LINE",
"429 103 LINE",
"434 0 LINE",
"738 0 LINE",
"742 93 LINE",
"701 117 LINE SMOOTH",
"682 126 OFFCURVE",
"680 130 OFFCURVE",
"680 162 CURVE SMOOTH",
"680 552 LINE",
"741 569 LINE",
"737 674 LINE",
"430 674 LINE",
"425 583 LINE",
"474 555 LINE SMOOTH",
"497 545 OFFCURVE",
"499 540 OFFCURVE",
"499 505 CURVE SMOOTH",
"499 412 LINE",
"271 406 LINE",
"271 552 LINE",
"345 572 LINE",
"340 674 LINE",
"28 674 LINE",
"25 579 LINE",
"67 555 LINE SMOOTH",
"88 545 OFFCURVE",
"90 540 OFFCURVE",
"90 505 CURVE SMOOTH",
"90 122 LINE",
"27 105 LINE",
"32 0 LINE"
);
}
);
width = 765;
}
);
leftKerningGroup = H;
rightKerningGroup = H;
unicode = 0048;
},
{
glyphname = Hbar;
lastChange = "2016-03-12 19:18:27 +0000";
layers = (
{
anchors = (
{
name = bottom;
position = "{390, 0}";
},
{
name = center;
position = "{390, 469}";
},
{
name = top;
position = "{390, 676}";
}
);
hints = (
{
horizontal = 1;
origin = "{0, 38}";
target = "{0, 36}";
},
{
horizontal = 1;
place = "{281.000000, 114.000000}";
},
{
horizontal = 1;
origin = "{0, 30}";
target = "{1, 0}";
},
{
horizontal = 1;
origin = "{0, 38}";
target = "{0, 1}";
},
{
horizontal = 1;
origin = "{0, 30}";
target = "{0, 27}";
},
{
horizontal = 1;
origin = "{0, 30}";
target = "{0, 28}";
},
{
horizontal = 1;
origin = "{1, 0}";
target = "{0, 35}";
},
{
horizontal = 1;
origin = "{0, 30}";
target = "{0, 21}";
},
{
origin = "{0, 36}";
target = "{0, 5}";
},
{
origin = "{0, 8}";
target = "{0, 16}";
}
);
layerId = "DDABD3A5-4A8B-4D55-9B9E-1269DFBEF3A1";
name = Regular;
paths = (
{
closed = 1;
nodes = (
"342 0 LINE",
"346 81 LINE",
"293 112 LINE SMOOTH",
"273 122 OFFCURVE",
"271 125 OFFCURVE",
"271 157 CURVE SMOOTH",
"271 286 LINE",
"499 276 LINE",
"499 117 LINE",
"429 98 LINE",
"434 0 LINE",
"738 0 LINE",
"742 88 LINE",
"701 112 LINE SMOOTH",
"682 122 OFFCURVE",
"680 125 OFFCURVE",
"680 157 CURVE SMOOTH",
"680 557 LINE",
"741 574 LINE",
"737 674 LINE",
"430 674 LINE",
"425 588 LINE",
"474 559 LINE SMOOTH",
"497 548 OFFCURVE",
"499 544 OFFCURVE",
"499 510 CURVE",
"271 510 LINE",
"271 557 LINE",
"345 577 LINE",
"340 674 LINE",
"28 674 LINE",
"25 584 LINE",
"67 559 LINE SMOOTH",
"88 548 OFFCURVE",
"90 544 OFFCURVE",
"90 510 CURVE SMOOTH",
"90 117 LINE",
"27 100 LINE",
"32 0 LINE"
);
},
{
closed = 1;
nodes = (
"271 447 LINE",
"499 447 LINE",
"499 398 LINE",
"271 392 LINE"
);
}
);
width = 765;
}
);
leftKerningGroup = H;
rightKerningGroup = H;
unicode = 0126;
},
{
glyphname = I;
lastChange = "2016-03-12 19:18:26 +0000";
layers = (
{
anchors = (
{
name = bottom;
position = "{207, 0}";
},
{
name = ogonek;
position = "{350, 10}";
},
{
name = top;
position = "{195, 676}";
}
);
hints = (
{
horizontal = 1;
origin = "{0, 17}";
target = up;
type = BottomGhost;
},
{
horizontal = 1;
origin = "{0, 9}";
target = down;
type = TopGhost;
},
{
horizontal = 1;
origin = "{0, 17}";
target = "{0, 1}";
},
{
horizontal = 1;
origin = "{0, 9}";
target = "{0, 6}";
},
{
horizontal = 1;
origin = "{0, 9}";
target = "{0, 7}";
},
{
horizontal = 1;
origin = "{0, 17}";
target = "{0, 15}";
},
{
horizontal = 1;
origin = "{0, 9}";
target = "{0, 10}";
},
{
origin = "{0, 15}";
target = "{0, 5}";
}
);
layerId = "DDABD3A5-4A8B-4D55-9B9E-1269DFBEF3A1";
name = Regular;
paths = (
{
closed = 1;
nodes = (
"356 0 LINE",
"359 86 LINE",
"308 117 LINE SMOOTH",
"288 126 OFFCURVE",
"286 130 OFFCURVE",
"286 162 CURVE SMOOTH",
"286 552 LINE",
"358 572 LINE",
"354 674 LINE",
"33 674 LINE",
"28 585 LINE",
"80 555 LINE SMOOTH",
"103 545 OFFCURVE",
"105 540 OFFCURVE",
"105 505 CURVE SMOOTH",
"105 122 LINE",
"32 102 LINE",
"37 0 LINE"
);
}
);
width = 388;
}
);
leftKerningGroup = I;
rightKerningGroup = I;
unicode = 0049;
},
{
glyphname = Iogonek;
lastChange = "2016-03-12 19:18:26 +0000";
layers = (
{
anchors = (
{
name = bottom;
position = "{207, 0}";
},
{
name = ogonek;
position = "{350, 10}";
},
{
name = top;
position = "{199, 676}";
}
);
hints = (
{
horizontal = 1;
origin = "{0, 39}";
target = "{0, 6}";
},
{
horizontal = 1;
origin = "{0, 32}";
target = down;
type = TopGhost;
},
{
horizontal = 1;
origin = "{0, 24}";
target = down;
type = TopGhost;
},
{
horizontal = 1;
origin = "{0, 24}";
target = "{0, 21}";
},
{
horizontal = 1;
origin = "{0, 24}";
target = "{0, 22}";
},
{
horizontal = 1;
origin = "{0, 32}";
target = "{0, 30}";
},
{
horizontal = 1;
origin = "{0, 24}";
target = "{0, 25}";
},
{
origin = "{0, 36}";
target = "{0, 9}";
},
{
origin = "{0, 30}";
target = "{0, 20}";
}
);
layerId = "DDABD3A5-4A8B-4D55-9B9E-1269DFBEF3A1";
name = Regular;
paths = (
{
closed = 1;
nodes = (
"281 -227 OFFCURVE",
"323 -216 OFFCURVE",
"357 -198 CURVE",
"345 -138 LINE",
"329 -142 OFFCURVE",
"316 -145 OFFCURVE",
"295 -145 CURVE SMOOTH",
"238 -145 OFFCURVE",
"210 -123 OFFCURVE",
"210 -71 CURVE SMOOTH",
"210 -61 OFFCURVE",
"211 -48 OFFCURVE",
"214 -39 CURVE",
"250 -20 OFFCURVE",
"307 -3 OFFCURVE",
"357 5 CURVE",
"359 86 LINE",
"308 117 LINE SMOOTH",
"288 126 OFFCURVE",
"286 130 OFFCURVE",
"286 162 CURVE SMOOTH",
"286 552 LINE",
"358 572 LINE",
"354 674 LINE",
"33 674 LINE",
"28 585 LINE",
"80 555 LINE",
"103 545 OFFCURVE",
"105 540 OFFCURVE",
"105 505 CURVE SMOOTH",
"105 122 LINE",
"32 102 LINE",
"37 0 LINE",
"156 0 LINE",
"115 -34 OFFCURVE",
"92 -74 OFFCURVE",
"92 -119 CURVE SMOOTH",
"92 -199 OFFCURVE",
"169 -227 OFFCURVE",
"238 -227 CURVE SMOOTH"
);
}
);
width = 388;
}
);
leftKerningGroup = I;
leftMetricsKey = "|";
rightKerningGroup = I;
rightMetricsKey = "|";
unicode = 012E;
},
{
glyphname = J;
lastChange = "2016-03-12 19:18:26 +0000";
layers = (
{
anchors = (
{
name = bottom;
position = "{187, -98}";
},
{
name = top;
position = "{189, 676}";
}
);
hints = (
{
horizontal = 1;
origin = "{0, 14}";
target = down;
type = TopGhost;
},
{
horizontal = 1;
origin = "{0, 7}";
target = down;
type = TopGhost;
},
{
horizontal = 1;
origin = "{0, 7}";
target = "{0, 4}";
},
{
horizontal = 1;
origin = "{0, 7}";
target = "{0, 5}";
},
{
horizontal = 1;
origin = "{0, 7}";
target = "{0, 8}";
},
{
origin = "{0, 13}";
target = "{0, 3}";
},
{
horizontal = 1;
origin = "{0, 17}";
target = up;
type = BottomGhost;
}
);
layerId = "DDABD3A5-4A8B-4D55-9B9E-1269DFBEF3A1";
name = Regular;
paths = (
{
closed = 1;
nodes = (
"204 -77 LINE SMOOTH",
"262 13 OFFCURVE",
"282 90 OFFCURVE",
"282 232 CURVE SMOOTH",
"282 552 LINE",
"355 572 LINE",
"350 674 LINE",
"29 674 LINE",
"25 585 LINE",
"76 555 LINE SMOOTH",
"99 545 OFFCURVE",
"101 540 OFFCURVE",
"101 505 CURVE SMOOTH",
"101 91 LINE",
"20 -7 LINE",
"73 -64 OFFCURVE",
"101 -82 OFFCURVE",
"173 -121 CURVE"
);
}
);
width = 378;
}
);
leftKerningGroup = J;
rightKerningGroup = J;
unicode = 004A;
},
{
glyphname = K;
lastChange = "2016-03-12 19:18:26 +0000";
layers = (
{
anchors = (
{
name = bottom;
position = "{385, 0}";
},
{
name = top;
position = "{381, 676}";
}
);
hints = (
{
horizontal = 1;
origin = "{0, 34}";
target = "{0, 1}";
},
{
horizontal = 1;
origin = "{0, 26}";
target = "{0, 14}";
},
{
horizontal = 1;
origin = "{0, 26}";
target = "{0, 23}";
},
{
horizontal = 1;
origin = "{0, 26}";
target = "{0, 24}";
},
{
horizontal = 1;
origin = "{0, 34}";
target = "{0, 32}";
},
{
horizontal = 1;
origin = "{0, 26}";
target = "{0, 27}";
},
{
origin = "{0, 32}";
target = "{0, 5}";
}
);
layerId = "DDABD3A5-4A8B-4D55-9B9E-1269DFBEF3A1";
name = Regular;
paths = (
{
closed = 1;
nodes = (
"342 0 LINE",
"346 86 LINE",
"293 116 LINE SMOOTH",
"272 127 OFFCURVE",
"271 134 OFFCURVE",
"271 162 CURVE SMOOTH",
"271 301 LINE",
"498 0 LINE",
"689 0 LINE",
"689 45 LINE",
"444 361 LINE",
"673 606 LINE",
"661 674 LINE",
"429 674 LINE",
"418 608 LINE",
"447 573 LINE SMOOTH",
"449 570 OFFCURVE",
"450 567 OFFCURVE",
"450 564 CURVE SMOOTH",
"450 560 OFFCURVE",
"449 556 OFFCURVE",
"446 553 CURVE SMOOTH",
"271 364 LINE",
"271 552 LINE",
"345 572 LINE",
"340 674 LINE",
"28 674 LINE",
"25 579 LINE",
"67 555 LINE SMOOTH",
"88 545 OFFCURVE",
"90 540 OFFCURVE",
"90 505 CURVE SMOOTH",
"90 122 LINE",
"27 105 LINE",
"32 0 LINE"
);
}
);
width = 703;
}
);
leftKerningGroup = H;
rightKerningGroup = K;
unicode = 004B;
},
{
glyphname = L;
lastChange = "2016-03-12 19:18:26 +0000";
layers = (
{
anchors = (
{
name = bottom;
position = "{299, 0}";
},
{
name = center;
position = "{178, 331}";
},
{
name = top;
position = "{180, 676}";
},
{
name = topright;
position = "{558, 676}";
}
);
hints = (
{
horizontal = 1;
origin = "{0, 10}";
target = down;
type = TopGhost;
},
{
horizontal = 1;
origin = "{0, 10}";
target = "{0, 7}";
},
{
horizontal = 1;
origin = "{0, 10}";
target = "{0, 8}";
},
{
horizontal = 1;
origin = "{0, 10}";
target = "{0, 11}";
},
{
origin = "{0, 16}";
target = "{0, 6}";
},
{
horizontal = 1;
origin = "{0, 4}";
target = up;
type = BottomGhost;
},
{
horizontal = 1;
origin = "{0, 18}";
target = "{0, 5}";
},
{
horizontal = 1;
origin = "{0, 18}";
target = "{0, 17}";
}
);
layerId = "DDABD3A5-4A8B-4D55-9B9E-1269DFBEF3A1";
name = Regular;
paths = (
{
closed = 1;
nodes = (
"545 0 LINE",
"552 78 OFFCURVE",
"557 138 OFFCURVE",
"559 216 CURVE",
"482 220 LINE",
"397 123 LINE",
"271 120 LINE",
"271 552 LINE",
"345 572 LINE",
"340 674 LINE",
"28 674 LINE",
"25 579 LINE",
"67 555 LINE SMOOTH",
"88 545 OFFCURVE",
"90 540 OFFCURVE",
"90 505 CURVE SMOOTH",
"90 122 LINE",
"27 105 LINE",
"32 0 LINE"
);
}
);
width = 584;
}
);
leftKerningGroup = H;
rightKerningGroup = L;
unicode = 004C;
},
{
glyphname = Lcaron;
lastChange = "2016-03-12 19:18:27 +0000";
layers = (
{
anchors = (
{
name = top;
position = "{222, 948}";
}
);
hints = (
{
horizontal = 1;
origin = "{0, 10}";
target = "{1, 4}";
},
{
horizontal = 1;
origin = "{0, 10}";
target = "{0, 7}";
},
{
horizontal = 1;
origin = "{0, 10}";
target = "{0, 8}";
},
{
horizontal = 1;
origin = "{0, 10}";
target = "{0, 11}";
},
{
horizontal = 1;
origin = "{0, 10}";
target = "{1, 1}";
},
{
origin = "{0, 16}";
target = "{0, 6}";
},
{
horizontal = 1;
origin = "{0, 18}";
target = "{0, 5}";
},
{
horizontal = 1;
origin = "{0, 18}";
target = "{0, 17}";
},
{
horizontal = 1;
origin = "{0, 4}";
target = up;
type = BottomGhost;
}
);
layerId = "DDABD3A5-4A8B-4D55-9B9E-1269DFBEF3A1";
name = Regular;
paths = (
{
closed = 1;
nodes = (
"545 0 LINE",
"552 78 OFFCURVE",
"557 138 OFFCURVE",
"559 216 CURVE",
"482 220 LINE",
"397 123 LINE",
"271 120 LINE",
"271 552 LINE",
"345 572 LINE",
"340 674 LINE",
"28 674 LINE",
"25 579 LINE",
"67 555 LINE SMOOTH",
"88 545 OFFCURVE",
"90 540 OFFCURVE",
"90 505 CURVE SMOOTH",
"90 122 LINE",
"27 105 LINE",
"32 0 LINE"
);
},
{
closed = 1;
nodes = (
"477 498 LINE",
"642 633 LINE",
"642 674 LINE",
"467 674 LINE",
"399 498 LINE"
);
}
);
width = 584;
}
);
leftKerningGroup = H;
unicode = 013D;
},
{
glyphname = Lslash;
lastChange = "2016-03-12 19:18:26 +0000";
layers = (
{
hints = (
{
horizontal = 1;
origin = "{0, 14}";
target = down;
type = TopGhost;
},
{
horizontal = 1;
origin = "{0, 14}";
target = "{0, 11}";
},
{
horizontal = 1;
origin = "{0, 14}";
target = "{0, 12}";
},
{
horizontal = 1;
origin = "{0, 14}";
target = "{0, 15}";
},
{
origin = "{0, 24}";
target = "{0, 6}";
},
{
horizontal = 1;
origin = "{0, 4}";
target = up;
type = BottomGhost;
},
{
horizontal = 1;
origin = "{0, 22}";
target = down;
type = TopGhost;
},
{
horizontal = 1;
origin = "{0, 9}";
target = up;
type = BottomGhost;
},
{
horizontal = 1;
origin = "{0, 26}";
target = "{0, 25}";
},
{
horizontal = 1;
origin = "{0, 26}";
target = "{0, 5}";
}
);
layerId = "DDABD3A5-4A8B-4D55-9B9E-1269DFBEF3A1";
name = Regular;
paths = (
{
closed = 1;
nodes = (
"545 0 LINE",
"552 78 OFFCURVE",
"557 138 OFFCURVE",
"559 216 CURVE",
"482 220 LINE",
"397 123 LINE",
"271 120 LINE",
"271 328 LINE",
"424 430 LINE",
"419 518 LINE",
"271 420 LINE",
"271 552 LINE",
"345 572 LINE",
"340 674 LINE",
"28 674 LINE",
"25 579 LINE",
"67 555 LINE SMOOTH",
"88 545 OFFCURVE",
"90 540 OFFCURVE",
"90 505 CURVE SMOOTH",
"90 300 LINE",
"24 255 LINE",
"27 166 LINE",
"90 208 LINE",
"90 122 LINE",
"27 105 LINE",
"32 0 LINE"
);
}
);
width = 584;
}
);
rightKerningGroup = L;
unicode = 0141;
},
{
glyphname = M;
lastChange = "2016-03-12 19:18:26 +0000";
layers = (
{
anchors = (
{
name = bottom;
position = "{474, 0}";
},
{
name = top;
position = "{485, 676}";
}
);
hints = (
{
horizontal = 1;
origin = "{0, 0}";
target = up;
type = BottomGhost;
},
{
horizontal = 1;
origin = "{0, 17}";
target = down;
type = TopGhost;
},
{
horizontal = 1;
origin = "{0, 25}";
target = "{0, 2}";
},
{
horizontal = 1;
origin = "{0, 25}";
target = "{0, 6}";
},
{
horizontal = 1;
origin = "{0, 17}";
target = "{0, 19}";
},
{
horizontal = 1;
origin = "{0, 17}";
target = "{0, 12}";
},
{
horizontal = 1;
origin = "{0, 17}";
target = "{0, 18}";
},
{
horizontal = 1;
origin = "{0, 0}";
target = "{0, 15}";
}
);
layerId = "DDABD3A5-4A8B-4D55-9B9E-1269DFBEF3A1";
name = Regular;
paths = (
{
closed = 1;
nodes = (
"547 -4 LINE",
"675 448 LINE",
"709 113 LINE",
"627 92 LINE",
"636 0 LINE",
"934 0 LINE",
"940 67 LINE",
"919 94 LINE SMOOTH",
"893 127 OFFCURVE",
"889 134 OFFCURVE",
"885 161 CURVE SMOOTH",
"831 553 LINE",
"895 569 LINE",
"891 674 LINE",
"623 674 LINE",
"481 208 LINE",
"338 674 LINE",
"51 674 LINE",
"45 579 LINE",
"91 553 LINE SMOOTH",
"117 539 OFFCURVE",
"120 533 OFFCURVE",
"116 503 CURVE SMOOTH",
"59 117 LINE",
"13 89 LINE",
"23 0 LINE",
"272 0 LINE",
"282 91 LINE",
"220 117 LINE SMOOTH",
"210 121 OFFCURVE",
"205 130 OFFCURVE",
"206 146 CURVE SMOOTH",
"228 442 LINE",
"376 -19 LINE"
);
}
);
width = 952;
}
);
leftKerningGroup = M;
rightKerningGroup = M;
unicode = 004D;
},
{
glyphname = N;
lastChange = "2016-03-12 19:18:26 +0000";
layers = (
{
anchors = (
{
name = bottom;
position = "{382, 0}";
},
{
name = top;
position = "{376, 676}";
}
);
hints = (
{
horizontal = 1;
origin = "{0, 20}";
target = up;
type = BottomGhost;
},
{
horizontal = 1;
origin = "{0, 12}";
target = down;
type = TopGhost;
},
{
horizontal = 1;
origin = "{0, 12}";
target = "{0, 1}";
},
{
horizontal = 1;
origin = "{0, 12}";
target = "{0, 2}";
},
{
horizontal = 1;
origin = "{0, 20}";
target = "{0, 18}";
},
{
horizontal = 1;
origin = "{0, 12}";
target = "{0, 5}";
},
{
horizontal = 1;
origin = "{0, 20}";
target = "{0, 22}";
},
{
place = "{541.000000, 130.000000}";
},
{
horizontal = 1;
origin = "{0, 28}";
target = up;
type = BottomGhost;
}
);
layerId = "DDABD3A5-4A8B-4D55-9B9E-1269DFBEF3A1";
name = Regular;
paths = (
{
closed = 1;
nodes = (
"669 9 LINE",
"673 550 LINE",
"724 572 LINE",
"720 674 LINE",
"462 674 LINE",
"459 590 LINE",
"511 556 LINE SMOOTH",
"530 545 OFFCURVE",
"532 542 OFFCURVE",
"534 510 CURVE SMOOTH",
"548 287 LINE",
"246 674 LINE",
"39 674 LINE",
"32 586 LINE",
"69 558 LINE SMOOTH",
"83 546 OFFCURVE",
"86 542 OFFCURVE",
"86 516 CURVE SMOOTH",
"82 122 LINE",
"28 109 LINE",
"33 0 LINE",
"293 0 LINE",
"297 84 LINE",
"245 119 LINE SMOOTH",
"226 130 OFFCURVE",
"224 133 OFFCURVE",
"222 164 CURVE SMOOTH",
"205 426 LINE",
"554 -29 LINE"
);
}
);
width = 748;
}
);
leftKerningGroup = N;
rightKerningGroup = N;
unicode = 004E;
},
{
glyphname = Eng;
lastChange = "2016-03-12 19:18:26 +0000";
layers = (
{
hints = (
{
horizontal = 1;
origin = "{0, 35}";
target = up;
type = BottomGhost;
},
{
horizontal = 1;
origin = "{0, 23}";
target = up;
type = BottomGhost;
},
{
horizontal = 1;
origin = "{0, 15}";
target = down;
type = TopGhost;
},
{
horizontal = 1;
origin = "{0, 15}";
target = "{0, 4}";
},
{
horizontal = 1;
origin = "{0, 15}";
target = "{0, 5}";
},
{
horizontal = 1;
origin = "{0, 23}";
target = "{0, 21}";
},
{
horizontal = 1;
origin = "{0, 15}";
target = "{0, 8}";
},
{
horizontal = 1;
origin = "{0, 23}";
target = "{0, 25}";
},
{
place = "{541.000000, 129.000000}";
},
{
horizontal = 1;
origin = "{0, 32}";
target = down;
type = TopGhost;
}
);
layerId = "DDABD3A5-4A8B-4D55-9B9E-1269DFBEF3A1";
name = Regular;
paths = (
{
closed = 1;
nodes = (
"605 -172 LINE SMOOTH",
"653 -82 OFFCURVE",
"670 -5 OFFCURVE",
"670 137 CURVE SMOOTH",
"673 550 LINE",
"724 572 LINE",
"720 674 LINE",
"462 674 LINE",
"459 590 LINE",
"511 556 LINE SMOOTH",
"530 545 OFFCURVE",
"532 542 OFFCURVE",
"534 510 CURVE SMOOTH",
"548 287 LINE",
"246 674 LINE",
"39 674 LINE",
"32 586 LINE",
"69 558 LINE SMOOTH",
"83 546 OFFCURVE",
"86 542 OFFCURVE",
"86 516 CURVE SMOOTH",
"82 122 LINE",
"28 109 LINE",
"33 0 LINE",
"293 0 LINE",
"297 84 LINE",
"245 119 LINE SMOOTH",
"226 130 OFFCURVE",
"224 133 OFFCURVE",
"222 164 CURVE SMOOTH",
"205 426 LINE",
"554 -29 LINE",
"459 -116 LINE",
"505 -171 OFFCURVE",
"520 -178 OFFCURVE",
"580 -216 CURVE"
);
}
);
width = 748;
}
);
leftKerningGroup = N;
rightKerningGroup = N;
unicode = 014A;
},
{
glyphname = O;
lastChange = "2016-03-12 19:18:27 +0000";
layers = (
{
anchors = (
{
name = bottom;
position = "{361, 0}";
},
{
name = center;
position = "{361, 339}";
},
{
name = ogonek;
position = "{536, 10}";
},
{
name = top;
position = "{365, 676}";
},
{
name = topright;
position = "{703, 676}";
}
);
hints = (
{
horizontal = 1;
origin = "{0, 11}";
target = "{1, 17}";
},
{
horizontal = 1;
origin = "{0, 5}";
target = "{1, 8}";
},
{
origin = "{0, 8}";
target = "{1, 2}";
},
{
origin = "{1, 11}";
target = "{0, 2}";
}
);
layerId = "DDABD3A5-4A8B-4D55-9B9E-1269DFBEF3A1";
name = Regular;
paths = (
{
closed = 1;
nodes = (
"570 -14 OFFCURVE",
"698 120 OFFCURVE",
"698 346 CURVE SMOOTH",
"698 573 OFFCURVE",
"587 687 OFFCURVE",
"364 687 CURVE SMOOTH",
"153 687 OFFCURVE",
"25 548 OFFCURVE",
"25 325 CURVE SMOOTH",
"25 98 OFFCURVE",
"132 -14 OFFCURVE",
"354 -14 CURVE SMOOTH"
);
},
{
closed = 1;
nodes = (
"268 124 OFFCURVE",
"211 210 OFFCURVE",
"211 364 CURVE SMOOTH",
"211 437 OFFCURVE",
"219 500 OFFCURVE",
"234 526 CURVE",
"269 540 OFFCURVE",
"306 547 OFFCURVE",
"344 547 CURVE SMOOTH",
"451 547 OFFCURVE",
"507 470 OFFCURVE",
"507 322 CURVE SMOOTH",
"507 264 OFFCURVE",
"499 196 OFFCURVE",
"484 153 CURVE",
"448 133 OFFCURVE",
"415 124 OFFCURVE",
"375 124 CURVE SMOOTH"
);
}
);
width = 722;
}
);
leftKerningGroup = O;
rightKerningGroup = O;
unicode = 004F;
},
{
glyphname = Oslash;
lastChange = "2016-03-12 19:18:27 +0000";
layers = (
{
anchors = (
{
name = bottom;
position = "{361, 0}";
},
{
name = center;
position = "{361, 339}";
},
{
name = ogonek;
position = "{536, 10}";
},
{
name = top;
position = "{361, 676}";
},
{
name = topright;
position = "{703, 676}";
}
);
hints = (
{
horizontal = 1;
origin = "{1, 11}";
target = "{2, 17}";
},
{
horizontal = 1;
origin = "{1, 5}";
target = "{2, 8}";
},
{
origin = "{1, 8}";
target = "{2, 2}";
},
{
origin = "{2, 11}";
target = "{1, 2}";
},
{
horizontal = 1;
origin = "{0, 3}";
target = up;
type = BottomGhost;
},
{
horizontal = 1;
origin = "{0, 2}";
target = down;
type = TopGhost;
}
);
layerId = "DDABD3A5-4A8B-4D55-9B9E-1269DFBEF3A1";
name = Regular;
paths = (
{
closed = 1;
nodes = (
"151 -31 LINE",
"684 707 LINE",
"571 707 LINE",
"38 -31 LINE"
);
},
{
closed = 1;
nodes = (
"570 -14 OFFCURVE",
"698 120 OFFCURVE",
"698 346 CURVE SMOOTH",
"698 573 OFFCURVE",
"587 687 OFFCURVE",
"364 687 CURVE SMOOTH",
"153 687 OFFCURVE",
"25 548 OFFCURVE",
"25 325 CURVE SMOOTH",
"25 98 OFFCURVE",
"132 -14 OFFCURVE",
"354 -14 CURVE SMOOTH"
);
},
{
closed = 1;
nodes = (
"268 124 OFFCURVE",
"211 210 OFFCURVE",
"211 364 CURVE SMOOTH",
"211 437 OFFCURVE",
"219 500 OFFCURVE",
"234 526 CURVE",
"269 540 OFFCURVE",
"306 547 OFFCURVE",
"344 547 CURVE SMOOTH",
"451 547 OFFCURVE",
"507 470 OFFCURVE",
"507 322 CURVE SMOOTH",
"507 264 OFFCURVE",
"499 196 OFFCURVE",
"484 153 CURVE",
"448 133 OFFCURVE",
"415 124 OFFCURVE",
"375 124 CURVE SMOOTH"
);
}
);
width = 722;
}
);
leftKerningGroup = O;
rightKerningGroup = O;
unicode = 00D8;
},
{
glyphname = OE;
lastChange = "2016-03-12 19:18:27 +0000";
layers = (
{
anchors = (
{
name = bottom;
position = "{510, 0}";
},
{
name = top;
position = "{510, 674}";
}
);
hints = (
{
horizontal = 1;
origin = "{0, 30}";
target = "{1, 17}";
},
{
horizontal = 1;
place = "{554.000000, 120.000000}";
},
{
horizontal = 1;
origin = "{0, 24}";
target = "{1, 8}";
},
{
horizontal = 1;
origin = "{1, 17}";
target = "{0, 2}";
},
{
origin = "{0, 27}";
target = "{1, 2}";
},
{
origin = "{1, 11}";
target = "{0, 9}";
},
{
horizontal = 1;
origin = "{0, 10}";
target = "{0, 13}";
},
{
horizontal = 1;
origin = "{0, 11}";
target = "{0, 12}";
},
{
horizontal = 1;
origin = "{0, 7}";
target = up;
type = BottomGhost;
},
{
horizontal = 1;
origin = "{0, 16}";
target = up;
type = BottomGhost;
}
);
layerId = "DDABD3A5-4A8B-4D55-9B9E-1269DFBEF3A1";
name = Regular;
paths = (
{
closed = 1;
nodes = (
"392 -14 OFFCURVE",
"429 -9 OFFCURVE",
"463 0 CURVE",
"971 0 LINE",
"980 85 OFFCURVE",
"984 138 OFFCURVE",
"986 205 CURVE",
"913 210 LINE",
"836 122 LINE",
"680 119 LINE",
"680 280 LINE",
"882 257 LINE",
"882 411 LINE",
"680 393 LINE",
"680 556 LINE",
"821 552 LINE",
"891 464 LINE",
"965 469 LINE",
"965 542 OFFCURVE",
"964 595 OFFCURVE",
"959 674 CURVE",
"479 674 LINE",
"447 683 OFFCURVE",
"409 687 OFFCURVE",
"364 687 CURVE SMOOTH",
"153 687 OFFCURVE",
"25 548 OFFCURVE",
"25 325 CURVE SMOOTH",
"25 98 OFFCURVE",
"132 -14 OFFCURVE",
"354 -14 CURVE SMOOTH"
);
},
{
closed = 1;
nodes = (
"268 124 OFFCURVE",
"211 210 OFFCURVE",
"211 364 CURVE SMOOTH",
"211 437 OFFCURVE",
"219 500 OFFCURVE",
"234 526 CURVE",
"273 542 OFFCURVE",
"310 547 OFFCURVE",
"344 547 CURVE SMOOTH",
"451 547 OFFCURVE",
"507 470 OFFCURVE",
"507 322 CURVE SMOOTH",
"507 263 OFFCURVE",
"498 195 OFFCURVE",
"484 153 CURVE",
"448 133 OFFCURVE",
"415 124 OFFCURVE",
"375 124 CURVE SMOOTH"
);
}
);
width = 1011;
}
);
leftKerningGroup = O;
rightKerningGroup = E;
unicode = 0152;
},
{
glyphname = P;
lastChange = "2016-03-12 19:18:27 +0000";
layers = (
{
anchors = (
{
name = bottom;
position = "{209, 0}";
},
{
name = top;
position = "{326, 676}";
}
);
hints = (
{
horizontal = 1;
origin = "{0, 24}";
target = "{0, 1}";
},
{
horizontal = 1;
origin = "{0, 7}";
target = "{1, 15}";
},
{
horizontal = 1;
origin = "{0, 13}";
target = "{1, 6}";
},
{
horizontal = 1;
origin = "{0, 24}";
target = "{0, 22}";
},
{
origin = "{0, 22}";
target = "{0, 5}";
},
{
origin = "{1, 9}";
target = "{0, 10}";
}
);
layerId = "DDABD3A5-4A8B-4D55-9B9E-1269DFBEF3A1";
name = Regular;
paths = (
{
closed = 1;
nodes = (
"370 0 LINE",
"374 81 LINE",
"313 117 LINE SMOOTH",
"294 126 OFFCURVE",
"292 130 OFFCURVE",
"292 162 CURVE SMOOTH",
"292 238 LINE",
"347 236 LINE SMOOTH",
"522 236 OFFCURVE",
"629 321 OFFCURVE",
"629 461 CURVE SMOOTH",
"629 621 OFFCURVE",
"544 686 OFFCURVE",
"329 686 CURVE SMOOTH",
"228 686 OFFCURVE",
"143 680 OFFCURVE",
"39 663 CURVE",
"33 582 LINE",
"85 553 LINE SMOOTH",
"108 543 OFFCURVE",
"110 538 OFFCURVE",
"110 503 CURVE SMOOTH",
"110 122 LINE",
"37 102 LINE",
"42 0 LINE"
);
},
{
closed = 1;
nodes = (
"330 347 OFFCURVE",
"310 349 OFFCURVE",
"292 353 CURVE",
"292 566 LINE",
"313 568 OFFCURVE",
"331 570 OFFCURVE",
"351 570 CURVE SMOOTH",
"417 570 OFFCURVE",
"446 540 OFFCURVE",
"446 461 CURVE SMOOTH",
"446 423 OFFCURVE",
"442 389 OFFCURVE",
"435 358 CURVE",
"419 351 OFFCURVE",
"391 347 OFFCURVE",
"356 347 CURVE SMOOTH"
);
}
);
width = 647;
}
);
leftKerningGroup = P;
rightKerningGroup = P;
unicode = 0050;
},
{
glyphname = Thorn;
lastChange = "2016-03-12 19:18:27 +0000";
layers = (
{
hints = (
{
horizontal = 1;
origin = "{0, 26}";
target = "{0, 1}";
},
{
horizontal = 1;
place = "{154.000000, 94.000000}";
},
{
horizontal = 1;
origin = "{0, 13}";
target = "{1, 6}";
},
{
horizontal = 1;
origin = "{0, 18}";
target = "{0, 19}";
},
{
horizontal = 1;
origin = "{0, 18}";
target = "{0, 15}";
},
{
horizontal = 1;
origin = "{0, 18}";
target = "{0, 16}";
},
{
horizontal = 1;
origin = "{0, 26}";
target = "{0, 24}";
},
{
origin = "{0, 24}";
target = "{0, 5}";
},
{
origin = "{1, 9}";
target = "{0, 10}";
}
);
layerId = "DDABD3A5-4A8B-4D55-9B9E-1269DFBEF3A1";
name = Regular;
paths = (
{
closed = 1;
nodes = (
"365 0 LINE",
"369 72 LINE",
"309 107 LINE SMOOTH",
"289 118 OFFCURVE",
"287 121 OFFCURVE",
"287 152 CURVE SMOOTH",
"287 155 LINE",
"343 153 LINE SMOOTH",
"508 148 OFFCURVE",
"614 219 OFFCURVE",
"614 347 CURVE SMOOTH",
"614 467 OFFCURVE",
"521 528 OFFCURVE",
"324 523 CURVE SMOOTH",
"286 522 LINE",
"286 561 LINE",
"358 582 LINE",
"354 674 LINE",
"33 674 LINE",
"28 595 LINE",
"80 564 LINE SMOOTH",
"103 553 OFFCURVE",
"105 545 OFFCURVE",
"105 510 CURVE SMOOTH",
"105 113 LINE",
"32 92 LINE",
"37 0 LINE"
);
},
{
closed = 1;
nodes = (
"323 248 OFFCURVE",
"302 250 OFFCURVE",
"287 253 CURVE",
"287 428 LINE",
"305 430 OFFCURVE",
"323 430 OFFCURVE",
"340 430 CURVE SMOOTH",
"402 430 OFFCURVE",
"431 415 OFFCURVE",
"431 339 CURVE SMOOTH",
"431 311 OFFCURVE",
"427 282 OFFCURVE",
"420 258 CURVE",
"405 251 OFFCURVE",
"375 248 OFFCURVE",
"347 248 CURVE SMOOTH"
);
}
);
width = 624;
}
);
leftKerningGroup = I;
unicode = 00DE;
},
{
glyphname = Q;
lastChange = "2016-03-12 19:18:27 +0000";
layers = (
{
anchors = (
{
name = bottom;
position = "{359, 0}";
},
{
name = top;
position = "{364, 676}";
}
);
hints = (
{
horizontal = 1;
origin = "{0, 8}";
target = "{1, 8}";
},
{
horizontal = 1;
origin = "{0, 17}";
target = up;
type = BottomGhost;
},
{
horizontal = 1;
origin = "{0, 14}";
target = "{1, 17}";
},
{
origin = "{0, 11}";
target = "{1, 2}";
},
{
origin = "{1, 11}";
target = "{0, 5}";
},
{
horizontal = 1;
origin = "{0, 18}";
target = "{0, 1}";
}
);
layerId = "DDABD3A5-4A8B-4D55-9B9E-1269DFBEF3A1";
name = Regular;
paths = (
{
closed = 1;
nodes = (
"731 -36 LINE",
"731 100 LINE",
"620 95 LINE",
"671 156 OFFCURVE",
"698 241 OFFCURVE",
"698 346 CURVE SMOOTH",
"698 573 OFFCURVE",
"587 687 OFFCURVE",
"364 687 CURVE SMOOTH",
"153 687 OFFCURVE",
"25 548 OFFCURVE",
"25 325 CURVE SMOOTH",
"25 98 OFFCURVE",
"132 -14 OFFCURVE",
"354 -14 CURVE SMOOTH",
"377 -14 OFFCURVE",
"400 -12 OFFCURVE",
"421 -9 CURVE",
"666 -36 LINE"
);
},
{
closed = 1;
nodes = (
"268 124 OFFCURVE",
"212 210 OFFCURVE",
"212 364 CURVE SMOOTH",
"212 437 OFFCURVE",
"219 500 OFFCURVE",
"234 526 CURVE",
"270 540 OFFCURVE",
"306 547 OFFCURVE",
"344 547 CURVE SMOOTH",
"451 547 OFFCURVE",
"507 470 OFFCURVE",
"507 322 CURVE SMOOTH",
"507 264 OFFCURVE",
"499 196 OFFCURVE",
"484 153 CURVE",
"447 133 OFFCURVE",
"415 124 OFFCURVE",
"375 124 CURVE SMOOTH"
);
}
);
width = 740;
}
);
leftKerningGroup = O;
rightKerningGroup = Q;
unicode = 0051;
},
{
glyphname = R;
lastChange = "2016-03-12 19:18:28 +0000";
layers = (
{
anchors = (
{
name = bottom;
position = "{397, 0}";
},
{
name = top;
position = "{343, 676}";
}
);
hints = (
{
horizontal = 1;
origin = "{0, 28}";
target = "{0, 10}";
},
{
horizontal = 1;
place = "{267.500000, 112.500000}";
},
{
horizontal = 1;
origin = "{0, 17}";
target = "{1, 6}";
},
{
origin = "{0, 26}";
target = "{1, 2}";
},
{
origin = "{1, 9}";
target = "{0, 14}";
}
);
layerId = "DDABD3A5-4A8B-4D55-9B9E-1269DFBEF3A1";
name = Regular;
paths = (
{
closed = 1;
nodes = (
"351 0 LINE",
"355 86 LINE",
"312 111 LINE",
"293 121 OFFCURVE",
"291 124 OFFCURVE",
"291 156 CURVE SMOOTH",
"291 268 LINE",
"335 267 LINE",
"483 0 LINE",
"665 0 LINE",
"666 39 LINE",
"506 297 LINE",
"584 330 OFFCURVE",
"629 394 OFFCURVE",
"629 477 CURVE SMOOTH",
"629 626 OFFCURVE",
"543 686 OFFCURVE",
"328 686 CURVE SMOOTH",
"225 686 OFFCURVE",
"141 679 OFFCURVE",
"39 664 CURVE",
"33 582 LINE",
"85 553 LINE",
"108 543 OFFCURVE",
"110 538 OFFCURVE",
"110 503 CURVE SMOOTH",
"110 122 LINE",
"37 102 LINE",
"42 0 LINE"
);
},
{
closed = 1;
nodes = (
"331 380 OFFCURVE",
"310 382 OFFCURVE",
"293 386 CURVE",
"293 565 LINE",
"312 567 OFFCURVE",
"330 568 OFFCURVE",
"350 568 CURVE SMOOTH",
"416 568 OFFCURVE",
"443 544 OFFCURVE",
"443 476 CURVE SMOOTH",
"443 446 OFFCURVE",
"440 415 OFFCURVE",
"433 390 CURVE",
"418 384 OFFCURVE",
"390 380 OFFCURVE",
"355 380 CURVE SMOOTH"
);
}
);
width = 674;
}
);
leftKerningGroup = P;
rightKerningGroup = R;
unicode = 0052;
},
{
glyphname = S;
lastChange = "2016-03-12 19:18:26 +0000";
layers = (
{
anchors = (
{
name = bottom;
position = "{286, 0}";
},
{
name = top;
position = "{306, 676}";
}
);
hints = (
{
horizontal = 1;
origin = "{0, 51}";
target = "{0, 40}";
},
{
horizontal = 1;
origin = "{0, 25}";
target = "{0, 14}";
},
{
origin = "{0, 28}";
target = "{0, 8}";
},
{
origin = "{0, 34}";
target = "{0, 2}";
},
{
horizontal = 1;
origin = "{0, 18}";
target = up;
type = BottomGhost;
},
{
horizontal = 1;
origin = "{0, 44}";
target = down;
type = TopGhost;
}
);
layerId = "DDABD3A5-4A8B-4D55-9B9E-1269DFBEF3A1";
name = Regular;
paths = (
{
closed = 1;
nodes = (
"437 -12 OFFCURVE",
"548 69 OFFCURVE",
"548 201 CURVE SMOOTH",
"548 289 OFFCURVE",
"509 331 OFFCURVE",
"353 405 CURVE SMOOTH",
"246 456 OFFCURVE",
"220 478 OFFCURVE",
"220 521 CURVE SMOOTH",
"220 528 OFFCURVE",
"221 536 OFFCURVE",
"225 552 CURVE",
"239 557 OFFCURVE",
"254 558 OFFCURVE",
"276 558 CURVE SMOOTH",
"310 558 OFFCURVE",
"340 555 OFFCURVE",
"366 547 CURVE",
"442 450 LINE",
"515 461 LINE",
"520 531 OFFCURVE",
"524 579 OFFCURVE",
"527 643 CURVE",
"469 669 OFFCURVE",
"386 686 OFFCURVE",
"307 686 CURVE SMOOTH",
"144 686 OFFCURVE",
"45 604 OFFCURVE",
"45 467 CURVE SMOOTH",
"45 379 OFFCURVE",
"92 318 OFFCURVE",
"207 262 CURVE SMOOTH",
"338 203 OFFCURVE",
"347 195 OFFCURVE",
"347 151 CURVE SMOOTH",
"347 147 OFFCURVE",
"347 144 OFFCURVE",
"345 124 CURVE",
"316 119 OFFCURVE",
"294 115 OFFCURVE",
"277 115 CURVE SMOOTH",
"247 115 OFFCURVE",
"211 122 OFFCURVE",
"171 136 CURVE",
"121 221 LINE",
"44 206 LINE",
"35 138 OFFCURVE",
"31 85 OFFCURVE",
"28 22 CURVE",
"101 0 OFFCURVE",
"177 -12 OFFCURVE",
"251 -12 CURVE SMOOTH"
);
}
);
width = 571;
}
);
leftKerningGroup = S;
rightKerningGroup = S;
unicode = 0053;
},
{
glyphname = T;
lastChange = "2016-03-12 19:18:26 +0000";
layers = (
{
anchors = (
{
name = bottom;
position = "{350, 0}";
},
{
name = center;
position = "{350, 371}";
},
{
name = top;
position = "{349, 676}";
}
);
hints = (
{
horizontal = 1;
origin = "{0, 22}";
target = "{0, 1}";
},
{
horizontal = 1;
place = "{551.500000, 122.500000}";
},
{
horizontal = 1;
origin = "{0, 22}";
target = "{0, 20}";
},
{
origin = "{0, 20}";
target = "{0, 5}";
},
{
horizontal = 1;
origin = "{0, 8}";
target = up;
type = BottomGhost;
}
);
layerId = "DDABD3A5-4A8B-4D55-9B9E-1269DFBEF3A1";
name = Regular;
paths = (
{
closed = 1;
nodes = (
"519 0 LINE",
"523 80 LINE",
"461 117 LINE SMOOTH",
"443 126 OFFCURVE",
"441 130 OFFCURVE",
"441 162 CURVE SMOOTH",
"441 555 LINE",
"523 548 LINE",
"598 459 LINE",
"670 465 LINE",
"670 542 OFFCURVE",
"667 595 OFFCURVE",
"662 674 CURVE",
"36 674 LINE",
"31 595 OFFCURVE",
"28 542 OFFCURVE",
"28 465 CURVE",
"101 459 LINE",
"175 548 LINE",
"259 555 LINE",
"259 122 LINE",
"172 98 LINE",
"177 0 LINE"
);
}
);
width = 699;
}
);
leftKerningGroup = T;
rightKerningGroup = T;
unicode = 0054;
},
{
glyphname = Tbar;
lastChange = "2016-03-12 19:18:27 +0000";
layers = (
{
anchors = (
{
name = bottom;
position = "{350, 0}";
},
{
name = center;
position = "{350, 371}";
},
{
name = top;
position = "{350, 676}";
}
);
hints = (
{
horizontal = 1;
origin = "{0, 22}";
target = "{0, 1}";
},
{
horizontal = 1;
place = "{292.000000, 83.000000}";
},
{
horizontal = 1;
place = "{551.500000, 122.500000}";
},
{
horizontal = 1;
origin = "{0, 22}";
target = "{0, 20}";
},
{
horizontal = 1;
place = "{281.500000, 105.500000}";
},
{
origin = "{0, 20}";
target = "{0, 5}";
},
{
horizontal = 1;
origin = "{0, 8}";
target = up;
type = BottomGhost;
}
);
layerId = "DDABD3A5-4A8B-4D55-9B9E-1269DFBEF3A1";
name = Regular;
paths = (
{
closed = 1;
nodes = (
"519 0 LINE",
"523 80 LINE",
"461 117 LINE SMOOTH",
"443 126 OFFCURVE",
"441 130 OFFCURVE",
"441 162 CURVE SMOOTH",
"441 555 LINE",
"523 548 LINE",
"598 459 LINE",
"670 465 LINE",
"670 542 OFFCURVE",
"667 595 OFFCURVE",
"662 674 CURVE",
"36 674 LINE",
"31 595 OFFCURVE",
"28 542 OFFCURVE",
"28 465 CURVE",
"101 459 LINE",
"175 548 LINE",
"259 555 LINE",
"259 122 LINE",
"172 98 LINE",
"177 0 LINE"
);
},
{
closed = 1;
nodes = (
"525 389 LINE",
"159 373 LINE",
"159 294 LINE",
"525 280 LINE"
);
}
);
width = 699;
}
);
leftKerningGroup = T;
rightKerningGroup = T;
unicode = 0166;
},
{
glyphname = U;
lastChange = "2016-03-12 19:18:26 +0000";
layers = (
{
anchors = (
{
name = bottom;
position = "{371, 0}";
},
{
name = ogonek;
position = "{547, 10}";
},
{
name = top;
position = "{387, 676}";
},
{
name = topright;
position = "{737, 676}";
}
);
hints = (
{
horizontal = 1;
origin = "{0, 34}";
target = "{0, 18}";
},
{
horizontal = 1;
origin = "{0, 25}";
target = "{0, 22}";
},
{
horizontal = 1;
origin = "{0, 25}";
target = "{0, 4}";
},
{
horizontal = 1;
origin = "{0, 25}";
target = "{0, 7}";
},
{
horizontal = 1;
origin = "{0, 25}";
target = "{0, 23}";
},
{
origin = "{0, 31}";
target = "{0, 21}";
},
{
origin = "{0, 12}";
target = "{0, 2}";
}
);
layerId = "DDABD3A5-4A8B-4D55-9B9E-1269DFBEF3A1";
name = Regular;
paths = (
{
closed = 1;
nodes = (
"564 -13 OFFCURVE",
"679 112 OFFCURVE",
"679 326 CURVE SMOOTH",
"679 552 LINE",
"731 566 LINE",
"726 674 LINE",
"429 674 LINE",
"424 583 LINE",
"473 555 LINE SMOOTH",
"496 545 OFFCURVE",
"498 540 OFFCURVE",
"498 505 CURVE SMOOTH",
"498 314 LINE SMOOTH",
"498 228 OFFCURVE",
"493 180 OFFCURVE",
"480 149 CURVE",
"459 133 OFFCURVE",
"427 123 OFFCURVE",
"395 123 CURVE SMOOTH",
"291 123 OFFCURVE",
"262 222 OFFCURVE",
"262 347 CURVE SMOOTH",
"262 552 LINE",
"345 575 LINE",
"340 674 LINE",
"28 674 LINE",
"25 574 LINE",
"57 555 LINE SMOOTH",
"78 545 OFFCURVE",
"80 540 OFFCURVE",
"80 505 CURVE SMOOTH",
"80 308 LINE SMOOTH",
"80 86 OFFCURVE",
"168 -13 OFFCURVE",
"364 -13 CURVE SMOOTH"
);
}
);
width = 753;
}
);
leftKerningGroup = U;
rightKerningGroup = U;
unicode = 0055;
},
{
glyphname = Uogonek;
lastChange = "2016-03-12 19:18:26 +0000";
layers = (
{
hints = (
{
horizontal = 1;
origin = "{0, 56}";
target = "{0, 6}";
},
{
horizontal = 1;
origin = "{0, 50}";
target = "{0, 34}";
},
{
horizontal = 1;
origin = "{0, 41}";
target = "{0, 38}";
},
{
horizontal = 1;
origin = "{0, 41}";
target = "{0, 20}";
},
{
horizontal = 1;
origin = "{0, 41}";
target = "{0, 23}";
},
{
horizontal = 1;
origin = "{0, 41}";
target = "{0, 39}";
},
{
origin = "{0, 47}";
target = "{0, 37}";
},
{
origin = "{0, 53}";
target = "{0, 9}";
},
{
origin = "{0, 28}";
target = "{0, 18}";
}
);
layerId = "DDABD3A5-4A8B-4D55-9B9E-1269DFBEF3A1";
name = Regular;
paths = (
{
closed = 1;
nodes = (
"479 -227 OFFCURVE",
"521 -216 OFFCURVE",
"555 -198 CURVE",
"543 -138 LINE",
"527 -142 OFFCURVE",
"514 -145 OFFCURVE",
"493 -145 CURVE SMOOTH",
"438 -145 OFFCURVE",
"408 -123 OFFCURVE",
"408 -73 CURVE SMOOTH",
"408 -61 OFFCURVE",
"410 -50 OFFCURVE",
"412 -45 CURVE",
"437 -26 OFFCURVE",
"508 10 OFFCURVE",
"539 29 CURVE SMOOTH",
"626 83 OFFCURVE",
"679 177 OFFCURVE",
"679 326 CURVE SMOOTH",
"679 552 LINE",
"731 566 LINE",
"726 674 LINE",
"429 674 LINE",
"424 583 LINE",
"473 555 LINE",
"496 545 OFFCURVE",
"498 540 OFFCURVE",
"498 505 CURVE SMOOTH",
"498 314 LINE SMOOTH",
"498 228 OFFCURVE",
"493 180 OFFCURVE",
"480 149 CURVE",
"459 133 OFFCURVE",
"427 123 OFFCURVE",
"395 123 CURVE SMOOTH",
"291 123 OFFCURVE",
"262 222 OFFCURVE",
"262 347 CURVE SMOOTH",
"262 552 LINE",
"345 575 LINE",
"340 674 LINE",
"28 674 LINE",
"25 574 LINE",
"57 555 LINE",
"78 545 OFFCURVE",
"80 540 OFFCURVE",
"80 505 CURVE SMOOTH",
"80 308 LINE SMOOTH",
"80 98 OFFCURVE",
"160 -5 OFFCURVE",
"340 -13 CURVE",
"308 -44 OFFCURVE",
"290 -80 OFFCURVE",
"290 -119 CURVE SMOOTH",
"290 -199 OFFCURVE",
"366 -227 OFFCURVE",
"436 -227 CURVE SMOOTH"
);
}
);
width = 753;
}
);
leftKerningGroup = U;
rightKerningGroup = U;
unicode = 0172;
},
{
glyphname = V;
lastChange = "2016-03-12 19:18:26 +0000";
layers = (
{
anchors = (
{
name = bottom;
position = "{358, 0}";
},
{
name = top;
position = "{379, 676}";
}
);
hints = (
{
horizontal = 1;
origin = "{0, 0}";
target = up;
type = BottomGhost;
},
{
horizontal = 1;
origin = "{0, 14}";
target = "{0, 15}";
},
{
horizontal = 1;
origin = "{0, 14}";
target = "{0, 2}";
},
{
horizontal = 1;
origin = "{0, 14}";
target = "{0, 11}";
},
{
horizontal = 1;
origin = "{0, 14}";
target = "{0, 12}";
},
{
horizontal = 1;
origin = "{0, 17}";
target = up;
type = BottomGhost;
}
);
layerId = "DDABD3A5-4A8B-4D55-9B9E-1269DFBEF3A1";
name = Regular;
paths = (
{
closed = 1;
nodes = (
"442 -3 LINE",
"660 533 LINE",
"704 589 LINE",
"698 674 LINE",
"437 674 LINE",
"430 586 LINE",
"499 558 LINE",
"510 553 OFFCURVE",
"514 544 OFFCURVE",
"508 527 CURVE SMOOTH",
"389 182 LINE",
"256 561 LINE",
"327 579 LINE",
"317 674 LINE",
"29 674 LINE",
"25 604 LINE",
"58 557 LINE",
"270 -18 LINE"
);
}
);
width = 723;
}
);
leftKerningGroup = W;
rightKerningGroup = W;
unicode = 0056;
},
{
glyphname = W;
lastChange = "2016-03-12 19:18:26 +0000";
layers = (
{
anchors = (
{
name = bottom;
position = "{545, 0}";
},
{
name = top;
position = "{566, 676}";
}
);
hints = (
{
horizontal = 1;
origin = "{0, 24}";
target = "{0, 21}";
},
{
horizontal = 1;
origin = "{0, 24}";
target = "{0, 5}";
},
{
horizontal = 1;
origin = "{0, 24}";
target = "{0, 22}";
},
{
horizontal = 1;
origin = "{0, 24}";
target = "{0, 25}";
},
{
place = "{879.370000, 190.130000}";
},
{
horizontal = 1;
origin = "{0, 27}";
target = up;
type = BottomGhost;
}
);
layerId = "DDABD3A5-4A8B-4D55-9B9E-1269DFBEF3A1";
name = Regular;
paths = (
{
closed = 1;
nodes = (
"433 -4 LINE",
"541 285 LINE",
"646 -21 LINE",
"821 -4 LINE",
"1031 533 LINE",
"1072 589 LINE",
"1067 674 LINE",
"805 674 LINE",
"799 586 LINE",
"867 558 LINE SMOOTH",
"880 553 OFFCURVE",
"882 543 OFFCURVE",
"877 527 CURVE SMOOTH",
"762 173 LINE",
"639 560 LINE",
"705 579 LINE",
"699 674 LINE",
"433 674 LINE",
"429 610 LINE",
"473 481 LINE",
"374 173 LINE",
"250 560 LINE",
"322 579 LINE",
"316 674 LINE",
"29 674 LINE",
"25 604 LINE",
"59 557 LINE",
"248 -21 LINE"
);
}
);
width = 1092;
}
);
leftKerningGroup = W;
rightKerningGroup = W;
unicode = 0057;
},
{
glyphname = X;
lastChange = "2016-03-12 19:18:26 +0000";
layers = (
{
anchors = (
{
name = bottom;
position = "{351, 0}";
},
{
name = top;
position = "{373, 676}";
}
);
hints = (
{
horizontal = 1;
origin = "{0, 33}";
target = "{0, 1}";
},
{
horizontal = 1;
origin = "{0, 17}";
target = "{0, 18}";
},
{
horizontal = 1;
origin = "{0, 17}";
target = "{0, 15}";
},
{
horizontal = 1;
origin = "{0, 17}";
target = "{0, 8}";
},
{
horizontal = 1;
origin = "{0, 17}";
target = "{0, 14}";
},
{
horizontal = 1;
origin = "{0, 23}";
target = "{0, 25}";
},
{
horizontal = 1;
origin = "{0, 33}";
target = "{0, 31}";
}
);
layerId = "DDABD3A5-4A8B-4D55-9B9E-1269DFBEF3A1";
name = Regular;
paths = (
{
closed = 1;
nodes = (
"676 0 LINE",
"680 60 LINE",
"630 120 LINE",
"463 343 LINE",
"649 565 LINE",
"674 588 LINE",
"668 674 LINE",
"425 674 LINE",
"418 597 LINE",
"454 570 LINE",
"465 561 OFFCURVE",
"467 552 OFFCURVE",
"461 544 CURVE",
"390 441 LINE",
"293 571 LINE",
"346 584 LINE",
"335 674 LINE",
"25 674 LINE",
"22 614 LINE",
"72 554 LINE",
"233 337 LINE",
"44 112 LINE",
"20 89 LINE",
"25 3 LINE",
"267 3 LINE",
"274 79 LINE",
"239 107 LINE SMOOTH",
"227 116 OFFCURVE",
"225 124 OFFCURVE",
"232 134 CURVE SMOOTH",
"306 240 LINE",
"408 103 LINE",
"356 90 LINE",
"362 0 LINE"
);
}
);
width = 700;
}
);
leftKerningGroup = X;
rightKerningGroup = X;
unicode = 0058;
},
{
glyphname = Y;
lastChange = "2016-03-12 19:18:26 +0000";
layers = (
{
anchors = (
{
name = bottom;
position = "{341, 0}";
},
{
name = top;
position = "{359, 676}";
}
);
hints = (
{
horizontal = 1;
origin = "{0, 26}";
target = "{0, 1}";
},
{
horizontal = 1;
origin = "{0, 20}";
target = "{0, 21}";
},
{
horizontal = 1;
origin = "{0, 20}";
target = "{0, 11}";
},
{
horizontal = 1;
origin = "{0, 20}";
target = "{0, 17}";
},
{
horizontal = 1;
origin = "{0, 20}";
target = "{0, 18}";
},
{
horizontal = 1;
origin = "{0, 26}";
target = "{0, 24}";
},
{
origin = "{0, 24}";
target = "{0, 5}";
}
);
layerId = "DDABD3A5-4A8B-4D55-9B9E-1269DFBEF3A1";
name = Regular;
paths = (
{
closed = 1;
nodes = (
"506 0 LINE",
"510 80 LINE",
"448 117 LINE SMOOTH",
"429 126 OFFCURVE",
"427 130 OFFCURVE",
"427 162 CURVE SMOOTH",
"427 286 LINE",
"611 556 LINE",
"651 580 LINE",
"644 674 LINE",
"392 674 LINE",
"385 586 LINE",
"443 560 LINE SMOOTH",
"454 556 OFFCURVE",
"460 545 OFFCURVE",
"451 530 CURVE SMOOTH",
"364 383 LINE",
"259 561 LINE",
"324 579 LINE",
"314 674 LINE",
"21 674 LINE",
"17 604 LINE",
"63 547 LINE",
"246 254 LINE",
"246 122 LINE",
"160 98 LINE",
"165 0 LINE"
);
}
);
width = 673;
}
);
leftKerningGroup = Y;
rightKerningGroup = Y;
unicode = 0059;
},
{
glyphname = Z;
lastChange = "2016-03-12 19:18:26 +0000";
layers = (
{
anchors = (
{
name = bottom;
position = "{315, 0}";
},
{
name = top;
position = "{325, 676}";
}
);
hints = (
{
horizontal = 1;
place = "{0.000000, 139.000000}";
},
{
horizontal = 1;
place = "{536.000000, 138.000000}";
},
{
horizontal = 1;
origin = "{0, 9}";
target = "{0, 7}";
},
{
horizontal = 1;
origin = "{0, 4}";
target = up;
type = BottomGhost;
},
{
horizontal = 1;
origin = "{0, 13}";
target = down;
type = TopGhost;
}
);
layerId = "DDABD3A5-4A8B-4D55-9B9E-1269DFBEF3A1";
name = Regular;
paths = (
{
closed = 1;
nodes = (
"579 0 LINE",
"590 73 OFFCURVE",
"598 145 OFFCURVE",
"606 215 CURVE",
"522 234 LINE",
"452 145 LINE",
"259 133 LINE",
"581 560 LINE",
"571 674 LINE",
"69 674 LINE",
"58 590 OFFCURVE",
"51 535 OFFCURVE",
"42 460 CURVE",
"121 445 LINE",
"200 531 LINE",
"341 541 LINE",
"28 124 LINE",
"35 0 LINE"
);
}
);
width = 625;
}
);
leftKerningGroup = Z;
rightKerningGroup = Z;
unicode = 005A;
},
{
glyphname = a;
lastChange = "2016-03-12 19:18:27 +0000";
layers = (
{
anchors = (
{
name = bottom;
position = "{272, 0}";
},
{
name = ogonek;
position = "{501, 10}";
},
{
name = top;
position = "{275, 523}";
}
);
hints = (
{
horizontal = 1;
origin = "{0, 37}";
target = "{1, 15}";
},
{
horizontal = 1;
origin = "{1, 8}";
target = "{0, 31}";
},
{
horizontal = 1;
origin = "{0, 17}";
target = "{0, 28}";
},
{
horizontal = 1;
origin = "{0, 5}";
target = up;
type = BottomGhost;
},
{
origin = "{0, 34}";
target = "{1, 2}";
},
{
place = "{332.000000, 153.000000}";
},
{
horizontal = 1;
origin = "{0, 24}";
target = up;
type = BottomGhost;
}
);
layerId = "DDABD3A5-4A8B-4D55-9B9E-1269DFBEF3A1";
name = Regular;
paths = (
{
closed = 1;
nodes = (
"226 -13 OFFCURVE",
"293 9 OFFCURVE",
"344 42 CURVE",
"348 21 OFFCURVE",
"354 3 OFFCURVE",
"357 -9 CURVE",
"401 -7 OFFCURVE",
"467 4 OFFCURVE",
"540 21 CURVE",
"544 83 LINE",
"504 106 LINE SMOOTH",
"488 115 OFFCURVE",
"485 120 OFFCURVE",
"485 145 CURVE SMOOTH",
"485 354 LINE SMOOTH",
"485 481 OFFCURVE",
"429 533 OFFCURVE",
"287 533 CURVE SMOOTH",
"210 533 OFFCURVE",
"114 517 OFFCURVE",
"40 492 CURVE",
"44 446 OFFCURVE",
"51 389 OFFCURVE",
"64 326 CURVE",
"138 321 LINE",
"179 402 LINE",
"196 405 OFFCURVE",
"215 405 OFFCURVE",
"237 405 CURVE SMOOTH",
"315 405 OFFCURVE",
"331 387 OFFCURVE",
"331 296 CURVE",
"129 288 OFFCURVE",
"20 227 OFFCURVE",
"20 121 CURVE SMOOTH",
"20 43 OFFCURVE",
"78 -13 OFFCURVE",
"170 -13 CURVE SMOOTH"
);
},
{
closed = 1;
nodes = (
"198 100 OFFCURVE",
"175 123 OFFCURVE",
"175 163 CURVE SMOOTH",
"175 170 OFFCURVE",
"176 178 OFFCURVE",
"178 187 CURVE",
"206 197 OFFCURVE",
"263 205 OFFCURVE",
"298 205 CURVE SMOOTH",
"311 205 OFFCURVE",
"318 204 OFFCURVE",
"330 203 CURVE",
"334 127 LINE",
"300 111 OFFCURVE",
"264 100 OFFCURVE",
"237 100 CURVE SMOOTH"
);
}
);
width = 554;
},
{
anchors = (
{
name = bottom;
position = "{288, 0}";
},
{
name = ogonek;
position = "{528, 10}";
},
{
name = top;
position = "{288, 551}";
}
);
associatedMasterId = "DDABD3A5-4A8B-4D55-9B9E-1269DFBEF3A1";
layerId = "DEFED948-87EB-4CD9-A22E-CFE36A45D168";
name = "Bold Oct 3 15, 09:44";
paths = (
{
closed = 1;
nodes = (
"506 371 LINE SMOOTH",
"506 504 OFFCURVE",
"448 559 OFFCURVE",
"306 559 CURVE SMOOTH",
"231 559 OFFCURVE",
"137 544 OFFCURVE",
"56 519 CURVE",
"54 455 OFFCURVE",
"58 397 OFFCURVE",
"67 349 CURVE",
"156 355 LINE",
"196 430 LINE",
"216 434 OFFCURVE",
"241 436 OFFCURVE",
"265 436 CURVE SMOOTH",
"331 436 OFFCURVE",
"347 411 OFFCURVE",
"347 310 CURVE",
"143 303 OFFCURVE",
"25 237 OFFCURVE",
"25 130 CURVE SMOOTH",
"25 42 OFFCURVE",
"87 -14 OFFCURVE",
"182 -14 CURVE SMOOTH",
"239 -14 OFFCURVE",
"308 8 OFFCURVE",
"360 43 CURVE",
"363 26 OFFCURVE",
"368 10 OFFCURVE",
"374 -10 CURVE",
"418 -9 OFFCURVE",
"504 5 OFFCURVE",
"565 21 CURVE",
"569 87 LINE",
"523 107 LINE SMOOTH",
"509 113 OFFCURVE",
"506 120 OFFCURVE",
"506 151 CURVE SMOOTH"
);
},
{
closed = 1;
nodes = (
"209 99 OFFCURVE",
"186 124 OFFCURVE",
"186 169 CURVE SMOOTH",
"186 177 OFFCURVE",
"187 186 OFFCURVE",
"189 195 CURVE",
"221 209 OFFCURVE",
"306 218 OFFCURVE",
"348 212 CURVE",
"352 130 LINE",
"314 110 OFFCURVE",
"278 99 OFFCURVE",
"250 99 CURVE SMOOTH"
);
}
);
width = 576;
}
);
leftKerningGroup = a;
rightKerningGroup = a;
unicode = 0061;
},
{
glyphname = aogonek;
lastChange = "2016-03-12 19:18:28 +0000";
layers = (
{
hints = (
{
horizontal = 1;
origin = "{0, 54}";
target = "{0, 6}";
},
{
horizontal = 1;
origin = "{0, 44}";
target = "{0, 48}";
},
{
horizontal = 1;
origin = "{1, 8}";
target = "{0, 38}";
},
{
horizontal = 1;
origin = "{0, 24}";
target = "{0, 35}";
},
{
horizontal = 1;
origin = "{0, 44}";
target = "{1, 15}";
},
{
origin = "{0, 51}";
target = "{0, 9}";
},
{
origin = "{0, 41}";
target = "{1, 2}";
},
{
place = "{330.000000, 153.000000}";
},
{
horizontal = 1;
origin = "{0, 30}";
target = up;
type = BottomGhost;
}
);
layerId = "DDABD3A5-4A8B-4D55-9B9E-1269DFBEF3A1";
name = Regular;
paths = (
{
closed = 1;
nodes = (
"450 -227 OFFCURVE",
"492 -216 OFFCURVE",
"526 -198 CURVE",
"513 -138 LINE",
"498 -142 OFFCURVE",
"485 -145 OFFCURVE",
"463 -145 CURVE SMOOTH",
"408 -145 OFFCURVE",
"378 -123 OFFCURVE",
"378 -72 CURVE SMOOTH",
"378 -62 OFFCURVE",
"379 -50 OFFCURVE",
"382 -44 CURVE",
"419 -17 OFFCURVE",
"473 5 OFFCURVE",
"537 30 CURVE",
"542 83 LINE",
"502 106 LINE SMOOTH",
"486 115 OFFCURVE",
"483 120 OFFCURVE",
"483 145 CURVE SMOOTH",
"483 354 LINE SMOOTH",
"483 482 OFFCURVE",
"427 533 OFFCURVE",
"285 533 CURVE SMOOTH",
"207 533 OFFCURVE",
"110 517 OFFCURVE",
"38 492 CURVE",
"42 446 OFFCURVE",
"50 390 OFFCURVE",
"62 326 CURVE",
"136 321 LINE",
"177 402 LINE",
"191 405 OFFCURVE",
"209 405 OFFCURVE",
"235 405 CURVE SMOOTH",
"313 405 OFFCURVE",
"329 387 OFFCURVE",
"329 296 CURVE",
"127 288 OFFCURVE",
"18 227 OFFCURVE",
"18 121 CURVE SMOOTH",
"18 43 OFFCURVE",
"76 -13 OFFCURVE",
"168 -13 CURVE SMOOTH",
"224 -13 OFFCURVE",
"291 9 OFFCURVE",
"342 42 CURVE",
"352 7 LINE",
"303 -19 OFFCURVE",
"261 -59 OFFCURVE",
"261 -118 CURVE SMOOTH",
"261 -195 OFFCURVE",
"337 -227 OFFCURVE",
"408 -227 CURVE SMOOTH"
);
},
{
closed = 1;
nodes = (
"196 100 OFFCURVE",
"173 123 OFFCURVE",
"173 163 CURVE SMOOTH",
"173 170 OFFCURVE",
"174 178 OFFCURVE",
"176 187 CURVE",
"202 197 OFFCURVE",
"259 205 OFFCURVE",
"296 205 CURVE SMOOTH",
"309 205 OFFCURVE",
"316 204 OFFCURVE",
"328 203 CURVE",
"332 127 LINE",
"298 111 OFFCURVE",
"262 100 OFFCURVE",
"235 100 CURVE SMOOTH"
);
}
);
width = 552;
}
);
leftKerningGroup = a;
rightKerningGroup = a;
unicode = 0105;
},
{
glyphname = ae;
lastChange = "2016-03-12 19:18:27 +0000";
layers = (
{
anchors = (
{
name = bottom;
position = "{391, 0}";
},
{
name = top;
position = "{421, 523}";
}
);
hints = (
{
horizontal = 1;
origin = "{0, 45}";
target = "{1, 17}";
},
{
horizontal = 1;
origin = "{1, 8}";
target = "{0, 39}";
},
{
horizontal = 1;
origin = "{0, 25}";
target = "{2, 5}";
},
{
horizontal = 1;
origin = "{0, 5}";
target = "{0, 12}";
},
{
horizontal = 1;
origin = "{0, 25}";
target = "{0, 36}";
},
{
origin = "{0, 42}";
target = "{1, 2}";
},
{
origin = "{0, 39}";
target = "{2, 9}";
},
{
origin = "{2, 8}";
target = "{0, 16}";
},
{
horizontal = 1;
origin = "{0, 9}";
target = down;
type = TopGhost;
},
{
horizontal = 1;
origin = "{0, 32}";
target = up;
type = BottomGhost;
}
);
layerId = "DDABD3A5-4A8B-4D55-9B9E-1269DFBEF3A1";
name = Regular;
paths = (
{
closed = 1;
nodes = (
"248 -14 OFFCURVE",
"333 17 OFFCURVE",
"391 62 CURVE",
"432 14 OFFCURVE",
"494 -12 OFFCURVE",
"573 -12 CURVE SMOOTH",
"654 -12 OFFCURVE",
"741 15 OFFCURVE",
"789 52 CURVE",
"765 151 LINE",
"709 130 OFFCURVE",
"653 119 OFFCURVE",
"615 119 CURVE SMOOTH",
"557 119 OFFCURVE",
"524 145 OFFCURVE",
"508 203 CURVE",
"812 256 LINE",
"817 433 OFFCURVE",
"734 533 OFFCURVE",
"582 533 CURVE SMOOTH",
"524 533 OFFCURVE",
"474 518 OFFCURVE",
"434 490 CURVE",
"401 518 OFFCURVE",
"350 533 OFFCURVE",
"279 533 CURVE SMOOTH",
"204 533 OFFCURVE",
"109 516 OFFCURVE",
"38 492 CURVE",
"42 446 OFFCURVE",
"50 390 OFFCURVE",
"62 326 CURVE",
"136 321 LINE",
"177 402 LINE",
"191 405 OFFCURVE",
"209 405 OFFCURVE",
"233 405 CURVE SMOOTH",
"314 405 OFFCURVE",
"329 387 OFFCURVE",
"329 296 CURVE",
"129 288 OFFCURVE",
"18 229 OFFCURVE",
"18 120 CURVE SMOOTH",
"18 39 OFFCURVE",
"78 -14 OFFCURVE",
"174 -14 CURVE SMOOTH"
);
},
{
closed = 1;
nodes = (
"197 100 OFFCURVE",
"173 122 OFFCURVE",
"173 162 CURVE SMOOTH",
"173 170 OFFCURVE",
"174 178 OFFCURVE",
"176 187 CURVE",
"202 197 OFFCURVE",
"257 205 OFFCURVE",
"296 205 CURVE SMOOTH",
"310 205 OFFCURVE",
"319 204 OFFCURVE",
"333 203 CURVE",
"336 181 OFFCURVE",
"341 161 OFFCURVE",
"348 136 CURVE",
"308 114 OFFCURVE",
"266 100 OFFCURVE",
"236 100 CURVE SMOOTH"
);
},
{
closed = 1;
nodes = (
"499 337 OFFCURVE",
"505 375 OFFCURVE",
"517 405 CURVE",
"533 411 OFFCURVE",
"552 414 OFFCURVE",
"570 414 CURVE SMOOTH",
"619 414 OFFCURVE",
"645 389 OFFCURVE",
"648 340 CURVE",
"500 299 LINE"
);
}
);
width = 836;
}
);
leftKerningGroup = a;
rightKerningGroup = e;
unicode = 00E6;
},
{
glyphname = b;
lastChange = "2016-03-12 19:18:27 +0000";
layers = (
{
anchors = (
{
name = bottom;
position = "{282, 0}";
},
{
name = top;
position = "{120, 755}";
}
);
hints = (
{
horizontal = 1;
origin = "{0, 24}";
target = "{1, 15}";
},
{
horizontal = 1;
origin = "{0, 5}";
target = "{1, 6}";
},
{
horizontal = 1;
origin = "{0, 12}";
target = down;
type = TopGhost;
},
{
origin = "{0, 21}";
target = "{1, 2}";
},
{
origin = "{1, 9}";
target = "{0, 2}";
},
{
horizontal = 1;
origin = "{0, 16}";
target = "{0, 15}";
}
);
layerId = "DDABD3A5-4A8B-4D55-9B9E-1269DFBEF3A1";
name = Regular;
paths = (
{
closed = 1;
nodes = (
"446 -12 OFFCURVE",
"547 96 OFFCURVE",
"547 276 CURVE SMOOTH",
"547 443 OFFCURVE",
"461 533 OFFCURVE",
"323 533 CURVE SMOOTH",
"285 533 OFFCURVE",
"247 526 OFFCURVE",
"210 513 CURVE",
"210 713 LINE",
"207 734 OFFCURVE",
"202 752 OFFCURVE",
"196 765 CURVE",
"158 764 OFFCURVE",
"95 754 OFFCURVE",
"-20 734 CURVE",
"-25 658 LINE",
"22 635 LINE SMOOTH",
"39 625 OFFCURVE",
"41 621 OFFCURVE",
"41 592 CURVE SMOOTH",
"41 30 LINE",
"102 5 OFFCURVE",
"178 -12 OFFCURVE",
"253 -12 CURVE SMOOTH"
);
},
{
closed = 1;
nodes = (
"255 117 OFFCURVE",
"228 121 OFFCURVE",
"210 130 CURVE",
"210 405 LINE",
"235 411 OFFCURVE",
"255 414 OFFCURVE",
"273 414 CURVE SMOOTH",
"343 414 OFFCURVE",
"376 359 OFFCURVE",
"376 260 CURVE SMOOTH",
"376 213 OFFCURVE",
"368 161 OFFCURVE",
"358 127 CURVE",
"342 120 OFFCURVE",
"316 117 OFFCURVE",
"288 117 CURVE SMOOTH"
);
}
);
width = 565;
}
);
leftKerningGroup = b;
rightKerningGroup = o;
unicode = 0062;
},
{
glyphname = c;
lastChange = "2016-03-12 19:18:26 +0000";
layers = (
{
anchors = (
{
name = bottom;
position = "{277, 0}";
},
{
name = top;
position = "{275, 523}";
}
);
hints = (
{
horizontal = 1;
origin = "{0, 32}";
target = "{0, 6}";
},
{
horizontal = 1;
origin = "{0, 26}";
target = "{0, 15}";
},
{
origin = "{0, 29}";
target = "{0, 9}";
},
{
horizontal = 1;
origin = "{0, 19}";
target = up;
type = BottomGhost;
},
{
horizontal = 1;
origin = "{0, 3}";
target = down;
type = TopGhost;
}
);
layerId = "DDABD3A5-4A8B-4D55-9B9E-1269DFBEF3A1";
name = Regular;
paths = (
{
closed = 1;
nodes = (
"339 -13 OFFCURVE",
"425 14 OFFCURVE",
"477 51 CURVE",
"453 151 LINE",
"394 128 OFFCURVE",
"338 118 OFFCURVE",
"303 118 CURVE SMOOTH",
"225 118 OFFCURVE",
"186 169 OFFCURVE",
"186 279 CURVE SMOOTH",
"186 332 OFFCURVE",
"195 376 OFFCURVE",
"209 403 CURVE",
"223 405 OFFCURVE",
"239 406 OFFCURVE",
"255 406 CURVE SMOOTH",
"272 406 OFFCURVE",
"291 405 OFFCURVE",
"311 401 CURVE",
"373 322 LINE",
"440 328 LINE",
"451 384 OFFCURVE",
"461 456 OFFCURVE",
"464 492 CURVE",
"401 517 OFFCURVE",
"334 533 OFFCURVE",
"271 533 CURVE SMOOTH",
"114 533 OFFCURVE",
"15 433 OFFCURVE",
"15 256 CURVE SMOOTH",
"15 90 OFFCURVE",
"103 -13 OFFCURVE",
"259 -13 CURVE SMOOTH"
);
}
);
width = 504;
}
);
leftKerningGroup = o;
rightKerningGroup = c;
unicode = 0063;
},
{
glyphname = d;
lastChange = "2016-03-12 19:18:27 +0000";
layers = (
{
anchors = (
{
name = bottom;
position = "{291, 0}";
},
{
name = center;
position = "{408, 595}";
},
{
name = top;
position = "{405, 782}";
},
{
name = topright;
position = "{569, 523}";
}
);
hints = (
{
horizontal = 1;
origin = "{0, 35}";
target = "{1, 15}";
},
{
horizontal = 1;
origin = "{0, 29}";
target = "{1, 8}";
},
{
horizontal = 1;
origin = "{0, 17}";
target = down;
type = TopGhost;
},
{
horizontal = 1;
origin = "{0, 5}";
target = up;
type = BottomGhost;
},
{
origin = "{0, 32}";
target = "{1, 2}";
},
{
origin = "{1, 12}";
target = "{0, 13}";
},
{
horizontal = 1;
origin = "{0, 21}";
target = "{0, 20}";
}
);
layerId = "DDABD3A5-4A8B-4D55-9B9E-1269DFBEF3A1";
name = Regular;
paths = (
{
closed = 1;
nodes = (
"272 -13 OFFCURVE",
"323 5 OFFCURVE",
"366 36 CURVE",
"370 20 OFFCURVE",
"375 3 OFFCURVE",
"380 -10 CURVE",
"441 -7 OFFCURVE",
"510 4 OFFCURVE",
"572 20 CURVE",
"576 82 LINE",
"538 105 LINE SMOOTH",
"521 114 OFFCURVE",
"518 120 OFFCURVE",
"518 144 CURVE SMOOTH",
"518 713 LINE",
"515 734 OFFCURVE",
"510 752 OFFCURVE",
"505 765 CURVE",
"466 764 OFFCURVE",
"405 754 OFFCURVE",
"290 734 CURVE",
"285 658 LINE",
"330 635 LINE SMOOTH",
"348 625 OFFCURVE",
"350 621 OFFCURVE",
"350 591 CURVE SMOOTH",
"350 531 LINE",
"328 532 OFFCURVE",
"316 533 OFFCURVE",
"298 533 CURVE SMOOTH",
"119 533 OFFCURVE",
"15 440 OFFCURVE",
"15 252 CURVE SMOOTH",
"15 93 OFFCURVE",
"89 -13 OFFCURVE",
"219 -13 CURVE SMOOTH"
);
},
{
closed = 1;
nodes = (
"213 115 OFFCURVE",
"184 165 OFFCURVE",
"184 274 CURVE SMOOTH",
"184 328 OFFCURVE",
"191 374 OFFCURVE",
"201 399 CURVE",
"222 405 OFFCURVE",
"247 409 OFFCURVE",
"274 409 CURVE SMOOTH",
"302 409 OFFCURVE",
"330 405 OFFCURVE",
"351 396 CURVE",
"351 137 LINE",
"321 121 OFFCURVE",
"300 115 OFFCURVE",
"277 115 CURVE SMOOTH"
);
}
);
width = 589;
}
);
leftKerningGroup = o;
rightKerningGroup = d;
unicode = 0064;
},
{
glyphname = eth;
lastChange = "2016-03-12 19:18:27 +0000";
layers = (
{
hints = (
{
horizontal = 1;
origin = "{0, 18}";
target = "{1, 17}";
},
{
horizontal = 1;
origin = "{0, 12}";
target = "{1, 8}";
},
{
horizontal = 1;
origin = "{2, 1}";
target = down;
type = TopGhost;
},
{
horizontal = 1;
origin = "{0, 8}";
target = down;
type = TopGhost;
},
{
origin = "{0, 15}";
target = "{1, 2}";
},
{
origin = "{1, 11}";
target = "{0, 2}";
},
{
horizontal = 1;
origin = "{2, 3}";
target = up;
type = BottomGhost;
}
);
layerId = "DDABD3A5-4A8B-4D55-9B9E-1269DFBEF3A1";
name = Regular;
paths = (
{
closed = 1;
nodes = (
"440 -13 OFFCURVE",
"535 90 OFFCURVE",
"535 267 CURVE SMOOTH",
"535 284 OFFCURVE",
"534 307 OFFCURVE",
"531 325 CURVE SMOOTH",
"511 467 OFFCURVE",
"433 580 OFFCURVE",
"309 756 CURVE",
"130 769 LINE",
"122 727 LINE",
"286 533 LINE",
"276 533 LINE SMOOTH",
"115 533 OFFCURVE",
"15 428 OFFCURVE",
"15 246 CURVE SMOOTH",
"15 79 OFFCURVE",
"97 -13 OFFCURVE",
"264 -13 CURVE SMOOTH"
);
},
{
closed = 1;
nodes = (
"218 104 OFFCURVE",
"181 160 OFFCURVE",
"181 284 CURVE SMOOTH",
"181 334 OFFCURVE",
"187 383 OFFCURVE",
"196 403 CURVE",
"219 409 OFFCURVE",
"241 412 OFFCURVE",
"257 412 CURVE SMOOTH",
"330 412 OFFCURVE",
"364 358 OFFCURVE",
"364 248 CURVE SMOOTH",
"364 204 OFFCURVE",
"359 151 OFFCURVE",
"350 119 CURVE",
"327 108 OFFCURVE",
"307 104 OFFCURVE",
"288 104 CURVE SMOOTH"
);
},
{
closed = 1;
nodes = (
"463 690 LINE",
"459 760 LINE",
"122 601 LINE",
"127 531 LINE"
);
}
);
width = 562;
}
);
leftKerningGroup = o;
unicode = 00F0;
},
{
glyphname = dcaron;
lastChange = "2016-03-12 19:18:27 +0000";
layers = (
{
hints = (
{
horizontal = 1;
origin = "{0, 35}";
target = "{1, 15}";
},
{
horizontal = 1;
origin = "{0, 29}";
target = "{1, 8}";
},
{
horizontal = 1;
origin = "{2, 3}";
target = "{2, 1}";
},
{
horizontal = 1;
origin = "{0, 5}";
target = up;
type = BottomGhost;
},
{
horizontal = 1;
origin = "{0, 17}";
target = down;
type = TopGhost;
},
{
horizontal = 1;
origin = "{2, 3}";
target = "{2, 4}";
},
{
origin = "{0, 32}";
target = "{1, 2}";
},
{
origin = "{1, 12}";
target = "{0, 13}";
},
{
horizontal = 1;
origin = "{0, 21}";
target = "{0, 20}";
}
);
layerId = "DDABD3A5-4A8B-4D55-9B9E-1269DFBEF3A1";
name = Regular;
paths = (
{
closed = 1;
nodes = (
"271 -13 OFFCURVE",
"323 5 OFFCURVE",
"366 36 CURVE",
"370 20 OFFCURVE",
"375 3 OFFCURVE",
"380 -10 CURVE",
"441 -7 OFFCURVE",
"510 4 OFFCURVE",
"572 20 CURVE",
"576 82 LINE",
"538 105 LINE SMOOTH",
"521 114 OFFCURVE",
"518 120 OFFCURVE",
"518 144 CURVE SMOOTH",
"518 713 LINE",
"515 734 OFFCURVE",
"510 752 OFFCURVE",
"505 765 CURVE",
"466 764 OFFCURVE",
"405 754 OFFCURVE",
"290 734 CURVE",
"285 658 LINE",
"330 635 LINE SMOOTH",
"348 625 OFFCURVE",
"350 621 OFFCURVE",
"350 591 CURVE SMOOTH",
"350 531 LINE",
"328 532 OFFCURVE",
"315 533 OFFCURVE",
"303 533 CURVE SMOOTH",
"119 533 OFFCURVE",
"15 436 OFFCURVE",
"15 262 CURVE SMOOTH",
"15 86 OFFCURVE",
"89 -13 OFFCURVE",
"222 -13 CURVE SMOOTH"
);
},
{
closed = 1;
nodes = (
"213 115 OFFCURVE",
"184 164 OFFCURVE",
"184 277 CURVE SMOOTH",
"184 327 OFFCURVE",
"191 374 OFFCURVE",
"201 399 CURVE",
"222 405 OFFCURVE",
"248 409 OFFCURVE",
"270 409 CURVE SMOOTH",
"303 409 OFFCURVE",
"330 405 OFFCURVE",
"351 396 CURVE",
"351 137 LINE",
"321 121 OFFCURVE",
"300 115 OFFCURVE",
"276 115 CURVE SMOOTH"
);
},
{
closed = 1;
nodes = (
"644 569 LINE",
"837 714 LINE",
"837 755 LINE",
"654 755 LINE",
"556 569 LINE"
);
}
);
width = 589;
}
);
leftKerningGroup = o;
unicode = 010F;
},
{
glyphname = dcroat;
lastChange = "2016-03-12 19:18:28 +0000";
layers = (
{
hints = (
{
horizontal = 1;
origin = "{0, 5}";
target = up;
type = BottomGhost;
},
{
horizontal = 1;
origin = "{0, 29}";
target = "{1, 8}";
},
{
horizontal = 1;
origin = "{0, 17}";
target = down;
type = TopGhost;
},
{
horizontal = 1;
place = "{563.000000, 80.000000}";
},
{
horizontal = 1;
place = "{563.000000, 53.000000}";
},
{
horizontal = 1;
origin = "{0, 35}";
target = "{1, 15}";
},
{
origin = "{0, 32}";
target = "{1, 2}";
},
{
origin = "{1, 12}";
target = "{0, 13}";
},
{
horizontal = 1;
origin = "{0, 21}";
target = "{0, 20}";
}
);
layerId = "DDABD3A5-4A8B-4D55-9B9E-1269DFBEF3A1";
name = Regular;
paths = (
{
closed = 1;
nodes = (
"272 -13 OFFCURVE",
"323 5 OFFCURVE",
"366 36 CURVE",
"370 20 OFFCURVE",
"375 3 OFFCURVE",
"380 -10 CURVE",
"441 -7 OFFCURVE",
"510 4 OFFCURVE",
"572 20 CURVE",
"576 82 LINE",
"538 105 LINE SMOOTH",
"521 114 OFFCURVE",
"518 120 OFFCURVE",
"518 144 CURVE SMOOTH",
"518 713 LINE",
"515 734 OFFCURVE",
"510 752 OFFCURVE",
"505 765 CURVE",
"466 764 OFFCURVE",
"405 754 OFFCURVE",
"290 734 CURVE",
"285 661 LINE",
"330 638 LINE SMOOTH",
"348 628 OFFCURVE",
"350 624 OFFCURVE",
"350 594 CURVE SMOOTH",
"350 531 LINE",
"330 532 OFFCURVE",
"316 533 OFFCURVE",
"298 533 CURVE SMOOTH",
"119 533 OFFCURVE",
"15 440 OFFCURVE",
"15 252 CURVE SMOOTH",
"15 93 OFFCURVE",
"89 -13 OFFCURVE",
"219 -13 CURVE SMOOTH"
);
},
{
closed = 1;
nodes = (
"213 115 OFFCURVE",
"184 165 OFFCURVE",
"184 274 CURVE SMOOTH",
"184 328 OFFCURVE",
"191 374 OFFCURVE",
"201 399 CURVE",
"222 405 OFFCURVE",
"247 409 OFFCURVE",
"274 409 CURVE SMOOTH",
"302 409 OFFCURVE",
"330 405 OFFCURVE",
"351 396 CURVE",
"351 137 LINE",
"321 121 OFFCURVE",
"300 115 OFFCURVE",
"277 115 CURVE SMOOTH"
);
},
{
closed = 1;
nodes = (
"572 563 LINE",
"572 646 LINE",
"237 610 LINE",
"237 563 LINE"
);
}
);
width = 596;
}
);
leftKerningGroup = o;
rightKerningGroup = d;
unicode = 0111;
},
{
glyphname = e;
lastChange = "2016-03-12 19:18:27 +0000";
layers = (
{
anchors = (
{
name = bottom;
position = "{259, 0}";
},
{
name = ogonek;
position = "{430, 10}";
},
{
name = top;
position = "{266, 523}";
}
);
hints = (
{
horizontal = 1;
origin = "{0, 19}";
target = "{0, 6}";
},
{
horizontal = 1;
origin = "{0, 13}";
target = "{1, 5}";
},
{
origin = "{0, 16}";
target = "{1, 9}";
},
{
origin = "{1, 8}";
target = "{0, 10}";
},
{
horizontal = 1;
origin = "{0, 3}";
target = down;
type = TopGhost;
}
);
layerId = "DDABD3A5-4A8B-4D55-9B9E-1269DFBEF3A1";
name = Regular;
paths = (
{
closed = 1;
nodes = (
"340 -12 OFFCURVE",
"426 15 OFFCURVE",
"474 52 CURVE",
"451 151 LINE",
"395 130 OFFCURVE",
"339 119 OFFCURVE",
"301 119 CURVE SMOOTH",
"245 119 OFFCURVE",
"212 144 OFFCURVE",
"194 200 CURVE",
"498 256 LINE",
"502 433 OFFCURVE",
"418 533 OFFCURVE",
"267 533 CURVE SMOOTH",
"114 533 OFFCURVE",
"15 431 OFFCURVE",
"15 255 CURVE SMOOTH",
"15 90 OFFCURVE",
"102 -12 OFFCURVE",
"259 -12 CURVE SMOOTH"
);
},
{
closed = 1;
nodes = (
"183 337 OFFCURVE",
"190 374 OFFCURVE",
"203 405 CURVE",
"219 410 OFFCURVE",
"239 413 OFFCURVE",
"258 413 CURVE SMOOTH",
"304 413 OFFCURVE",
"331 392 OFFCURVE",
"334 340 CURVE",
"184 299 LINE"
);
}
);
width = 521;
}
);
leftKerningGroup = o;
rightKerningGroup = e;
unicode = 0065;
},
{
glyphname = eogonek;
lastChange = "2016-03-12 19:18:27 +0000";
layers = (
{
hints = (
{
horizontal = 1;
origin = "{0, 41}";
target = "{0, 6}";
},
{
horizontal = 1;
origin = "{0, 35}";
target = "{0, 22}";
},
{
horizontal = 1;
origin = "{0, 29}";
target = "{1, 5}";
},
{
horizontal = 1;
origin = "{0, 35}";
target = down;
type = TopGhost;
},
{
origin = "{0, 38}";
target = "{0, 9}";
},
{
origin = "{1, 8}";
target = "{0, 26}";
},
{
origin = "{0, 32}";
target = "{1, 9}";
},
{
horizontal = 1;
origin = "{0, 19}";
target = down;
type = TopGhost;
}
);
layerId = "DDABD3A5-4A8B-4D55-9B9E-1269DFBEF3A1";
name = Regular;
paths = (
{
closed = 1;
nodes = (
"379 -226 OFFCURVE",
"421 -215 OFFCURVE",
"455 -197 CURVE",
"443 -137 LINE",
"427 -141 OFFCURVE",
"414 -144 OFFCURVE",
"393 -144 CURVE SMOOTH",
"338 -144 OFFCURVE",
"308 -122 OFFCURVE",
"308 -72 CURVE SMOOTH",
"308 -60 OFFCURVE",
"310 -49 OFFCURVE",
"312 -42 CURVE",
"330 -27 OFFCURVE",
"335 -24 OFFCURVE",
"385 2 CURVE SMOOTH",
"431 26 OFFCURVE",
"457 40 OFFCURVE",
"474 52 CURVE",
"451 151 LINE",
"395 130 OFFCURVE",
"339 119 OFFCURVE",
"301 119 CURVE SMOOTH",
"245 119 OFFCURVE",
"212 144 OFFCURVE",
"194 200 CURVE",
"498 255 LINE",
"502 432 OFFCURVE",
"419 533 OFFCURVE",
"267 533 CURVE SMOOTH",
"114 533 OFFCURVE",
"15 431 OFFCURVE",
"15 256 CURVE SMOOTH",
"15 103 OFFCURVE",
"91 -5 OFFCURVE",
"240 -12 CURVE",
"207 -46 OFFCURVE",
"190 -82 OFFCURVE",
"190 -119 CURVE SMOOTH",
"190 -197 OFFCURVE",
"267 -226 OFFCURVE",
"336 -226 CURVE SMOOTH"
);
},
{
closed = 1;
nodes = (
"183 337 OFFCURVE",
"190 374 OFFCURVE",
"203 405 CURVE",
"219 410 OFFCURVE",
"239 414 OFFCURVE",
"258 414 CURVE SMOOTH",
"304 414 OFFCURVE",
"331 392 OFFCURVE",
"334 340 CURVE",
"184 299 LINE"
);
}
);
width = 521;
}
);
leftKerningGroup = o;
rightKerningGroup = e;
rightMetricsKey = "|";
unicode = 0119;
},
{
glyphname = f;
lastChange = "2016-03-12 19:18:26 +0000";
layers = (
{
anchors = (
{
name = bottom;
position = "{180, 0}";
},
{
name = top;
position = "{180, 755}";
}
);
hints = (
{
horizontal = 1;
origin = "{0, 27}";
target = "{0, 1}";
},
{
horizontal = 1;
place = "{403.000000, 122.000000}";
},
{
horizontal = 1;
origin = "{0, 17}";
target = "{0, 10}";
},
{
horizontal = 1;
origin = "{0, 14}";
target = up;
type = BottomGhost;
},
{
horizontal = 1;
origin = "{0, 27}";
target = "{0, 25}";
},
{
horizontal = 1;
place = "{406.500000, 100.500000}";
},
{
origin = "{0, 25}";
target = "{0, 5}";
},
{
horizontal = 1;
origin = "{0, 13}";
target = up;
type = BottomGhost;
}
);
layerId = "DDABD3A5-4A8B-4D55-9B9E-1269DFBEF3A1";
name = Regular;
paths = (
{
closed = 1;
nodes = (
"342 0 LINE",
"345 69 LINE",
"283 103 LINE SMOOTH",
"265 114 OFFCURVE",
"263 118 OFFCURVE",
"263 146 CURVE SMOOTH",
"263 404 LINE",
"377 402 LINE",
"377 525 LINE",
"263 518 LINE",
"263 636 LINE",
"307 638 OFFCURVE",
"347 632 OFFCURVE",
"405 616 CURVE",
"428 752 LINE",
"377 761 OFFCURVE",
"334 765 OFFCURVE",
"302 765 CURVE SMOOTH",
"165 765 OFFCURVE",
"95 694 OFFCURVE",
"95 574 CURVE SMOOTH",
"95 509 LINE",
"25 505 LINE",
"25 407 LINE",
"95 406 LINE",
"95 113 LINE",
"25 92 LINE",
"28 0 LINE"
);
}
);
width = 405;
}
);
leftKerningGroup = f;
rightKerningGroup = f;
unicode = 0066;
},
{
glyphname = g;
lastChange = "2016-03-12 19:18:27 +0000";
layers = (
{
anchors = (
{
name = bottom;
position = "{259, -226}";
},
{
name = top;
position = "{251, 523}";
}
);
hints = (
{
horizontal = 1;
origin = "{0, 44}";
target = "{1, 17}";
},
{
horizontal = 1;
origin = "{1, 5}";
target = down;
type = TopGhost;
},
{
horizontal = 1;
origin = "{0, 13}";
target = "{2, 17}";
},
{
horizontal = 1;
origin = "{0, 26}";
target = "{2, 8}";
},
{
horizontal = 1;
origin = "{0, 19}";
target = "{0, 22}";
},
{
origin = "{0, 41}";
target = "{1, 2}";
},
{
origin = "{1, 11}";
target = "{0, 2}";
},
{
origin = "{0, 29}";
target = "{2, 2}";
},
{
origin = "{2, 11}";
target = "{0, 16}";
},
{
horizontal = 1;
origin = "{1, 8}";
target = "{0, 5}";
}
);
layerId = "DDABD3A5-4A8B-4D55-9B9E-1269DFBEF3A1";
name = Regular;
paths = (
{
closed = 1;
nodes = (
"413 -228 OFFCURVE",
"516 -160 OFFCURVE",
"516 -40 CURVE SMOOTH",
"516 30 OFFCURVE",
"481 85 OFFCURVE",
"329 107 CURVE SMOOTH",
"239 120 LINE SMOOTH",
"179 128 OFFCURVE",
"167 134 OFFCURVE",
"167 155 CURVE SMOOTH",
"167 169 LINE",
"189 165 OFFCURVE",
"214 163 OFFCURVE",
"241 163 CURVE SMOOTH",
"401 163 OFFCURVE",
"485 229 OFFCURVE",
"485 351 CURVE SMOOTH",
"485 369 OFFCURVE",
"483 385 OFFCURVE",
"480 400 CURVE",
"558 400 LINE",
"558 545 LINE",
"511 545 LINE",
"391 508 LINE",
"355 525 OFFCURVE",
"310 533 OFFCURVE",
"255 533 CURVE SMOOTH",
"96 533 OFFCURVE",
"12 462 OFFCURVE",
"12 340 CURVE SMOOTH",
"12 269 OFFCURVE",
"40 220 OFFCURVE",
"94 192 CURVE",
"60 144 OFFCURVE",
"47 114 OFFCURVE",
"47 90 CURVE SMOOTH",
"47 73 OFFCURVE",
"54 58 OFFCURVE",
"68 44 CURVE",
"23 7 OFFCURVE",
"0 -37 OFFCURVE",
"0 -86 CURVE SMOOTH",
"0 -179 OFFCURVE",
"78 -228 OFFCURVE",
"232 -228 CURVE SMOOTH"
);
},
{
closed = 1;
nodes = (
"191 -115 OFFCURVE",
"149 -92 OFFCURVE",
"149 -44 CURVE SMOOTH",
"149 -34 OFFCURVE",
"151 -19 OFFCURVE",
"155 -1 CURVE",
"202 -10 OFFCURVE",
"252 -16 OFFCURVE",
"276 -20 CURVE SMOOTH",
"336 -28 OFFCURVE",
"354 -43 OFFCURVE",
"354 -75 CURVE SMOOTH",
"354 -86 OFFCURVE",
"352 -99 OFFCURVE",
"348 -107 CURVE",
"333 -112 OFFCURVE",
"310 -115 OFFCURVE",
"278 -115 CURVE SMOOTH"
);
},
{
closed = 1;
nodes = (
"204 261 OFFCURVE",
"179 289 OFFCURVE",
"179 351 CURVE SMOOTH",
"179 379 OFFCURVE",
"184 414 OFFCURVE",
"191 430 CURVE",
"207 434 OFFCURVE",
"220 436 OFFCURVE",
"235 436 CURVE SMOOTH",
"290 436 OFFCURVE",
"315 407 OFFCURVE",
"315 347 CURVE SMOOTH",
"315 321 OFFCURVE",
"310 283 OFFCURVE",
"304 267 CURVE",
"286 263 OFFCURVE",
"269 261 OFFCURVE",
"256 261 CURVE SMOOTH"
);
}
);
width = 572;
},
{
anchors = (
{
name = bottom;
position = "{277, -233}";
},
{
name = top;
position = "{259, 539}";
}
);
associatedMasterId = "DDABD3A5-4A8B-4D55-9B9E-1269DFBEF3A1";
hints = (
{
horizontal = 1;
origin = "{0, 24}";
target = "{1, 17}";
},
{
horizontal = 1;
origin = "{2, 11}";
target = "{3, 17}";
},
{
horizontal = 1;
origin = "{4, 4}";
target = "{4, 2}";
},
{
horizontal = 1;
origin = "{2, 5}";
target = "{3, 8}";
},
{
origin = "{2, 8}";
target = "{3, 2}";
},
{
origin = "{3, 11}";
target = "{2, 2}";
},
{
origin = "{0, 21}";
target = "{1, 2}";
},
{
origin = "{1, 11}";
target = "{0, 2}";
},
{
horizontal = 1;
origin = "{1, 5}";
target = "{0, 5}";
}
);
layerId = "36931AEB-B529-4D45-8FAE-6703C2593AA7";
name = "Bold Nov 10 15, 00:13";
paths = (
{
closed = 1;
nodes = (
"426 -235 OFFCURVE",
"532 -164 OFFCURVE",
"532 -38 CURVE SMOOTH",
"532 39 OFFCURVE",
"492 90 OFFCURVE",
"339 113 CURVE SMOOTH",
"246 127 LINE SMOOTH",
"182 137 OFFCURVE",
"172 142 OFFCURVE",
"172 164 CURVE SMOOTH",
"172 235 LINE",
"142 262 LINE",
"73 175 OFFCURVE",
"48 130 OFFCURVE",
"48 96 CURVE SMOOTH",
"48 66 OFFCURVE",
"68 43 OFFCURVE",
"109 20 CURVE",
"130 89 LINE",
"45 43 OFFCURVE",
"0 -16 OFFCURVE",
"0 -88 CURVE SMOOTH",
"0 -184 OFFCURVE",
"80 -235 OFFCURVE",
"239 -235 CURVE SMOOTH"
);
},
{
closed = 1;
nodes = (
"197 -117 OFFCURVE",
"154 -94 OFFCURVE",
"154 -43 CURVE SMOOTH",
"154 -33 OFFCURVE",
"156 -17 OFFCURVE",
"160 1 CURVE",
"208 -8 OFFCURVE",
"259 -14 OFFCURVE",
"285 -18 CURVE SMOOTH",
"346 -27 OFFCURVE",
"365 -42 OFFCURVE",
"365 -76 CURVE SMOOTH",
"365 -88 OFFCURVE",
"363 -101 OFFCURVE",
"359 -109 CURVE",
"343 -114 OFFCURVE",
"319 -117 OFFCURVE",
"287 -117 CURVE SMOOTH"
);
},
{
closed = 1;
nodes = (
"413 168 OFFCURVE",
"500 236 OFFCURVE",
"500 362 CURVE SMOOTH",
"500 486 OFFCURVE",
"416 549 OFFCURVE",
"263 549 CURVE SMOOTH",
"99 549 OFFCURVE",
"12 477 OFFCURVE",
"12 350 CURVE SMOOTH",
"12 228 OFFCURVE",
"93 168 OFFCURVE",
"248 168 CURVE SMOOTH"
);
},
{
closed = 1;
nodes = (
"210 269 OFFCURVE",
"185 298 OFFCURVE",
"185 362 CURVE SMOOTH",
"185 391 OFFCURVE",
"190 427 OFFCURVE",
"197 443 CURVE",
"213 447 OFFCURVE",
"227 449 OFFCURVE",
"242 449 CURVE SMOOTH",
"299 449 OFFCURVE",
"324 419 OFFCURVE",
"324 358 CURVE SMOOTH",
"324 331 OFFCURVE",
"319 292 OFFCURVE",
"313 275 CURVE",
"295 271 OFFCURVE",
"278 269 OFFCURVE",
"264 269 CURVE SMOOTH"
);
},
{
closed = 1;
nodes = (
"575 412 LINE",
"575 562 LINE",
"527 562 LINE",
"322 499 LINE",
"436 412 LINE"
);
}
);
width = 590;
}
);
leftKerningGroup = g;
rightKerningGroup = g;
unicode = 0067;
},
{
glyphname = h;
lastChange = "2016-03-12 19:18:26 +0000";
layers = (
{
anchors = (
{
name = bottom;
position = "{348, 0}";
},
{
name = center;
position = "{167, 581}";
},
{
name = top;
position = "{155, 755}";
}
);
guideLines = (
{
angle = 90;
position = "{93, 374}";
}
);
hints = (
{
horizontal = 1;
origin = "{0, 43}";
target = "{0, 1}";
},
{
horizontal = 1;
origin = "{0, 25}";
target = "{0, 9}";
},
{
horizontal = 1;
origin = "{0, 32}";
target = down;
type = TopGhost;
},
{
origin = "{0, 41}";
target = "{0, 5}";
},
{
origin = "{0, 13}";
target = "{0, 21}";
},
{
horizontal = 1;
origin = "{0, 36}";
target = "{0, 35}";
}
);
layerId = "DDABD3A5-4A8B-4D55-9B9E-1269DFBEF3A1";
name = Regular;
paths = (
{
closed = 1;
nodes = (
"321 0 LINE",
"325 75 LINE",
"276 103 LINE SMOOTH",
"259 114 OFFCURVE",
"257 118 OFFCURVE",
"257 146 CURVE SMOOTH",
"257 389 LINE",
"295 396 OFFCURVE",
"324 400 OFFCURVE",
"349 400 CURVE SMOOTH",
"417 400 OFFCURVE",
"415 370 OFFCURVE",
"415 299 CURVE SMOOTH",
"415 109 LINE",
"366 95 LINE",
"371 0 LINE",
"647 0 LINE",
"651 75 LINE",
"603 103 LINE SMOOTH",
"585 114 OFFCURVE",
"583 118 OFFCURVE",
"583 146 CURVE SMOOTH",
"583 343 LINE SMOOTH",
"583 467 OFFCURVE",
"532 533 OFFCURVE",
"427 533 CURVE SMOOTH",
"373 533 OFFCURVE",
"325 516 OFFCURVE",
"257 485 CURVE",
"257 713 LINE",
"254 732 OFFCURVE",
"249 751 OFFCURVE",
"244 765 CURVE",
"186 763 OFFCURVE",
"92 745 OFFCURVE",
"28 734 CURVE",
"25 658 LINE",
"69 635 LINE SMOOTH",
"86 625 OFFCURVE",
"88 621 OFFCURVE",
"88 592 CURVE SMOOTH",
"88 113 LINE",
"26 95 LINE",
"31 0 LINE"
);
}
);
width = 660;
}
);
leftKerningGroup = h;
rightKerningGroup = h;
unicode = 0068;
},
{
glyphname = hbar;
lastChange = "2016-03-12 19:18:27 +0000";
layers = (
{
hints = (
{
horizontal = 1;
origin = "{0, 43}";
target = "{0, 1}";
},
{
horizontal = 1;
origin = "{0, 25}";
target = "{0, 9}";
},
{
horizontal = 1;
origin = "{0, 32}";
target = down;
type = TopGhost;
},
{
origin = "{0, 41}";
target = "{0, 5}";
},
{
origin = "{0, 13}";
target = "{0, 21}";
},
{
horizontal = 1;
origin = "{0, 36}";
target = "{0, 35}";
},
{
horizontal = 1;
origin = "{1, 3}";
target = "{1, 2}";
}
);
layerId = "DDABD3A5-4A8B-4D55-9B9E-1269DFBEF3A1";
name = Regular;
paths = (
{
closed = 1;
nodes = (
"327 0 LINE",
"331 75 LINE",
"282 103 LINE SMOOTH",
"265 114 OFFCURVE",
"263 118 OFFCURVE",
"263 146 CURVE SMOOTH",
"263 389 LINE",
"301 396 OFFCURVE",
"330 400 OFFCURVE",
"355 400 CURVE SMOOTH",
"423 400 OFFCURVE",
"421 370 OFFCURVE",
"421 299 CURVE SMOOTH",
"421 109 LINE",
"372 95 LINE",
"377 0 LINE",
"653 0 LINE",
"657 75 LINE",
"609 103 LINE SMOOTH",
"591 114 OFFCURVE",
"589 118 OFFCURVE",
"589 146 CURVE SMOOTH",
"589 343 LINE SMOOTH",
"589 467 OFFCURVE",
"538 533 OFFCURVE",
"433 533 CURVE SMOOTH",
"379 533 OFFCURVE",
"331 516 OFFCURVE",
"263 485 CURVE",
"263 713 LINE",
"260 732 OFFCURVE",
"255 751 OFFCURVE",
"250 765 CURVE",
"192 763 OFFCURVE",
"98 745 OFFCURVE",
"34 734 CURVE",
"31 658 LINE",
"75 635 LINE SMOOTH",
"92 625 OFFCURVE",
"94 621 OFFCURVE",
"94 592 CURVE SMOOTH",
"94 113 LINE",
"32 95 LINE",
"37 0 LINE"
);
},
{
closed = 1;
nodes = (
"362 554 LINE",
"362 638 LINE",
"27 601 LINE",
"27 554 LINE"
);
}
);
width = 666;
}
);
leftKerningGroup = h;
rightKerningGroup = h;
unicode = 0127;
},
{
glyphname = i;
lastChange = "2016-03-12 19:18:28 +0000";
layers = (
{
hints = (
{
horizontal = 1;
origin = "{0, 20}";
target = "{0, 1}";
},
{
horizontal = 1;
origin = "{0, 9}";
target = down;
type = TopGhost;
},
{
horizontal = 1;
origin = "{0, 20}";
target = "{0, 18}";
},
{
origin = "{0, 18}";
target = "{0, 5}";
},
{
horizontal = 1;
origin = "{0, 13}";
target = "{0, 12}";
},
{
horizontal = 1;
origin = "{1, 3}";
target = "{1, 1}";
}
);
layerId = "DDABD3A5-4A8B-4D55-9B9E-1269DFBEF3A1";
name = Regular;
paths = (
{
closed = 1;
nodes = (
"328 0 LINE",
"332 75 LINE",
"283 103 LINE SMOOTH",
"265 114 OFFCURVE",
"263 118 OFFCURVE",
"263 146 CURVE SMOOTH",
"263 466 LINE",
"259 491 OFFCURVE",
"252 513 OFFCURVE",
"247 530 CURVE",
"189 528 OFFCURVE",
"99 510 OFFCURVE",
"35 498 CURVE",
"30 423 LINE",
"74 399 LINE SMOOTH",
"93 389 OFFCURVE",
"95 385 OFFCURVE",
"95 356 CURVE SMOOTH",
"95 113 LINE",
"25 92 LINE",
"28 0 LINE"
);
},
{
closed = 1;
nodes = (
"278 633 LINE",
"237 785 LINE",
"67 740 LINE",
"109 587 LINE"
);
}
);
width = 347;
}
);
leftKerningGroup = i;
rightKerningGroup = i;
unicode = 0069;
},
{
glyphname = idotless;
lastChange = "2016-03-12 19:18:26 +0000";
layers = (
{
anchors = (
{
name = bottom;
position = "{179, 0}";
},
{
name = ogonek;
position = "{315, 10}";
},
{
name = top;
position = "{169, 524}";
}
);
hints = (
{
horizontal = 1;
origin = "{0, 20}";
target = "{0, 1}";
},
{
horizontal = 1;
origin = "{0, 9}";
target = down;
type = TopGhost;
},
{
horizontal = 1;
origin = "{0, 20}";
target = "{0, 18}";
},
{
origin = "{0, 18}";
target = "{0, 5}";
},
{
horizontal = 1;
origin = "{0, 13}";
target = "{0, 12}";
}
);
layerId = "DDABD3A5-4A8B-4D55-9B9E-1269DFBEF3A1";
name = Regular;
paths = (
{
closed = 1;
nodes = (
"328 0 LINE",
"332 75 LINE",
"283 103 LINE SMOOTH",
"265 114 OFFCURVE",
"263 118 OFFCURVE",
"263 146 CURVE SMOOTH",
"263 466 LINE",
"259 491 OFFCURVE",
"252 513 OFFCURVE",
"247 530 CURVE",
"189 528 OFFCURVE",
"99 510 OFFCURVE",
"35 498 CURVE",
"30 423 LINE",
"74 399 LINE SMOOTH",
"93 389 OFFCURVE",
"95 385 OFFCURVE",
"95 356 CURVE SMOOTH",
"95 113 LINE",
"25 92 LINE",
"28 0 LINE"
);
}
);
width = 347;
}
);
leftKerningGroup = i;
rightKerningGroup = i;
unicode = 0131;
},
{
glyphname = iogonek;
lastChange = "2016-03-12 19:18:27 +0000";
layers = (
{
hints = (
{
horizontal = 1;
origin = "{0, 42}";
target = "{0, 6}";
},
{
horizontal = 1;
origin = "{0, 35}";
target = down;
type = TopGhost;
},
{
horizontal = 1;
origin = "{0, 24}";
target = down;
type = TopGhost;
},
{
horizontal = 1;
origin = "{0, 35}";
target = "{0, 33}";
},
{
origin = "{0, 33}";
target = "{0, 20}";
},
{
origin = "{0, 39}";
target = "{0, 9}";
},
{
horizontal = 1;
origin = "{1, 3}";
target = "{1, 1}";
}
);
layerId = "DDABD3A5-4A8B-4D55-9B9E-1269DFBEF3A1";
name = Regular;
paths = (
{
closed = 1;
nodes = (
"247 -227 OFFCURVE",
"288 -216 OFFCURVE",
"322 -198 CURVE",
"310 -138 LINE",
"294 -142 OFFCURVE",
"281 -145 OFFCURVE",
"260 -145 CURVE SMOOTH",
"204 -145 OFFCURVE",
"174 -123 OFFCURVE",
"174 -72 CURVE SMOOTH",
"174 -62 OFFCURVE",
"175 -50 OFFCURVE",
"178 -44 CURVE",
"213 -25 OFFCURVE",
"267 -7 OFFCURVE",
"328 4 CURVE",
"332 75 LINE",
"283 103 LINE SMOOTH",
"265 114 OFFCURVE",
"263 118 OFFCURVE",
"263 146 CURVE SMOOTH",
"263 466 LINE",
"259 491 OFFCURVE",
"252 513 OFFCURVE",
"247 530 CURVE",
"189 528 OFFCURVE",
"99 510 OFFCURVE",
"35 498 CURVE",
"30 423 LINE",
"74 399 LINE SMOOTH",
"93 389 OFFCURVE",
"95 385 OFFCURVE",
"95 356 CURVE SMOOTH",
"95 113 LINE",
"25 92 LINE",
"28 0 LINE",
"136 0 LINE",
"80 -32 OFFCURVE",
"57 -73 OFFCURVE",
"57 -117 CURVE SMOOTH",
"57 -195 OFFCURVE",
"132 -227 OFFCURVE",
"204 -227 CURVE SMOOTH"
);
},
{
closed = 1;
nodes = (
"278 633 LINE",
"237 785 LINE",
"67 740 LINE",
"109 587 LINE"
);
}
);
width = 347;
}
);
leftKerningGroup = i;
rightKerningGroup = i;
unicode = 012F;
},
{
glyphname = j;
lastChange = "2016-03-12 19:18:27 +0000";
layers = (
{
hints = (
{
horizontal = 1;
origin = "{0, 20}";
target = up;
type = BottomGhost;
},
{
horizontal = 1;
origin = "{0, 7}";
target = down;
type = TopGhost;
},
{
origin = "{0, 16}";
target = "{0, 3}";
},
{
horizontal = 1;
origin = "{1, 3}";
target = "{1, 1}";
},
{
horizontal = 1;
origin = "{0, 17}";
target = down;
type = TopGhost;
}
);
layerId = "DDABD3A5-4A8B-4D55-9B9E-1269DFBEF3A1";
name = Regular;
paths = (
{
closed = 1;
nodes = (
"161 -186 LINE SMOOTH",
"220 -101 OFFCURVE",
"233 -14 OFFCURVE",
"233 113 CURVE SMOOTH",
"233 466 LINE",
"229 485 OFFCURVE",
"223 508 OFFCURVE",
"216 530 CURVE",
"159 528 OFFCURVE",
"69 510 OFFCURVE",
"5 498 CURVE",
"0 423 LINE",
"45 399 LINE SMOOTH",
"63 389 OFFCURVE",
"65 385 OFFCURVE",
"65 356 CURVE SMOOTH",
"65 -23 LINE",
"-15 -116 LINE",
"41 -173 OFFCURVE",
"64 -191 OFFCURVE",
"133 -227 CURVE"
);
},
{
closed = 1;
nodes = (
"248 633 LINE",
"206 785 LINE",
"36 740 LINE",
"77 587 LINE"
);
}
);
width = 286;
}
);
leftKerningGroup = j;
rightKerningGroup = j;
unicode = 006A;
},
{
glyphname = k;
lastChange = "2016-03-12 19:18:26 +0000";
layers = (
{
anchors = (
{
name = bottom;
position = "{362, -5}";
},
{
name = top;
position = "{166, 755}";
}
);
hints = (
{
horizontal = 1;
origin = "{0, 36}";
target = "{0, 1}";
},
{
horizontal = 1;
origin = "{0, 15}";
target = "{0, 16}";
},
{
horizontal = 1;
origin = "{0, 25}";
target = down;
type = TopGhost;
},
{
horizontal = 1;
origin = "{0, 15}";
target = "{0, 11}";
},
{
horizontal = 1;
origin = "{0, 36}";
target = "{0, 34}";
},
{
origin = "{0, 34}";
target = "{0, 5}";
},
{
horizontal = 1;
origin = "{0, 29}";
target = "{0, 28}";
}
);
layerId = "DDABD3A5-4A8B-4D55-9B9E-1269DFBEF3A1";
name = Regular;
paths = (
{
closed = 1;
nodes = (
"321 0 LINE",
"325 75 LINE",
"276 103 LINE",
"259 114 OFFCURVE",
"257 118 OFFCURVE",
"257 146 CURVE SMOOTH",
"257 260 LINE",
"438 0 LINE",
"614 0 LINE",
"614 44 LINE",
"421 310 LINE",
"587 452 LINE",
"585 478 OFFCURVE",
"581 501 OFFCURVE",
"575 523 CURVE",
"353 523 LINE",
"342 468 LINE",
"370 433 LINE SMOOTH",
"375 427 OFFCURVE",
"373 419 OFFCURVE",
"368 414 CURVE SMOOTH",
"257 306 LINE",
"257 713 LINE",
"254 732 OFFCURVE",
"249 751 OFFCURVE",
"244 765 CURVE",
"186 763 OFFCURVE",
"92 745 OFFCURVE",
"28 734 CURVE",
"25 658 LINE",
"69 635 LINE",
"86 625 OFFCURVE",
"88 621 OFFCURVE",
"88 592 CURVE SMOOTH",
"88 113 LINE",
"26 95 LINE",
"31 0 LINE"
);
}
);
width = 619;
}
);
leftKerningGroup = h;
rightKerningGroup = k;
unicode = 006B;
},
{
glyphname = l;
lastChange = "2016-03-12 19:18:26 +0000";
layers = (
{
anchors = (
{
name = bottom;
position = "{181, -5}";
},
{
name = center;
position = "{180, 370}";
},
{
name = top;
position = "{177, 755}";
},
{
name = topright;
position = "{346, 755}";
}
);
hints = (
{
horizontal = 1;
origin = "{0, 20}";
target = "{0, 1}";
},
{
horizontal = 1;
origin = "{0, 9}";
target = down;
type = TopGhost;
},
{
horizontal = 1;
origin = "{0, 20}";
target = "{0, 18}";
},
{
origin = "{0, 18}";
target = "{0, 5}";
},
{
horizontal = 1;
origin = "{0, 13}";
target = "{0, 12}";
}
);
layerId = "DDABD3A5-4A8B-4D55-9B9E-1269DFBEF3A1";
name = Regular;
paths = (
{
closed = 1;
nodes = (
"328 0 LINE",
"332 75 LINE",
"283 103 LINE SMOOTH",
"265 114 OFFCURVE",
"263 118 OFFCURVE",
"263 146 CURVE SMOOTH",
"263 713 LINE",
"261 732 OFFCURVE",
"256 751 OFFCURVE",
"250 765 CURVE",
"193 763 OFFCURVE",
"99 745 OFFCURVE",
"35 734 CURVE",
"30 658 LINE",
"74 635 LINE SMOOTH",
"93 625 OFFCURVE",
"95 621 OFFCURVE",
"95 592 CURVE SMOOTH",
"95 113 LINE",
"25 92 LINE",
"28 0 LINE"
);
}
);
width = 342;
}
);
leftKerningGroup = h;
rightKerningGroup = l;
unicode = 006C;
},
{
glyphname = lcaron;
lastChange = "2016-03-12 19:18:28 +0000";
layers = (
{
hints = (
{
horizontal = 1;
origin = "{0, 20}";
target = "{0, 1}";
},
{
horizontal = 1;
origin = "{1, 3}";
target = "{1, 4}";
},
{
horizontal = 1;
origin = "{0, 20}";
target = "{0, 18}";
},
{
horizontal = 1;
origin = "{0, 9}";
target = down;
type = TopGhost;
},
{
horizontal = 1;
origin = "{1, 3}";
target = "{1, 1}";
},
{
origin = "{0, 18}";
target = "{0, 5}";
},
{
horizontal = 1;
origin = "{0, 13}";
target = "{0, 12}";
}
);
layerId = "DDABD3A5-4A8B-4D55-9B9E-1269DFBEF3A1";
name = Regular;
paths = (
{
closed = 1;
nodes = (
"328 0 LINE",
"332 75 LINE",
"283 103 LINE SMOOTH",
"265 114 OFFCURVE",
"263 118 OFFCURVE",
"263 146 CURVE SMOOTH",
"263 713 LINE",
"261 732 OFFCURVE",
"256 751 OFFCURVE",
"250 765 CURVE",
"193 763 OFFCURVE",
"99 745 OFFCURVE",
"35 734 CURVE",
"30 658 LINE",
"74 635 LINE SMOOTH",
"93 625 OFFCURVE",
"95 621 OFFCURVE",
"95 592 CURVE SMOOTH",
"95 113 LINE",
"25 92 LINE",
"28 0 LINE"
);
},
{
closed = 1;
nodes = (
"385 579 LINE",
"567 714 LINE",
"567 755 LINE",
"395 755 LINE",
"306 579 LINE"
);
}
);
width = 342;
}
);
leftKerningGroup = h;
unicode = 013E;
},
{
glyphname = lslash;
lastChange = "2016-03-12 19:18:27 +0000";
layers = (
{
hints = (
{
horizontal = 1;
origin = "{0, 20}";
target = "{0, 1}";
},
{
horizontal = 1;
origin = "{0, 9}";
target = down;
type = TopGhost;
},
{
horizontal = 1;
origin = "{0, 20}";
target = "{0, 18}";
},
{
origin = "{0, 18}";
target = "{0, 5}";
},
{
horizontal = 1;
origin = "{1, 1}";
target = down;
type = TopGhost;
},
{
horizontal = 1;
origin = "{1, 3}";
target = up;
type = BottomGhost;
},
{
horizontal = 1;
origin = "{0, 13}";
target = "{0, 12}";
}
);
layerId = "DDABD3A5-4A8B-4D55-9B9E-1269DFBEF3A1";
name = Regular;
paths = (
{
closed = 1;
nodes = (
"333 0 LINE",
"337 75 LINE",
"288 103 LINE SMOOTH",
"269 114 OFFCURVE",
"267 118 OFFCURVE",
"267 146 CURVE SMOOTH",
"267 713 LINE",
"265 732 OFFCURVE",
"261 751 OFFCURVE",
"255 765 CURVE",
"198 763 OFFCURVE",
"104 745 OFFCURVE",
"40 734 CURVE",
"35 658 LINE",
"79 635 LINE SMOOTH",
"98 625 OFFCURVE",
"100 621 OFFCURVE",
"100 592 CURVE SMOOTH",
"100 113 LINE",
"28 92 LINE",
"33 0 LINE"
);
},
{
closed = 1;
nodes = (
"347 466 LINE",
"342 555 LINE",
"29 283 LINE",
"34 194 LINE"
);
}
);
width = 364;
}
);
unicode = 0142;
},
{
glyphname = m;
lastChange = "2016-03-12 19:18:26 +0000";
layers = (
{
anchors = (
{
name = bottom;
position = "{497, 0}";
},
{
name = top;
position = "{486, 523}";
}
);
hints = (
{
horizontal = 1;
origin = "{0, 67}";
target = "{0, 1}";
},
{
horizontal = 1;
origin = "{0, 56}";
target = down;
type = TopGhost;
},
{
horizontal = 1;
origin = "{0, 50}";
target = "{0, 61}";
},
{
origin = "{0, 65}";
target = "{0, 5}";
},
{
origin = "{0, 13}";
target = "{0, 21}";
},
{
origin = "{0, 32}";
target = "{0, 40}";
},
{
horizontal = 1;
origin = "{0, 60}";
target = "{0, 59}";
}
);
layerId = "DDABD3A5-4A8B-4D55-9B9E-1269DFBEF3A1";
name = Regular;
paths = (
{
closed = 1;
nodes = (
"319 0 LINE",
"323 75 LINE",
"274 103 LINE SMOOTH",
"256 114 OFFCURVE",
"255 119 OFFCURVE",
"255 146 CURVE SMOOTH",
"255 390 LINE",
"283 395 OFFCURVE",
"316 399 OFFCURVE",
"340 399 CURVE SMOOTH",
"407 399 OFFCURVE",
"405 368 OFFCURVE",
"405 298 CURVE SMOOTH",
"405 109 LINE",
"357 95 LINE",
"362 0 LINE",
"636 0 LINE",
"640 75 LINE",
"591 103 LINE SMOOTH",
"571 114 OFFCURVE",
"570 119 OFFCURVE",
"570 146 CURVE SMOOTH",
"570 343 LINE SMOOTH",
"570 358 OFFCURVE",
"570 374 OFFCURVE",
"568 390 CURVE",
"602 395 OFFCURVE",
"633 399 OFFCURVE",
"655 399 CURVE SMOOTH",
"724 399 OFFCURVE",
"721 365 OFFCURVE",
"721 298 CURVE SMOOTH",
"721 109 LINE",
"673 95 LINE",
"678 0 LINE",
"950 0 LINE",
"954 75 LINE",
"906 103 LINE SMOOTH",
"887 114 OFFCURVE",
"886 119 OFFCURVE",
"886 146 CURVE SMOOTH",
"886 343 LINE SMOOTH",
"886 470 OFFCURVE",
"836 533 OFFCURVE",
"726 533 CURVE SMOOTH",
"671 533 OFFCURVE",
"613 517 OFFCURVE",
"537 480 CURVE",
"514 512 OFFCURVE",
"465 533 OFFCURVE",
"413 533 CURVE SMOOTH",
"371 533 OFFCURVE",
"324 521 OFFCURVE",
"250 487 CURVE",
"247 500 OFFCURVE",
"243 514 OFFCURVE",
"237 530 CURVE",
"179 528 OFFCURVE",
"92 510 OFFCURVE",
"28 498 CURVE",
"25 423 LINE",
"69 399 LINE SMOOTH",
"86 389 OFFCURVE",
"88 385 OFFCURVE",
"88 356 CURVE SMOOTH",
"88 113 LINE",
"26 95 LINE",
"31 0 LINE"
);
}
);
width = 964;
}
);
leftKerningGroup = n;
rightKerningGroup = n;
unicode = 006D;
},
{
color = 0;
glyphname = n;
lastChange = "2016-03-12 19:18:26 +0000";
layers = (
{
anchors = (
{
name = bottom;
position = "{345, 0}";
},
{
name = top;
position = "{326, 523}";
}
);
hints = (
{
horizontal = 1;
origin = "{0, 42}";
target = "{0, 1}";
},
{
horizontal = 1;
origin = "{0, 31}";
target = down;
type = TopGhost;
},
{
horizontal = 1;
origin = "{0, 25}";
target = "{0, 9}";
},
{
origin = "{0, 40}";
target = "{0, 5}";
},
{
origin = "{0, 13}";
target = "{0, 21}";
},
{
horizontal = 1;
origin = "{0, 35}";
target = "{0, 34}";
}
);
layerId = "DDABD3A5-4A8B-4D55-9B9E-1269DFBEF3A1";
name = Regular;
paths = (
{
closed = 1;
nodes = (
"321 1 LINE",
"325 76 LINE",
"276 104 LINE SMOOTH",
"259 115 OFFCURVE",
"257 119 OFFCURVE",
"257 147 CURVE SMOOTH",
"257 389 LINE",
"297 397 OFFCURVE",
"326 400 OFFCURVE",
"348 400 CURVE SMOOTH",
"417 400 OFFCURVE",
"415 371 OFFCURVE",
"415 299 CURVE SMOOTH",
"415 110 LINE",
"366 96 LINE",
"371 1 LINE",
"647 1 LINE",
"651 76 LINE",
"603 104 LINE SMOOTH",
"585 115 OFFCURVE",
"583 119 OFFCURVE",
"583 147 CURVE SMOOTH",
"583 343 LINE SMOOTH",
"583 468 OFFCURVE",
"532 533 OFFCURVE",
"424 533 CURVE SMOOTH",
"380 533 OFFCURVE",
"336 522 OFFCURVE",
"252 484 CURVE",
"248 504 OFFCURVE",
"244 517 OFFCURVE",
"239 530 CURVE",
"181 528 OFFCURVE",
"92 510 OFFCURVE",
"28 498 CURVE",
"25 423 LINE",
"69 399 LINE SMOOTH",
"86 389 OFFCURVE",
"88 385 OFFCURVE",
"88 356 CURVE SMOOTH",
"88 114 LINE",
"26 96 LINE",
"31 1 LINE"
);
}
);
width = 660;
}
);
leftKerningGroup = n;
rightKerningGroup = n;
unicode = 006E;
},
{
glyphname = eng;
lastChange = "2016-03-12 19:18:26 +0000";
layers = (
{
hints = (
{
horizontal = 1;
origin = "{0, 42}";
target = up;
type = BottomGhost;
},
{
horizontal = 1;
origin = "{0, 24}";
target = "{0, 26}";
},
{
horizontal = 1;
origin = "{0, 13}";
target = down;
type = TopGhost;
},
{
horizontal = 1;
origin = "{0, 7}";
target = "{0, 34}";
},
{
origin = "{0, 22}";
target = "{0, 30}";
},
{
origin = "{0, 38}";
target = "{0, 3}";
},
{
horizontal = 1;
origin = "{0, 17}";
target = "{0, 16}";
}
);
layerId = "DDABD3A5-4A8B-4D55-9B9E-1269DFBEF3A1";
name = Regular;
paths = (
{
closed = 1;
nodes = (
"511 -186 LINE SMOOTH",
"567 -103 OFFCURVE",
"583 -31 OFFCURVE",
"583 113 CURVE SMOOTH",
"583 343 LINE SMOOTH",
"583 472 OFFCURVE",
"532 533 OFFCURVE",
"417 533 CURVE SMOOTH",
"377 533 OFFCURVE",
"322 516 OFFCURVE",
"252 484 CURVE",
"248 504 OFFCURVE",
"244 517 OFFCURVE",
"239 530 CURVE",
"181 528 OFFCURVE",
"92 510 OFFCURVE",
"28 498 CURVE",
"25 423 LINE",
"69 399 LINE SMOOTH",
"86 389 OFFCURVE",
"88 385 OFFCURVE",
"88 356 CURVE SMOOTH",
"88 114 LINE",
"26 96 LINE",
"31 1 LINE",
"321 1 LINE",
"325 76 LINE",
"276 104 LINE SMOOTH",
"259 115 OFFCURVE",
"257 119 OFFCURVE",
"257 147 CURVE SMOOTH",
"257 389 LINE",
"297 397 OFFCURVE",
"325 400 OFFCURVE",
"349 400 CURVE SMOOTH",
"417 400 OFFCURVE",
"415 370 OFFCURVE",
"415 299 CURVE SMOOTH",
"415 -23 LINE",
"337 -116 LINE",
"392 -173 OFFCURVE",
"414 -191 OFFCURVE",
"484 -227 CURVE"
);
}
);
width = 621;
}
);
leftKerningGroup = n;
rightKerningGroup = j;
unicode = 014B;
},
{
glyphname = o;
lastChange = "2016-03-12 19:18:27 +0000";
layers = (
{
anchors = (
{
name = bottom;
position = "{274, 0}";
},
{
name = center;
position = "{274, 262}";
},
{
name = ogonek;
position = "{431, 10}";
},
{
name = top;
position = "{278, 524}";
},
{
name = topright;
position = "{538, 524}";
}
);
hints = (
{
horizontal = 1;
origin = "{0, 11}";
target = "{1, 17}";
},
{
horizontal = 1;
origin = "{0, 5}";
target = "{1, 8}";
},
{
origin = "{0, 8}";
target = "{1, 2}";
},
{
origin = "{1, 11}";
target = "{0, 2}";
}
);
layerId = "DDABD3A5-4A8B-4D55-9B9E-1269DFBEF3A1";
name = Regular;
paths = (
{
closed = 1;
nodes = (
"436 -13 OFFCURVE",
"535 91 OFFCURVE",
"535 265 CURVE SMOOTH",
"535 443 OFFCURVE",
"449 533 OFFCURVE",
"276 533 CURVE SMOOTH",
"115 533 OFFCURVE",
"15 425 OFFCURVE",
"15 251 CURVE SMOOTH",
"15 73 OFFCURVE",
"97 -13 OFFCURVE",
"267 -13 CURVE SMOOTH"
);
},
{
closed = 1;
nodes = (
"218 104 OFFCURVE",
"181 166 OFFCURVE",
"181 278 CURVE SMOOTH",
"181 336 OFFCURVE",
"187 383 OFFCURVE",
"196 403 CURVE",
"219 409 OFFCURVE",
"239 412 OFFCURVE",
"263 412 CURVE SMOOTH",
"330 412 OFFCURVE",
"364 355 OFFCURVE",
"364 247 CURVE SMOOTH",
"364 205 OFFCURVE",
"359 151 OFFCURVE",
"350 119 CURVE",
"327 108 OFFCURVE",
"309 104 OFFCURVE",
"283 104 CURVE SMOOTH"
);
}
);
width = 553;
}
);
leftKerningGroup = o;
rightKerningGroup = o;
unicode = 006F;
},
{
glyphname = oe;
lastChange = "2016-03-12 19:18:27 +0000";
layers = (
{
anchors = (
{
name = bottom;
position = "{443, 0}";
},
{
name = top;
position = "{452, 523}";
}
);
hints = (
{
horizontal = 1;
origin = "{0, 31}";
target = "{1, 17}";
},
{
horizontal = 1;
origin = "{0, 25}";
target = "{1, 8}";
},
{
horizontal = 1;
origin = "{0, 5}";
target = "{1, 14}";
},
{
origin = "{0, 28}";
target = "{1, 2}";
},
{
origin = "{2, 8}";
target = "{0, 16}";
},
{
origin = "{1, 11}";
target = "{2, 9}";
},
{
horizontal = 1;
origin = "{0, 9}";
target = down;
type = TopGhost;
}
);
layerId = "DDABD3A5-4A8B-4D55-9B9E-1269DFBEF3A1";
name = Regular;
paths = (
{
closed = 1;
nodes = (
"339 -13 OFFCURVE",
"397 6 OFFCURVE",
"442 40 CURVE",
"481 7 OFFCURVE",
"536 -12 OFFCURVE",
"602 -12 CURVE SMOOTH",
"683 -12 OFFCURVE",
"769 15 OFFCURVE",
"818 52 CURVE",
"794 151 LINE",
"738 130 OFFCURVE",
"682 119 OFFCURVE",
"644 119 CURVE SMOOTH",
"588 119 OFFCURVE",
"554 144 OFFCURVE",
"538 200 CURVE",
"841 256 LINE",
"845 433 OFFCURVE",
"761 533 OFFCURVE",
"610 533 CURVE SMOOTH",
"547 533 OFFCURVE",
"493 514 OFFCURVE",
"451 482 CURVE",
"409 515 OFFCURVE",
"351 533 OFFCURVE",
"276 533 CURVE SMOOTH",
"115 533 OFFCURVE",
"15 425 OFFCURVE",
"15 251 CURVE SMOOTH",
"15 73 OFFCURVE",
"97 -13 OFFCURVE",
"267 -13 CURVE SMOOTH"
);
},
{
closed = 1;
nodes = (
"218 104 OFFCURVE",
"181 166 OFFCURVE",
"181 278 CURVE SMOOTH",
"181 336 OFFCURVE",
"187 383 OFFCURVE",
"196 403 CURVE",
"219 409 OFFCURVE",
"239 412 OFFCURVE",
"263 412 CURVE SMOOTH",
"330 412 OFFCURVE",
"364 355 OFFCURVE",
"364 247 CURVE SMOOTH",
"364 205 OFFCURVE",
"359 151 OFFCURVE",
"350 119 CURVE",
"327 108 OFFCURVE",
"309 104 OFFCURVE",
"283 104 CURVE SMOOTH"
);
},
{
closed = 1;
nodes = (
"527 337 OFFCURVE",
"534 375 OFFCURVE",
"546 405 CURVE",
"565 413 OFFCURVE",
"590 415 OFFCURVE",
"614 413 CURVE SMOOTH",
"651 411 OFFCURVE",
"674 384 OFFCURVE",
"677 340 CURVE",
"528 299 LINE"
);
}
);
width = 864;
}
);
leftKerningGroup = o;
rightKerningGroup = e;
unicode = 0153;
},
{
glyphname = p;
lastChange = "2016-03-12 19:18:27 +0000";
layers = (
{
anchors = (
{
name = bottom;
position = "{310, 0}";
},
{
name = top;
position = "{300, 523}";
}
);
hints = (
{
horizontal = 1;
origin = "{0, 32}";
target = "{0, 1}";
},
{
horizontal = 1;
origin = "{0, 9}";
target = "{1, 15}";
},
{
horizontal = 1;
origin = "{0, 21}";
target = down;
type = TopGhost;
},
{
horizontal = 1;
origin = "{0, 15}";
target = "{1, 6}";
},
{
horizontal = 1;
origin = "{0, 32}";
target = "{0, 30}";
},
{
origin = "{0, 30}";
target = "{0, 5}";
},
{
origin = "{1, 9}";
target = "{0, 12}";
},
{
horizontal = 1;
origin = "{0, 25}";
target = "{0, 24}";
}
);
layerId = "DDABD3A5-4A8B-4D55-9B9E-1269DFBEF3A1";
name = Regular;
paths = (
{
closed = 1;
nodes = (
"303 -215 LINE",
"307 -145 LINE",
"248 -112 LINE SMOOTH",
"229 -102 OFFCURVE",
"228 -97 OFFCURVE",
"228 -69 CURVE SMOOTH",
"228 -14 LINE",
"244 -15 OFFCURVE",
"260 -16 OFFCURVE",
"275 -16 CURVE SMOOTH",
"461 -16 OFFCURVE",
"563 82 OFFCURVE",
"563 262 CURVE SMOOTH",
"563 435 OFFCURVE",
"489 533 OFFCURVE",
"356 533 CURVE SMOOTH",
"310 533 OFFCURVE",
"261 515 OFFCURVE",
"219 482 CURVE",
"217 498 OFFCURVE",
"214 513 OFFCURVE",
"207 530 CURVE",
"149 527 OFFCURVE",
"64 510 OFFCURVE",
"0 498 CURVE",
"-5 423 LINE",
"40 399 LINE SMOOTH",
"58 389 OFFCURVE",
"60 385 OFFCURVE",
"60 356 CURVE SMOOTH",
"60 -103 LINE",
"-2 -120 LINE",
"3 -215 LINE"
);
},
{
closed = 1;
nodes = (
"270 108 OFFCURVE",
"247 112 OFFCURVE",
"228 120 CURVE",
"228 392 LINE",
"258 405 OFFCURVE",
"277 409 OFFCURVE",
"296 409 CURVE SMOOTH",
"359 409 OFFCURVE",
"396 351 OFFCURVE",
"396 248 CURVE SMOOTH",
"396 207 OFFCURVE",
"388 154 OFFCURVE",
"377 121 CURVE",
"357 112 OFFCURVE",
"329 108 OFFCURVE",
"301 108 CURVE SMOOTH"
);
}
);
width = 583;
}
);
leftKerningGroup = p;
rightKerningGroup = o;
unicode = 0070;
},
{
glyphname = thorn;
lastChange = "2016-03-12 19:18:28 +0000";
layers = (
{
anchors = (
{
name = bottom;
position = "{147, -215}";
},
{
name = top;
position = "{137, 755}";
}
);
guideLines = (
{
angle = 90;
position = "{115, 481}";
}
);
hints = (
{
horizontal = 1;
origin = "{0, 33}";
target = "{0, 1}";
},
{
horizontal = 1;
origin = "{0, 9}";
target = "{1, 15}";
},
{
horizontal = 1;
origin = "{0, 15}";
target = "{1, 6}";
},
{
horizontal = 1;
origin = "{0, 22}";
target = down;
type = TopGhost;
},
{
horizontal = 1;
origin = "{0, 33}";
target = "{0, 31}";
},
{
origin = "{0, 31}";
target = "{0, 5}";
},
{
origin = "{1, 9}";
target = "{0, 12}";
},
{
horizontal = 1;
origin = "{0, 26}";
target = "{0, 25}";
}
);
layerId = "DDABD3A5-4A8B-4D55-9B9E-1269DFBEF3A1";
name = Regular;
paths = (
{
closed = 1;
nodes = (
"303 -215 LINE",
"307 -145 LINE",
"248 -112 LINE SMOOTH",
"229 -102 OFFCURVE",
"228 -97 OFFCURVE",
"228 -69 CURVE SMOOTH",
"228 -14 LINE",
"244 -15 OFFCURVE",
"259 -16 OFFCURVE",
"276 -16 CURVE SMOOTH",
"461 -16 OFFCURVE",
"563 80 OFFCURVE",
"563 267 CURVE SMOOTH",
"563 429 OFFCURVE",
"489 533 OFFCURVE",
"359 533 CURVE SMOOTH",
"316 533 OFFCURVE",
"272 521 OFFCURVE",
"228 489 CURVE",
"228 713 LINE",
"225 734 OFFCURVE",
"220 752 OFFCURVE",
"215 765 CURVE",
"176 764 OFFCURVE",
"115 754 OFFCURVE",
"0 734 CURVE",
"-5 658 LINE",
"40 635 LINE SMOOTH",
"58 625 OFFCURVE",
"60 621 OFFCURVE",
"60 591 CURVE SMOOTH",
"60 -103 LINE",
"-2 -120 LINE",
"3 -215 LINE"
);
},
{
closed = 1;
nodes = (
"270 108 OFFCURVE",
"247 112 OFFCURVE",
"228 120 CURVE",
"228 392 LINE",
"258 405 OFFCURVE",
"277 409 OFFCURVE",
"296 409 CURVE SMOOTH",
"359 409 OFFCURVE",
"396 350 OFFCURVE",
"396 251 CURVE SMOOTH",
"396 206 OFFCURVE",
"388 154 OFFCURVE",
"377 121 CURVE",
"357 112 OFFCURVE",
"329 108 OFFCURVE",
"301 108 CURVE SMOOTH"
);
}
);
width = 583;
}
);
rightKerningGroup = o;
unicode = 00FE;
},
{
glyphname = q;
lastChange = "2016-03-12 19:18:27 +0000";
layers = (
{
anchors = (
{
name = bottom;
position = "{439, -215}";
},
{
name = top;
position = "{292, 524}";
}
);
hints = (
{
horizontal = 1;
origin = "{0, 21}";
target = "{0, 19}";
},
{
horizontal = 1;
origin = "{0, 15}";
target = "{1, 15}";
},
{
horizontal = 1;
origin = "{0, 9}";
target = "{1, 8}";
},
{
horizontal = 1;
origin = "{0, 21}";
target = "{0, 1}";
},
{
origin = "{0, 12}";
target = "{1, 2}";
},
{
origin = "{1, 12}";
target = "{0, 5}";
}
);
layerId = "DDABD3A5-4A8B-4D55-9B9E-1269DFBEF3A1";
name = Regular;
paths = (
{
closed = 1;
nodes = (
"568 -215 LINE",
"572 -130 LINE",
"541 -112 LINE SMOOTH",
"521 -102 OFFCURVE",
"520 -97 OFFCURVE",
"520 -69 CURVE SMOOTH",
"520 490 LINE",
"467 514 OFFCURVE",
"384 533 OFFCURVE",
"303 533 CURVE SMOOTH",
"117 533 OFFCURVE",
"15 435 OFFCURVE",
"15 255 CURVE SMOOTH",
"15 86 OFFCURVE",
"87 -13 OFFCURVE",
"247 -13 CURVE SMOOTH",
"280 -13 OFFCURVE",
"316 -7 OFFCURVE",
"352 3 CURVE",
"352 -103 LINE",
"265 -126 LINE",
"268 -215 LINE"
);
},
{
closed = 1;
nodes = (
"218 111 OFFCURVE",
"184 167 OFFCURVE",
"184 273 CURVE SMOOTH",
"184 326 OFFCURVE",
"191 372 OFFCURVE",
"202 396 CURVE",
"221 403 OFFCURVE",
"246 406 OFFCURVE",
"269 406 CURVE SMOOTH",
"300 406 OFFCURVE",
"327 402 OFFCURVE",
"351 391 CURVE",
"351 131 LINE",
"319 117 OFFCURVE",
"299 111 OFFCURVE",
"276 111 CURVE SMOOTH"
);
}
);
width = 575;
}
);
leftKerningGroup = o;
rightKerningGroup = q;
unicode = 0071;
},
{
glyphname = r;
lastChange = "2016-03-12 19:18:26 +0000";
layers = (
{
anchors = (
{
name = bottom;
position = "{185, -5}";
},
{
name = top;
position = "{188, 523}";
}
);
hints = (
{
horizontal = 1;
origin = "{0, 30}";
target = "{0, 1}";
},
{
horizontal = 1;
origin = "{0, 19}";
target = "{0, 9}";
},
{
horizontal = 1;
origin = "{0, 30}";
target = "{0, 28}";
},
{
origin = "{0, 28}";
target = "{0, 5}";
},
{
horizontal = 1;
origin = "{0, 30}";
target = "{0, 29}";
},
{
horizontal = 1;
origin = "{0, 1}";
target = "{0, 0}";
},
{
horizontal = 1;
origin = "{0, 23}";
target = "{0, 22}";
}
);
layerId = "DDABD3A5-4A8B-4D55-9B9E-1269DFBEF3A1";
name = Regular;
paths = (
{
closed = 1;
nodes = (
"332 0 LINE",
"336 71 LINE",
"276 103 LINE SMOOTH",
"259 114 OFFCURVE",
"257 118 OFFCURVE",
"257 146 CURVE SMOOTH",
"257 373 LINE",
"300 378 OFFCURVE",
"349 380 OFFCURVE",
"397 376 CURVE",
"405 413 OFFCURVE",
"411 481 OFFCURVE",
"412 530 CURVE",
"355 530 LINE",
"327 518 OFFCURVE",
"290 494 OFFCURVE",
"253 465 CURVE",
"248 490 OFFCURVE",
"242 513 OFFCURVE",
"236 530 CURVE",
"178 528 OFFCURVE",
"92 510 OFFCURVE",
"28 498 CURVE",
"25 423 LINE",
"69 399 LINE SMOOTH",
"86 389 OFFCURVE",
"88 385 OFFCURVE",
"88 356 CURVE SMOOTH",
"88 113 LINE",
"27 95 LINE",
"32 0 LINE"
);
}
);
width = 426;
}
);
leftKerningGroup = r;
rightKerningGroup = r;
unicode = 0072;
},
{
glyphname = s;
lastChange = "2016-03-12 19:18:26 +0000";
layers = (
{
anchors = (
{
name = bottom;
position = "{214, -9}";
},
{
name = top;
position = "{244, 524}";
}
);
hints = (
{
horizontal = 1;
origin = "{0, 51}";
target = "{0, 40}";
},
{
horizontal = 1;
origin = "{0, 25}";
target = "{0, 14}";
},
{
origin = "{0, 28}";
target = "{0, 8}";
},
{
origin = "{0, 34}";
target = "{0, 2}";
},
{
horizontal = 1;
origin = "{0, 44}";
target = down;
type = TopGhost;
},
{
horizontal = 1;
origin = "{0, 18}";
target = up;
type = BottomGhost;
}
);
layerId = "DDABD3A5-4A8B-4D55-9B9E-1269DFBEF3A1";
name = Regular;
paths = (
{
closed = 1;
nodes = (
"358 -17 OFFCURVE",
"446 48 OFFCURVE",
"446 157 CURVE SMOOTH",
"446 224 OFFCURVE",
"415 255 OFFCURVE",
"286 318 CURVE SMOOTH",
"202 361 OFFCURVE",
"184 374 OFFCURVE",
"184 401 CURVE SMOOTH",
"184 410 OFFCURVE",
"185 416 OFFCURVE",
"187 420 CURVE",
"199 421 OFFCURVE",
"210 422 OFFCURVE",
"219 422 CURVE SMOOTH",
"251 422 OFFCURVE",
"279 419 OFFCURVE",
"295 414 CURVE",
"362 342 LINE",
"414 350 LINE",
"420 403 OFFCURVE",
"423 451 OFFCURVE",
"423 495 CURVE",
"375 515 OFFCURVE",
"309 530 OFFCURVE",
"251 530 CURVE SMOOTH",
"115 530 OFFCURVE",
"30 463 OFFCURVE",
"30 356 CURVE SMOOTH",
"30 285 OFFCURVE",
"64 248 OFFCURVE",
"178 188 CURVE SMOOTH",
"267 144 OFFCURVE",
"274 138 OFFCURVE",
"274 115 CURVE SMOOTH",
"274 106 OFFCURVE",
"273 98 OFFCURVE",
"271 93 CURVE",
"262 91 OFFCURVE",
"250 90 OFFCURVE",
"235 90 CURVE SMOOTH",
"210 90 OFFCURVE",
"181 94 OFFCURVE",
"161 100 CURVE",
"98 167 LINE",
"41 156 LINE",
"35 115 OFFCURVE",
"32 75 OFFCURVE",
"28 11 CURVE",
"95 -7 OFFCURVE",
"159 -17 OFFCURVE",
"211 -17 CURVE SMOOTH"
);
}
);
width = 461;
}
);
leftKerningGroup = s;
rightKerningGroup = s;
unicode = 0073;
},
{
glyphname = germandbls;
lastChange = "2016-03-12 19:18:26 +0000";
layers = (
{
anchors = (
{
name = bottom;
position = "{399, 0}";
},
{
name = top;
position = "{339, 755}";
}
);
hints = (
{
horizontal = 1;
origin = "{0, 66}";
target = "{0, 53}";
},
{
horizontal = 1;
place = "{403.500000, 100.500000}";
},
{
horizontal = 1;
origin = "{0, 17}";
target = "{0, 32}";
},
{
horizontal = 1;
origin = "{0, 27}";
target = "{0, 25}";
},
{
horizontal = 1;
origin = "{0, 27}";
target = "{0, 60}";
},
{
horizontal = 1;
origin = "{0, 27}";
target = "{0, 63}";
},
{
origin = "{0, 25}";
target = "{0, 28}";
},
{
origin = "{0, 41}";
target = "{0, 5}";
},
{
origin = "{0, 47}";
target = "{0, 2}";
},
{
origin = "{0, 35}";
target = "{0, 14}";
}
);
layerId = "DDABD3A5-4A8B-4D55-9B9E-1269DFBEF3A1";
name = Regular;
paths = (
{
closed = 1;
nodes = (
"553 -16 OFFCURVE",
"634 39 OFFCURVE",
"634 146 CURVE SMOOTH",
"634 299 OFFCURVE",
"469 331 OFFCURVE",
"469 416 CURVE SMOOTH",
"469 438 OFFCURVE",
"480 450 OFFCURVE",
"517 484 CURVE SMOOTH",
"538 503 OFFCURVE",
"544 508 OFFCURVE",
"572 533 CURVE",
"572 539 OFFCURVE",
"573 544 OFFCURVE",
"573 559 CURVE SMOOTH",
"573 674 OFFCURVE",
"493 765 OFFCURVE",
"334 765 CURVE SMOOTH",
"187 765 OFFCURVE",
"95 688 OFFCURVE",
"95 555 CURVE SMOOTH",
"95 506 LINE",
"25 502 LINE",
"25 404 LINE",
"95 403 LINE",
"95 112 LINE",
"25 91 LINE",
"28 0 LINE",
"263 0 LINE",
"263 625 LINE",
"280 630 OFFCURVE",
"300 632 OFFCURVE",
"317 632 CURVE SMOOTH",
"367 632 OFFCURVE",
"411 613 OFFCURVE",
"411 546 CURVE SMOOTH",
"411 540 OFFCURVE",
"411 531 OFFCURVE",
"409 520 CURVE",
"359 463 OFFCURVE",
"324 439 OFFCURVE",
"324 371 CURVE SMOOTH",
"324 306 OFFCURVE",
"357 269 OFFCURVE",
"437 200 CURVE SMOOTH",
"489 154 OFFCURVE",
"505 141 OFFCURVE",
"505 116 CURVE SMOOTH",
"505 113 OFFCURVE",
"505 110 OFFCURVE",
"504 107 CURVE",
"497 103 OFFCURVE",
"489 102 OFFCURVE",
"480 102 CURVE SMOOTH",
"453 102 OFFCURVE",
"424 113 OFFCURVE",
"403 122 CURVE SMOOTH",
"387 129 OFFCURVE",
"396 125 OFFCURVE",
"335 151 CURVE",
"317 151 LINE",
"312 109 OFFCURVE",
"306 67 OFFCURVE",
"303 15 CURVE",
"355 -4 OFFCURVE",
"409 -16 OFFCURVE",
"455 -16 CURVE SMOOTH"
);
}
);
width = 648;
},
{
associatedMasterId = "DDABD3A5-4A8B-4D55-9B9E-1269DFBEF3A1";
layerId = "77D37A91-EE40-4FA0-BA23-6A3E155F7A2C";
name = "Bold Oct 5 15, 22:53";
paths = (
{
closed = 1;
nodes = (
"630 -16 OFFCURVE",
"729 35 OFFCURVE",
"729 166 CURVE SMOOTH",
"729 249 OFFCURVE",
"690 282 OFFCURVE",
"622 330 CURVE SMOOTH",
"556 377 OFFCURVE",
"514 402 OFFCURVE",
"514 442 CURVE SMOOTH",
"514 462 OFFCURVE",
"525 477 OFFCURVE",
"564 512 CURVE SMOOTH",
"579 525 OFFCURVE",
"598 542 OFFCURVE",
"622 564 CURVE",
"623 569 OFFCURVE",
"623 576 OFFCURVE",
"623 593 CURVE SMOOTH",
"623 713 OFFCURVE",
"542 810 OFFCURVE",
"367 810 CURVE SMOOTH",
"207 810 OFFCURVE",
"100 728 OFFCURVE",
"100 588 CURVE SMOOTH",
"100 535 LINE",
"26 531 LINE",
"26 428 LINE",
"100 427 LINE",
"100 118 LINE",
"25 97 LINE",
"30 0 LINE",
"277 0 LINE",
"277 665 LINE",
"294 667 OFFCURVE",
"315 668 OFFCURVE",
"332 668 CURVE SMOOTH",
"408 668 OFFCURVE",
"453 649 OFFCURVE",
"453 579 CURVE SMOOTH",
"453 571 OFFCURVE",
"453 561 OFFCURVE",
"451 550 CURVE",
"404 492 OFFCURVE",
"361 459 OFFCURVE",
"361 386 CURVE SMOOTH",
"361 311 OFFCURVE",
"405 273 OFFCURVE",
"488 215 CURVE SMOOTH",
"539 179 OFFCURVE",
"572 162 OFFCURVE",
"572 130 CURVE SMOOTH",
"572 125 OFFCURVE",
"571 119 OFFCURVE",
"570 113 CURVE",
"561 111 OFFCURVE",
"550 110 OFFCURVE",
"536 110 CURVE SMOOTH",
"508 110 OFFCURVE",
"476 114 OFFCURVE",
"459 121 CURVE",
"418 181 LINE",
"355 167 LINE",
"350 119 OFFCURVE",
"343 74 OFFCURVE",
"340 15 CURVE",
"395 -4 OFFCURVE",
"454 -16 OFFCURVE",
"511 -16 CURVE SMOOTH"
);
}
);
width = 739;
}
);
unicode = 00DF;
},
{
glyphname = t;
lastChange = "2016-03-12 19:18:26 +0000";
layers = (
{
anchors = (
{
name = bottom;
position = "{223, -5}";
},
{
name = center;
position = "{133, 262}";
},
{
name = top;
position = "{167, 638}";
},
{
name = topright;
position = "{394, 638}";
}
);
hints = (
{
horizontal = 1;
origin = "{0, 22}";
target = "{0, 6}";
},
{
horizontal = 1;
origin = "{0, 13}";
target = "{0, 10}";
},
{
origin = "{0, 19}";
target = "{0, 9}";
},
{
horizontal = 1;
origin = "{0, 15}";
target = down;
type = TopGhost;
}
);
layerId = "DDABD3A5-4A8B-4D55-9B9E-1269DFBEF3A1";
name = Regular;
paths = (
{
closed = 1;
nodes = (
"279 -13 OFFCURVE",
"343 5 OFFCURVE",
"388 26 CURVE",
"376 128 LINE",
"337 122 OFFCURVE",
"309 119 OFFCURVE",
"284 119 CURVE SMOOTH",
"233 119 OFFCURVE",
"218 135 OFFCURVE",
"218 199 CURVE SMOOTH",
"218 405 LINE",
"386 405 LINE",
"386 523 LINE",
"218 523 LINE",
"218 636 LINE",
"160 643 LINE",
"-20 479 LINE",
"-20 406 LINE",
"50 406 LINE",
"50 163 LINE SMOOTH",
"50 44 OFFCURVE",
"105 -13 OFFCURVE",
"222 -13 CURVE SMOOTH"
);
}
);
width = 416;
}
);
leftKerningGroup = t;
rightKerningGroup = t;
unicode = 0074;
},
{
glyphname = tbar;
lastChange = "2016-03-12 19:18:27 +0000";
layers = (
{
hints = (
{
horizontal = 1;
origin = "{0, 22}";
target = "{0, 6}";
},
{
horizontal = 1;
place = "{227.500000, 93.000000}";
},
{
horizontal = 1;
origin = "{0, 13}";
target = "{0, 10}";
},
{
origin = "{0, 19}";
target = "{0, 9}";
},
{
horizontal = 1;
origin = "{0, 15}";
target = down;
type = TopGhost;
}
);
layerId = "DDABD3A5-4A8B-4D55-9B9E-1269DFBEF3A1";
name = Regular;
paths = (
{
closed = 1;
nodes = (
"279 -13 OFFCURVE",
"343 5 OFFCURVE",
"388 26 CURVE",
"376 128 LINE",
"337 122 OFFCURVE",
"309 119 OFFCURVE",
"284 119 CURVE SMOOTH",
"233 119 OFFCURVE",
"218 135 OFFCURVE",
"218 199 CURVE SMOOTH",
"218 405 LINE",
"386 405 LINE",
"386 523 LINE",
"218 523 LINE",
"218 636 LINE",
"160 643 LINE",
"-20 479 LINE",
"-20 406 LINE",
"50 406 LINE",
"50 163 LINE SMOOTH",
"50 44 OFFCURVE",
"105 -13 OFFCURVE",
"222 -13 CURVE SMOOTH"
);
},
{
closed = 1;
nodes = (
"386 326 LINE",
"-20 299 LINE",
"-20 236 LINE",
"386 225 LINE"
);
}
);
width = 416;
}
);
leftKerningGroup = t;
rightKerningGroup = t;
unicode = 0167;
},
{
glyphname = tcaron;
lastChange = "2016-03-12 19:18:28 +0000";
layers = (
{
hints = (
{
horizontal = 1;
origin = "{0, 22}";
target = "{0, 6}";
},
{
horizontal = 1;
origin = "{0, 13}";
target = "{0, 10}";
},
{
horizontal = 1;
origin = "{1, 3}";
target = "{1, 4}";
},
{
horizontal = 1;
origin = "{1, 3}";
target = "{1, 1}";
},
{
origin = "{0, 19}";
target = "{0, 9}";
},
{
horizontal = 1;
origin = "{0, 15}";
target = down;
type = TopGhost;
}
);
layerId = "DDABD3A5-4A8B-4D55-9B9E-1269DFBEF3A1";
name = Regular;
paths = (
{
closed = 1;
nodes = (
"279 -13 OFFCURVE",
"343 5 OFFCURVE",
"388 26 CURVE",
"376 128 LINE",
"337 122 OFFCURVE",
"309 119 OFFCURVE",
"284 119 CURVE SMOOTH",
"233 119 OFFCURVE",
"218 135 OFFCURVE",
"218 199 CURVE SMOOTH",
"218 405 LINE",
"386 405 LINE",
"386 523 LINE",
"218 523 LINE",
"218 636 LINE",
"160 643 LINE",
"-20 479 LINE",
"-20 406 LINE",
"50 406 LINE",
"50 163 LINE SMOOTH",
"50 44 OFFCURVE",
"105 -13 OFFCURVE",
"222 -13 CURVE SMOOTH"
);
},
{
closed = 1;
nodes = (
"423 589 LINE",
"606 724 LINE",
"606 765 LINE",
"433 765 LINE",
"345 589 LINE"
);
}
);
width = 416;
}
);
leftKerningGroup = t;
unicode = 0165;
},
{
glyphname = u;
lastChange = "2016-03-12 19:18:26 +0000";
layers = (
{
anchors = (
{
name = bottom;
position = "{301, 0}";
},
{
name = ogonek;
position = "{567, 10}";
},
{
name = top;
position = "{283, 523}";
},
{
name = topright;
position = "{593, 524}";
}
);
hints = (
{
horizontal = 1;
origin = "{0, 49}";
target = "{0, 30}";
},
{
horizontal = 1;
origin = "{0, 37}";
target = down;
type = TopGhost;
},
{
horizontal = 1;
origin = "{0, 6}";
target = up;
type = BottomGhost;
},
{
origin = "{0, 46}";
target = "{0, 33}";
},
{
origin = "{0, 27}";
target = "{0, 14}";
},
{
horizontal = 1;
origin = "{0, 41}";
target = "{0, 40}";
}
);
layerId = "DDABD3A5-4A8B-4D55-9B9E-1269DFBEF3A1";
name = Regular;
paths = (
{
closed = 1;
nodes = (
"256 -14 OFFCURVE",
"321 7 OFFCURVE",
"375 39 CURVE",
"378 39 LINE",
"383 22 OFFCURVE",
"387 2 OFFCURVE",
"392 -10 CURVE",
"456 -7 OFFCURVE",
"538 5 OFFCURVE",
"595 20 CURVE",
"598 82 LINE",
"558 105 LINE SMOOTH",
"544 114 OFFCURVE",
"541 120 OFFCURVE",
"541 144 CURVE SMOOTH",
"541 472 LINE",
"537 494 OFFCURVE",
"531 514 OFFCURVE",
"524 530 CURVE",
"466 528 OFFCURVE",
"377 510 OFFCURVE",
"314 498 CURVE",
"310 423 LINE",
"354 399 LINE SMOOTH",
"371 389 OFFCURVE",
"373 385 OFFCURVE",
"373 356 CURVE SMOOTH",
"373 138 LINE",
"344 127 OFFCURVE",
"310 121 OFFCURVE",
"280 121 CURVE SMOOTH",
"213 121 OFFCURVE",
"215 149 OFFCURVE",
"215 220 CURVE SMOOTH",
"215 472 LINE",
"211 494 OFFCURVE",
"205 514 OFFCURVE",
"198 530 CURVE",
"141 528 OFFCURVE",
"51 510 OFFCURVE",
"-13 498 CURVE",
"-18 423 LINE",
"27 399 LINE SMOOTH",
"46 389 OFFCURVE",
"48 385 OFFCURVE",
"48 356 CURVE SMOOTH",
"48 177 LINE SMOOTH",
"48 49 OFFCURVE",
"99 -14 OFFCURVE",
"206 -14 CURVE SMOOTH"
);
}
);
width = 612;
}
);
leftKerningGroup = u;
rightKerningGroup = u;
unicode = 0075;
},
{
glyphname = uogonek;
lastChange = "2016-03-12 19:18:26 +0000";
layers = (
{
hints = (
{
horizontal = 1;
origin = "{0, 66}";
target = "{0, 6}";
},
{
horizontal = 1;
origin = "{0, 55}";
target = "{0, 36}";
},
{
horizontal = 1;
origin = "{0, 43}";
target = down;
type = TopGhost;
},
{
origin = "{0, 52}";
target = "{0, 39}";
},
{
origin = "{0, 63}";
target = "{0, 9}";
},
{
origin = "{0, 33}";
target = "{0, 20}";
},
{
horizontal = 1;
origin = "{0, 47}";
target = "{0, 46}";
}
);
layerId = "DDABD3A5-4A8B-4D55-9B9E-1269DFBEF3A1";
name = Regular;
paths = (
{
closed = 1;
nodes = (
"510 -227 OFFCURVE",
"552 -216 OFFCURVE",
"586 -198 CURVE",
"573 -138 LINE",
"558 -142 OFFCURVE",
"545 -145 OFFCURVE",
"525 -145 CURVE SMOOTH",
"469 -145 OFFCURVE",
"439 -123 OFFCURVE",
"439 -74 CURVE SMOOTH",
"439 -60 OFFCURVE",
"442 -48 OFFCURVE",
"444 -40 CURVE",
"475 -19 OFFCURVE",
"525 2 OFFCURVE",
"597 25 CURVE",
"598 82 LINE",
"558 105 LINE SMOOTH",
"544 114 OFFCURVE",
"541 120 OFFCURVE",
"541 144 CURVE SMOOTH",
"541 472 LINE",
"537 498 OFFCURVE",
"531 517 OFFCURVE",
"524 530 CURVE",
"466 528 OFFCURVE",
"377 510 OFFCURVE",
"314 498 CURVE",
"310 423 LINE",
"354 399 LINE SMOOTH",
"371 389 OFFCURVE",
"373 385 OFFCURVE",
"373 356 CURVE SMOOTH",
"373 138 LINE",
"340 127 OFFCURVE",
"306 121 OFFCURVE",
"280 121 CURVE SMOOTH",
"213 121 OFFCURVE",
"215 149 OFFCURVE",
"215 220 CURVE SMOOTH",
"215 472 LINE",
"211 498 OFFCURVE",
"205 517 OFFCURVE",
"198 530 CURVE",
"141 528 OFFCURVE",
"51 510 OFFCURVE",
"-13 498 CURVE",
"-18 423 LINE",
"27 399 LINE SMOOTH",
"46 389 OFFCURVE",
"48 385 OFFCURVE",
"48 356 CURVE SMOOTH",
"48 177 LINE SMOOTH",
"48 49 OFFCURVE",
"99 -14 OFFCURVE",
"206 -14 CURVE SMOOTH",
"256 -14 OFFCURVE",
"321 7 OFFCURVE",
"375 39 CURVE",
"380 39 LINE",
"389 2 LINE",
"348 -25 OFFCURVE",
"321 -73 OFFCURVE",
"321 -120 CURVE SMOOTH",
"321 -198 OFFCURVE",
"398 -227 OFFCURVE",
"466 -227 CURVE SMOOTH"
);
}
);
width = 612;
}
);
leftKerningGroup = u;
rightKerningGroup = u;
unicode = 0173;
},
{
glyphname = v;
lastChange = "2016-03-12 19:18:26 +0000";
layers = (
{
anchors = (
{
name = bottom;
position = "{244, 0}";
},
{
name = top;
position = "{266, 524}";
}
);
hints = (
{
horizontal = 1;
origin = "{0, 19}";
target = up;
type = BottomGhost;
},
{
horizontal = 1;
origin = "{0, 13}";
target = "{0, 10}";
},
{
horizontal = 1;
origin = "{0, 13}";
target = "{0, 11}";
},
{
horizontal = 1;
origin = "{0, 13}";
target = "{0, 14}";
},
{
origin = "{0, 14}";
target = "{0, 1}";
},
{
horizontal = 1;
origin = "{0, 0}";
target = "{0, 9}";
}
);
layerId = "DDABD3A5-4A8B-4D55-9B9E-1269DFBEF3A1";
name = Regular;
paths = (
{
closed = 1;
nodes = (
"312 -2 LINE",
"510 442 LINE",
"500 523 LINE",
"310 523 LINE",
"301 444 LINE",
"348 424 LINE",
"357 421 OFFCURVE",
"359 413 OFFCURVE",
"355 403 CURVE SMOOTH",
"267 166 LINE",
"176 424 LINE",
"234 438 LINE",
"224 523 LINE",
"-28 523 LINE",
"-33 465 LINE",
"-16 443 LINE SMOOTH",
"-1 424 OFFCURVE",
"0 422 OFFCURVE",
"14 386 CURVE SMOOTH",
"168 -13 LINE"
);
}
);
width = 533;
}
);
leftKerningGroup = v;
rightKerningGroup = v;
unicode = 0076;
},
{
glyphname = w;
lastChange = "2016-03-12 19:18:26 +0000";
layers = (
{
anchors = (
{
name = bottom;
position = "{397, 0}";
},
{
name = top;
position = "{414, 524}";
}
);
hints = (
{
horizontal = 1;
origin = "{0, 0}";
target = down;
type = TopGhost;
},
{
horizontal = 1;
origin = "{0, 13}";
target = down;
type = TopGhost;
},
{
horizontal = 1;
origin = "{0, 19}";
target = "{0, 20}";
},
{
horizontal = 1;
origin = "{0, 19}";
target = "{0, 17}";
},
{
horizontal = 1;
origin = "{0, 19}";
target = "{0, 16}";
},
{
horizontal = 1;
origin = "{0, 1}";
target = "{0, 14}";
},
{
horizontal = 1;
origin = "{0, 3}";
target = "{0, 12}";
}
);
layerId = "DDABD3A5-4A8B-4D55-9B9E-1269DFBEF3A1";
name = Regular;
paths = (
{
closed = 1;
nodes = (
"299 -5 LINE",
"390 262 LINE",
"473 -16 LINE",
"617 -5 LINE",
"789 445 LINE",
"779 523 LINE",
"589 523 LINE",
"579 444 LINE",
"627 424 LINE",
"636 421 OFFCURVE",
"637 413 OFFCURVE",
"634 403 CURVE SMOOTH",
"570 173 LINE",
"456 529 LINE",
"353 515 LINE",
"254 182 LINE",
"186 425 LINE",
"241 438 LINE",
"231 523 LINE",
"-22 523 LINE",
"-27 465 LINE",
"-10 443 LINE SMOOTH",
"5 424 OFFCURVE",
"6 422 OFFCURVE",
"20 386 CURVE",
"155 -16 LINE"
);
}
);
width = 812;
}
);
leftKerningGroup = v;
rightKerningGroup = v;
unicode = 0077;
},
{
glyphname = x;
lastChange = "2016-03-12 19:18:26 +0000";
layers = (
{
anchors = (
{
name = bottom;
position = "{319, 0}";
},
{
name = top;
position = "{329, 523}";
}
);
hints = (
{
horizontal = 1;
origin = "{0, 35}";
target = "{0, 11}";
},
{
horizontal = 1;
origin = "{0, 28}";
target = "{0, 29}";
},
{
horizontal = 1;
origin = "{0, 35}";
target = "{0, 1}";
},
{
horizontal = 1;
origin = "{0, 35}";
target = "{0, 7}";
},
{
horizontal = 1;
origin = "{0, 28}";
target = "{0, 26}";
},
{
horizontal = 1;
origin = "{0, 28}";
target = "{0, 19}";
},
{
horizontal = 1;
origin = "{0, 28}";
target = "{0, 32}";
},
{
place = "{26.500000, 206.000000}";
},
{
place = "{351.500000, 201.000000}";
},
{
origin = "{0, 34}";
target = "{0, 11}";
}
);
layerId = "DDABD3A5-4A8B-4D55-9B9E-1269DFBEF3A1";
name = Regular;
paths = (
{
closed = 1;
nodes = (
"230 0 LINE",
"235 67 LINE",
"201 84 LINE",
"194 88 OFFCURVE",
"193 96 OFFCURVE",
"199 105 CURVE",
"255 180 LINE",
"328 85 LINE",
"279 73 LINE",
"284 0 LINE",
"560 0 LINE",
"565 53 LINE",
"558 60 OFFCURVE",
"553 66 OFFCURVE",
"535 89 CURVE SMOOTH",
"401 263 LINE",
"555 447 LINE",
"550 523 LINE",
"354 523 LINE",
"349 456 LINE",
"383 439 LINE",
"390 435 OFFCURVE",
"391 427 OFFCURVE",
"385 418 CURVE SMOOTH",
"336 348 LINE",
"267 437 LINE",
"307 446 LINE",
"302 523 LINE",
"34 523 LINE",
"29 467 LINE",
"45 453 OFFCURVE",
"47 452 OFFCURVE",
"58 437 CURVE SMOOTH",
"190 265 LINE",
"25 75 LINE",
"28 0 LINE"
);
}
);
width = 580;
}
);
leftKerningGroup = x;
rightKerningGroup = x;
unicode = 0078;
},
{
glyphname = y;
lastChange = "2016-03-12 19:18:26 +0000";
layers = (
{
anchors = (
{
name = bottom;
position = "{243, -215}";
},
{
name = top;
position = "{271, 524}";
}
);
hints = (
{
horizontal = 1;
origin = "{0, 15}";
target = "{0, 12}";
},
{
horizontal = 1;
origin = "{0, 15}";
target = "{0, 13}";
},
{
horizontal = 1;
origin = "{0, 15}";
target = "{0, 16}";
},
{
origin = "{0, 16}";
target = "{0, 3}";
},
{
horizontal = 1;
origin = "{0, 22}";
target = down;
type = TopGhost;
}
);
layerId = "DDABD3A5-4A8B-4D55-9B9E-1269DFBEF3A1";
name = Regular;
paths = (
{
closed = 1;
nodes = (
"239 -139 OFFCURVE",
"291 -41 OFFCURVE",
"384 163 CURVE SMOOTH",
"512 442 LINE",
"503 523 LINE",
"313 523 LINE",
"304 444 LINE",
"351 424 LINE",
"359 421 OFFCURVE",
"361 413 OFFCURVE",
"357 403 CURVE SMOOTH",
"265 173 LINE",
"183 424 LINE",
"241 438 LINE",
"231 523 LINE",
"-25 523 LINE",
"-30 465 LINE",
"-13 443 LINE SMOOTH",
"2 424 OFFCURVE",
"3 422 OFFCURVE",
"17 386 CURVE SMOOTH",
"162 4 LINE",
"51 -105 LINE",
"85 -151 OFFCURVE",
"131 -197 OFFCURVE",
"179 -229 CURVE"
);
}
);
width = 537;
}
);
leftKerningGroup = y;
rightKerningGroup = y;
unicode = 0079;
},
{
glyphname = z;
lastChange = "2016-03-12 19:18:26 +0000";
layers = (
{
anchors = (
{
name = bottom;
position = "{267, 0}";
},
{
name = top;
position = "{267, 524}";
}
);
hints = (
{
horizontal = 1;
place = "{403.500000, 119.500000}";
},
{
origin = "{0, 16}";
target = "{0, 3}";
},
{
horizontal = 1;
origin = "{0, 4}";
target = up;
type = BottomGhost;
},
{
horizontal = 1;
origin = "{0, 17}";
target = "{0, 16}";
},
{
horizontal = 1;
origin = "{0, 17}";
target = "{0, 5}";
},
{
horizontal = 1;
origin = "{0, 13}";
target = down;
type = TopGhost;
}
);
layerId = "DDABD3A5-4A8B-4D55-9B9E-1269DFBEF3A1";
name = Regular;
paths = (
{
closed = 1;
nodes = (
"473 0 LINE",
"481 60 OFFCURVE",
"488 121 OFFCURVE",
"492 180 CURVE",
"423 194 LINE",
"364 124 LINE",
"238 115 LINE",
"478 405 LINE",
"464 523 LINE",
"61 523 LINE",
"53 461 OFFCURVE",
"49 403 OFFCURVE",
"45 342 CURVE",
"112 331 LINE",
"163 399 LINE",
"284 408 LINE",
"25 103 LINE",
"34 0 LINE"
);
}
);
width = 512;
}
);
leftKerningGroup = z;
rightKerningGroup = z;
unicode = 007A;
},
{
glyphname = fi;
lastChange = "2016-03-12 19:18:28 +0000";
layers = (
{
anchors = (
{
name = caret_1;
position = "{591, 0}";
}
);
hints = (
{
horizontal = 1;
origin = "{0, 39}";
target = "{0, 37}";
},
{
horizontal = 1;
place = "{403.500000, 121.500000}";
},
{
horizontal = 1;
origin = "{0, 29}";
target = "{0, 22}";
},
{
horizontal = 1;
origin = "{0, 26}";
target = up;
type = BottomGhost;
},
{
horizontal = 1;
origin = "{0, 39}";
target = "{0, 1}";
},
{
horizontal = 1;
place = "{406.500000, 100.500000}";
},
{
origin = "{0, 37}";
target = "{0, 5}";
},
{
origin = "{0, 11}";
target = "{0, 19}";
},
{
horizontal = 1;
origin = "{1, 3}";
target = "{1, 1}";
},
{
horizontal = 1;
origin = "{0, 25}";
target = up;
type = BottomGhost;
}
);
layerId = "DDABD3A5-4A8B-4D55-9B9E-1269DFBEF3A1";
name = Regular;
paths = (
{
closed = 1;
nodes = (
"342 0 LINE",
"345 69 LINE",
"283 103 LINE SMOOTH",
"265 114 OFFCURVE",
"263 118 OFFCURVE",
"263 146 CURVE SMOOTH",
"263 404 LINE",
"476 403 LINE",
"502 389 OFFCURVE",
"504 385 OFFCURVE",
"504 356 CURVE SMOOTH",
"504 113 LINE",
"433 92 LINE",
"438 0 LINE",
"738 0 LINE",
"741 75 LINE",
"692 103 LINE SMOOTH",
"674 114 OFFCURVE",
"672 118 OFFCURVE",
"672 146 CURVE SMOOTH",
"672 525 LINE",
"263 518 LINE",
"263 636 LINE",
"307 638 OFFCURVE",
"347 632 OFFCURVE",
"405 616 CURVE",
"428 752 LINE",
"377 761 OFFCURVE",
"338 765 OFFCURVE",
"293 765 CURVE SMOOTH",
"169 765 OFFCURVE",
"95 694 OFFCURVE",
"95 574 CURVE SMOOTH",
"95 509 LINE",
"25 505 LINE",
"25 407 LINE",
"95 406 LINE",
"95 113 LINE",
"25 92 LINE",
"28 0 LINE"
);
},
{
closed = 1;
nodes = (
"688 623 LINE",
"646 775 LINE",
"476 730 LINE",
"518 577 LINE"
);
}
);
width = 756;
},
{
anchors = (
{
name = bottom;
position = "{197, 0}";
},
{
name = top;
position = "{217, 551}";
}
);
associatedMasterId = "DDABD3A5-4A8B-4D55-9B9E-1269DFBEF3A1";
layerId = "99006E39-C4BF-4949-A437-F328B33DB1A5";
name = "Bold Oct 5 15, 18:42";
paths = (
{
closed = 1;
nodes = (
"775 0 LINE",
"779 80 LINE",
"728 108 LINE SMOOTH",
"709 119 OFFCURVE",
"707 123 OFFCURVE",
"707 153 CURVE SMOOTH",
"707 552 LINE",
"277 545 LINE",
"277 669 LINE",
"322 671 OFFCURVE",
"364 665 OFFCURVE",
"425 649 CURVE",
"450 792 LINE",
"397 802 OFFCURVE",
"355 806 OFFCURVE",
"308 806 CURVE SMOOTH",
"178 806 OFFCURVE",
"100 731 OFFCURVE",
"100 605 CURVE SMOOTH",
"100 535 LINE",
"26 531 LINE",
"26 428 LINE",
"100 427 LINE",
"100 118 LINE",
"25 97 LINE",
"30 0 LINE"
);
},
{
closed = 1;
nodes = (
"303 112 LINE SMOOTH",
"282 115 OFFCURVE",
"277 122 OFFCURVE",
"277 147 CURVE SMOOTH",
"277 424 LINE",
"501 423 LINE",
"528 409 OFFCURVE",
"530 405 OFFCURVE",
"530 374 CURVE SMOOTH",
"530 118 LINE",
"405 97 LINE"
);
},
{
closed = 1;
nodes = (
"723 672 LINE",
"679 833 LINE",
"500 785 LINE",
"544 624 LINE"
);
}
);
width = 794;
}
);
leftMetricsKey = f;
rightMetricsKey = i;
unicode = FB01;
},
{
glyphname = fl;
lastChange = "2016-03-12 19:18:26 +0000";
layers = (
{
anchors = (
{
name = caret_1;
position = "{591, 0}";
}
);
hints = (
{
horizontal = 1;
origin = "{0, 48}";
target = "{0, 46}";
},
{
horizontal = 1;
place = "{403.000000, 122.000000}";
},
{
horizontal = 1;
origin = "{0, 10}";
target = "{0, 35}";
},
{
horizontal = 1;
origin = "{0, 48}";
target = "{0, 1}";
},
{
horizontal = 1;
place = "{406.500000, 100.500000}";
},
{
origin = "{0, 46}";
target = "{0, 5}";
},
{
origin = "{0, 17}";
target = "{0, 25}";
}
);
layerId = "DDABD3A5-4A8B-4D55-9B9E-1269DFBEF3A1";
name = Regular;
paths = (
{
closed = 1;
nodes = (
"342 0 LINE",
"345 69 LINE",
"283 103 LINE SMOOTH",
"265 114 OFFCURVE",
"263 118 OFFCURVE",
"263 146 CURVE SMOOTH",
"263 404 LINE",
"377 402 LINE",
"377 525 LINE",
"263 518 LINE",
"263 637 LINE",
"285 638 OFFCURVE",
"309 637 OFFCURVE",
"345 631 CURVE SMOOTH",
"414 619 OFFCURVE",
"453 603 OFFCURVE",
"500 594 CURVE",
"500 113 LINE",
"428 92 LINE",
"433 0 LINE",
"733 0 LINE",
"737 75 LINE",
"688 103 LINE SMOOTH",
"669 114 OFFCURVE",
"667 118 OFFCURVE",
"667 146 CURVE SMOOTH",
"667 713 LINE",
"664 732 OFFCURVE",
"659 751 OFFCURVE",
"654 765 CURVE",
"619 764 OFFCURVE",
"569 756 OFFCURVE",
"522 748 CURVE",
"449 757 OFFCURVE",
"377 766 OFFCURVE",
"316 766 CURVE SMOOTH",
"267 766 OFFCURVE",
"223 760 OFFCURVE",
"191 745 CURVE SMOOTH",
"127 716 OFFCURVE",
"95 653 OFFCURVE",
"95 575 CURVE SMOOTH",
"95 509 LINE",
"25 505 LINE",
"25 407 LINE",
"95 406 LINE",
"95 113 LINE",
"25 92 LINE",
"28 0 LINE"
);
}
);
width = 745;
}
);
leftMetricsKey = f;
rightMetricsKey = l;
unicode = FB02;
},
{
glyphname = ordfeminine;
lastChange = "2016-03-12 19:18:27 +0000";
layers = (
{
hints = (
{
horizontal = 1;
origin = "{1, 3}";
target = "{1, 2}";
},
{
horizontal = 1;
origin = "{0, 37}";
target = "{2, 15}";
},
{
horizontal = 1;
origin = "{2, 8}";
target = "{0, 31}";
},
{
horizontal = 1;
origin = "{0, 17}";
target = "{0, 28}";
},
{
origin = "{0, 34}";
target = "{2, 2}";
},
{
place = "{227.500000, 88.500000}";
}
);
layerId = "DDABD3A5-4A8B-4D55-9B9E-1269DFBEF3A1";
name = Regular;
paths = (
{
closed = 1;
nodes = (
"167 369 OFFCURVE",
"206 382 OFFCURVE",
"234 403 CURVE",
"238 389 OFFCURVE",
"241 379 OFFCURVE",
"243 370 CURVE",
"267 372 OFFCURVE",
"308 379 OFFCURVE",
"348 389 CURVE",
"351 425 LINE",
"328 439 LINE SMOOTH",
"319 445 OFFCURVE",
"316 446 OFFCURVE",
"316 461 CURVE SMOOTH",
"316 583 LINE SMOOTH",
"316 656 OFFCURVE",
"284 687 OFFCURVE",
"205 687 CURVE SMOOTH",
"157 687 OFFCURVE",
"101 678 OFFCURVE",
"58 662 CURVE",
"60 638 OFFCURVE",
"65 604 OFFCURVE",
"72 566 CURVE",
"115 564 LINE",
"140 610 LINE",
"149 611 OFFCURVE",
"160 611 OFFCURVE",
"171 611 CURVE SMOOTH",
"219 611 OFFCURVE",
"227 602 OFFCURVE",
"227 548 CURVE",
"112 546 OFFCURVE",
"46 508 OFFCURVE",
"46 449 CURVE SMOOTH",
"46 401 OFFCURVE",
"80 369 OFFCURVE",
"134 369 CURVE SMOOTH"
);
},
{
closed = 1;
nodes = (
"354 264 LINE",
"354 312 LINE",
"43 312 LINE",
"43 264 LINE"
);
},
{
closed = 1;
nodes = (
"149 435 OFFCURVE",
"137 448 OFFCURVE",
"137 471 CURVE SMOOTH",
"137 474 OFFCURVE",
"138 481 OFFCURVE",
"140 485 CURVE",
"153 491 OFFCURVE",
"186 495 OFFCURVE",
"209 495 CURVE SMOOTH",
"215 495 OFFCURVE",
"219 495 OFFCURVE",
"227 495 CURVE",
"228 451 LINE",
"209 442 OFFCURVE",
"188 435 OFFCURVE",
"171 435 CURVE SMOOTH"
);
}
);
width = 397;
}
);
unicode = 00AA;
},
{
glyphname = ordmasculine;
lastChange = "2016-03-12 19:18:27 +0000";
layers = (
{
hints = (
{
horizontal = 1;
origin = "{1, 3}";
target = "{1, 2}";
},
{
horizontal = 1;
origin = "{0, 11}";
target = "{2, 17}";
},
{
horizontal = 1;
origin = "{0, 5}";
target = "{2, 8}";
},
{
origin = "{0, 8}";
target = "{2, 2}";
},
{
origin = "{2, 11}";
target = "{0, 2}";
}
);
layerId = "DDABD3A5-4A8B-4D55-9B9E-1269DFBEF3A1";
name = Regular;
paths = (
{
closed = 1;
nodes = (
"292 369 OFFCURVE",
"350 430 OFFCURVE",
"350 532 CURVE SMOOTH",
"350 634 OFFCURVE",
"301 687 OFFCURVE",
"201 687 CURVE SMOOTH",
"106 687 OFFCURVE",
"48 624 OFFCURVE",
"48 523 CURVE SMOOTH",
"48 420 OFFCURVE",
"95 369 OFFCURVE",
"195 369 CURVE SMOOTH"
);
},
{
closed = 1;
nodes = (
"355 264 LINE",
"355 312 LINE",
"44 312 LINE",
"44 264 LINE"
);
},
{
closed = 1;
nodes = (
"166 438 OFFCURVE",
"145 472 OFFCURVE",
"145 540 CURVE SMOOTH",
"145 571 OFFCURVE",
"149 600 OFFCURVE",
"153 610 CURVE",
"167 614 OFFCURVE",
"178 617 OFFCURVE",
"192 617 CURVE SMOOTH",
"231 617 OFFCURVE",
"251 584 OFFCURVE",
"251 520 CURVE SMOOTH",
"251 496 OFFCURVE",
"248 464 OFFCURVE",
"243 446 CURVE",
"229 441 OFFCURVE",
"219 438 OFFCURVE",
"205 438 CURVE SMOOTH"
);
}
);
width = 398;
}
);
unicode = 00BA;
},
{
glyphname = pi;
lastChange = "2016-03-12 19:18:26 +0000";
layers = (
{
hints = (
{
horizontal = 1;
origin = "{0, 30}";
target = up;
type = BottomGhost;
},
{
horizontal = 1;
origin = "{0, 28}";
target = "{0, 13}";
},
{
origin = "{0, 16}";
target = "{0, 25}";
},
{
origin = "{0, 37}";
target = "{0, 6}";
},
{
horizontal = 1;
origin = "{0, 19}";
target = up;
type = BottomGhost;
},
{
horizontal = 1;
origin = "{0, 2}";
target = "{0, 3}";
}
);
layerId = "DDABD3A5-4A8B-4D55-9B9E-1269DFBEF3A1";
name = Regular;
paths = (
{
closed = 1;
nodes = (
"702 -16 OFFCURVE",
"739 -10 OFFCURVE",
"777 1 CURVE",
"791 98 LINE",
"741 98 OFFCURVE",
"722 107 OFFCURVE",
"722 147 CURVE SMOOTH",
"722 157 OFFCURVE",
"723 169 OFFCURVE",
"725 181 CURVE SMOOTH",
"761 433 LINE",
"839 433 LINE",
"858 566 LINE",
"269 566 LINE SMOOTH",
"111 564 OFFCURVE",
"35 494 OFFCURVE",
"35 351 CURVE SMOOTH",
"35 334 OFFCURVE",
"35 318 OFFCURVE",
"37 300 CURVE",
"84 304 OFFCURVE",
"132 313 OFFCURVE",
"179 324 CURVE",
"178 338 OFFCURVE",
"177 352 OFFCURVE",
"177 365 CURVE SMOOTH",
"177 388 OFFCURVE",
"179 411 OFFCURVE",
"183 433 CURVE",
"260 433 LINE",
"189 0 LINE",
"377 0 LINE",
"429 433 LINE",
"587 433 LINE",
"546 134 LINE SMOOTH",
"544 122 OFFCURVE",
"543 110 OFFCURVE",
"543 99 CURVE SMOOTH",
"543 15 OFFCURVE",
"596 -16 OFFCURVE",
"670 -16 CURVE SMOOTH"
);
}
);
width = 902;
}
);
unicode = 03C0;
},
{
color = 3;
glyphname = "alef-hb";
lastChange = "2016-03-12 19:18:26 +0000";
layers = (
{
anchors = (
{
name = bottom;
position = "{300, 0}";
},
{
name = bottomleft;
position = "{18, 0}";
},
{
name = center;
position = "{277, 86}";
},
{
name = top;
position = "{336, 557}";
},
{
name = topleft;
position = "{27, 557}";
}
);
hints = (
{
horizontal = 1;
origin = "{0, 43}";
target = up;
type = BottomGhost;
},
{
horizontal = 1;
origin = "{0, 39}";
target = up;
type = BottomGhost;
},
{
origin = "{0, 24}";
target = "{0, 7}";
},
{
origin = "{0, 38}";
target = "{0, 42}";
},
{
horizontal = 1;
origin = "{0, 27}";
target = down;
type = TopGhost;
}
);
layerId = "DDABD3A5-4A8B-4D55-9B9E-1269DFBEF3A1";
name = Regular;
paths = (
{
closed = 1;
nodes = (
"510 -11 LINE",
"530 33 OFFCURVE",
"549 81 OFFCURVE",
"566 131 CURVE",
"499 199 LINE",
"541 296 OFFCURVE",
"576 388 OFFCURVE",
"576 432 CURVE SMOOTH",
"576 481 OFFCURVE",
"553 518 OFFCURVE",
"495 550 CURVE SMOOTH",
"479 559 OFFCURVE",
"462 569 OFFCURVE",
"446 577 CURVE",
"417 577 LINE",
"399 553 OFFCURVE",
"352 466 OFFCURVE",
"350 451 CURVE",
"415 408 LINE SMOOTH",
"430 398 OFFCURVE",
"435 393 OFFCURVE",
"435 382 CURVE SMOOTH",
"435 370 OFFCURVE",
"426 332 OFFCURVE",
"415 287 CURVE",
"322 383 OFFCURVE",
"227 483 OFFCURVE",
"137 577 CURVE",
"96 571 LINE",
"78 543 OFFCURVE",
"61 505 OFFCURVE",
"38 444 CURVE",
"59 415 LINE SMOOTH",
"81 385 OFFCURVE",
"81 380 OFFCURVE",
"74 328 CURVE SMOOTH",
"63 248 OFFCURVE",
"55 164 OFFCURVE",
"49 50 CURVE",
"49 -7 LINE",
"95 -7 LINE",
"201 10 LINE",
"194 289 LINE",
"472 -11 LINE"
);
}
);
width = 614;
},
{
anchors = (
{
name = bottom;
position = "{310, 0}";
},
{
name = bottomleft;
position = "{28, 0}";
},
{
name = center;
position = "{360, 371}";
},
{
name = top;
position = "{346, 557}";
},
{
name = topleft;
position = "{27, 557}";
}
);
associatedMasterId = "DDABD3A5-4A8B-4D55-9B9E-1269DFBEF3A1";
hints = (
{
horizontal = 1;
place = "{-8.000000, 52.000000}";
},
{
horizontal = 1;
place = "{587.000000, -20.000000}";
target = down;
type = TopGhost;
},
{
place = "{80.000000, 83.000000}";
},
{
place = "{526.000000, 79.000000}";
}
);
layerId = "89BD06C5-E1A0-4F9E-B563-9E36BAF32BD8";
name = "Regular Oct 3 15, 00:49";
paths = (
{
closed = 1;
nodes = (
"525 -11 LINE",
"545 32 OFFCURVE",
"562 77 OFFCURVE",
"578 122 CURVE",
"442 261 OFFCURVE",
"286 425 OFFCURVE",
"140 577 CURVE",
"100 571 LINE",
"82 542 OFFCURVE",
"66 507 OFFCURVE",
"45 452 CURVE",
"64 426 LINE SMOOTH",
"89 392 OFFCURVE",
"87 385 OFFCURVE",
"81 339 CURVE SMOOTH",
"68 245 OFFCURVE",
"61 163 OFFCURVE",
"53 41 CURVE",
"53 -7 LINE",
"95 -7 LINE",
"200 10 LINE",
"195 306 LINE",
"488 -11 LINE"
);
},
{
closed = 1;
nodes = (
"523 227 OFFCURVE",
"590 378 OFFCURVE",
"590 437 CURVE SMOOTH",
"590 483 OFFCURVE",
"566 516 OFFCURVE",
"507 550 CURVE SMOOTH",
"461 577 LINE",
"432 577 LINE",
"413 550 OFFCURVE",
"378 486 OFFCURVE",
"369 462 CURVE",
"432 421 LINE SMOOTH",
"450 409 OFFCURVE",
"456 403 OFFCURVE",
"456 390 CURVE SMOOTH",
"456 374 OFFCURVE",
"420 234 OFFCURVE",
"397 148 CURVE",
"468 102 LINE"
);
}
);
width = 628;
},
{
anchors = (
{
name = bottom;
position = "{307, 0}";
},
{
name = bottomleft;
position = "{25, 0}";
},
{
name = center;
position = "{357, 371}";
},
{
name = top;
position = "{343, 557}";
},
{
name = topleft;
position = "{24, 557}";
}
);
associatedMasterId = "DDABD3A5-4A8B-4D55-9B9E-1269DFBEF3A1";
hints = (
{
horizontal = 1;
place = "{-8.000000, 52.000000}";
},
{
horizontal = 1;
place = "{587.000000, -20.000000}";
target = down;
type = TopGhost;
},
{
place = "{80.000000, 83.000000}";
},
{
place = "{526.000000, 79.000000}";
}
);
layerId = "51B8F4BD-F52C-4CD9-8BA2-C9DF5A637359";
name = "Bold Oct 3 15, 22:35";
paths = (
{
closed = 1;
nodes = (
"515 -14 LINE",
"536 30 OFFCURVE",
"555 77 OFFCURVE",
"572 128 CURVE",
"494 207 LINE",
"436 266 LINE",
"340 365 OFFCURVE",
"238 479 OFFCURVE",
"144 577 CURVE",
"103 571 LINE",
"85 543 OFFCURVE",
"68 505 OFFCURVE",
"45 444 CURVE",
"66 415 LINE SMOOTH",
"88 385 OFFCURVE",
"89 377 OFFCURVE",
"83 328 CURVE SMOOTH",
"73 248 OFFCURVE",
"64 107 OFFCURVE",
"61 50 CURVE",
"61 -7 LINE",
"102 -7 LINE",
"212 10 LINE",
"206 283 LINE",
"482 -14 LINE"
);
},
{
closed = 1;
nodes = (
"543 284 OFFCURVE",
"583 385 OFFCURVE",
"583 432 CURVE SMOOTH",
"583 481 OFFCURVE",
"557 516 OFFCURVE",
"500 549 CURVE SMOOTH",
"453 577 LINE",
"424 577 LINE",
"406 553 OFFCURVE",
"359 466 OFFCURVE",
"357 451 CURVE",
"422 408 LINE SMOOTH",
"437 398 OFFCURVE",
"442 393 OFFCURVE",
"442 382 CURVE SMOOTH",
"442 368 OFFCURVE",
"430 319 OFFCURVE",
"416 264 CURVE",
"498 180 LINE"
);
}
);
width = 625;
}
);
leftKerningGroup = "alef-hb";
rightKerningGroup = "alef-hb";
unicode = 05D0;
},
{
color = 0;
glyphname = "bet-hb";
lastChange = "2016-03-12 22:49:06 +0000";
layers = (
{
anchors = (
{
name = bottom;
position = "{253, 0}";
},
{
name = bottomleft;
position = "{-1, 0}";
},
{
name = center;
position = "{170, 269}";
},
{
name = top;
position = "{257, 557}";
},
{
name = topleft;
position = "{0, 557}";
}
);
hints = (
{
horizontal = 1;
origin = "{0, 30}";
target = "{0, 29}";
},
{
horizontal = 1;
origin = "{0, 20}";
target = "{0, 9}";
},
{
origin = "{0, 28}";
target = "{0, 5}";
},
{
horizontal = 1;
origin = "{0, 13}";
target = down;
type = TopGhost;
},
{
origin = "{0, 14}";
target = "{0, 13}";
}
);
layerId = "DDABD3A5-4A8B-4D55-9B9E-1269DFBEF3A1";
name = Regular;
paths = (
{
closed = 1;
nodes = (
"489 0 LINE",
"498 167 LINE",
"428 167 LINE",
"433 238 OFFCURVE",
"436 298 OFFCURVE",
"436 344 CURVE SMOOTH",
"436 504 OFFCURVE",
"398 552 OFFCURVE",
"269 552 CURVE SMOOTH",
"201 552 LINE SMOOTH",
"174 552 OFFCURVE",
"169 554 OFFCURVE",
"157 568 CURVE SMOOTH",
"139 588 LINE",
"71 576 LINE",
"56 515 OFFCURVE",
"48 456 OFFCURVE",
"44 402 CURVE",
"86 389 OFFCURVE",
"102 385 OFFCURVE",
"115 385 CURVE SMOOTH",
"236 385 LINE SMOOTH",
"301 385 OFFCURVE",
"304 346 OFFCURVE",
"307 288 CURVE SMOOTH",
"308 264 OFFCURVE",
"308 246 OFFCURVE",
"308 237 CURVE SMOOTH",
"308 167 LINE",
"37 167 LINE",
"28 0 LINE"
);
}
);
width = 516;
}
);
leftKerningGroup = "bet-hb";
rightKerningGroup = "bet-hb";
unicode = 05D1;
},
{
color = 0;
glyphname = "gimel-hb";
lastChange = "2016-03-12 19:18:26 +0000";
layers = (
{
anchors = (
{
name = bottom;
position = "{180, 0}";
},
{
name = bottomleft;
position = "{11, 0}";
},
{
name = center;
position = "{86, 280}";
},
{
name = top;
position = "{180, 557}";
},
{
name = topleft;
position = "{36, 557}";
}
);
hints = (
{
horizontal = 1;
origin = "{0, 6}";
target = up;
type = BottomGhost;
},
{
origin = "{0, 3}";
target = "{0, 8}";
},
{
horizontal = 1;
origin = "{0, 6}";
target = up;
type = BottomGhost;
},
{
horizontal = 1;
origin = "{0, 32}";
target = "{0, 29}";
},
{
horizontal = 1;
origin = "{0, 21}";
target = down;
type = TopGhost;
},
{
horizontal = 1;
origin = "{0, 17}";
target = down;
type = TopGhost;
}
);
layerId = "DDABD3A5-4A8B-4D55-9B9E-1269DFBEF3A1";
name = Regular;
paths = (
{
closed = 1;
nodes = (
"45 -18 LINE",
"94 5 OFFCURVE",
"155 35 OFFCURVE",
"211 69 CURVE",
"214 42 OFFCURVE",
"218 16 OFFCURVE",
"222 -11 CURVE",
"250 -11 LINE",
"332 18 LINE",
"326 208 OFFCURVE",
"322 296 OFFCURVE",
"315 374 CURVE SMOOTH",
"307 474 OFFCURVE",
"292 503 OFFCURVE",
"231 534 CURVE SMOOTH",
"205 547 OFFCURVE",
"178 558 OFFCURVE",
"121 580 CURVE",
"95 572 LINE",
"79 530 OFFCURVE",
"58 465 OFFCURVE",
"45 417 CURVE",
"130 377 LINE SMOOTH",
"171 357 OFFCURVE",
"173 353 OFFCURVE",
"184 277 CURVE SMOOTH",
"187 252 OFFCURVE",
"191 227 OFFCURVE",
"194 202 CURVE",
"17 164 LINE",
"13 98 OFFCURVE",
"11 42 OFFCURVE",
"10 -18 CURVE"
);
}
);
width = 365;
}
);
leftKerningGroup = "gimel-hb";
rightKerningGroup = "gimel-hb";
unicode = 05D2;
},
{
color = 0;
glyphname = "dalet-hb";
lastChange = "2016-03-12 22:46:26 +0000";
layers = (
{
anchors = (
{
name = bottom;
position = "{348, 0}";
},
{
name = bottomleft;
position = "{79, 0}";
},
{
name = center;
position = "{166, 259}";
},
{
name = top;
position = "{327, 557}";
},
{
name = topleft;
position = "{-1, 557}";
}
);
hints = (
{
horizontal = 1;
origin = "{0, 20}";
target = up;
type = BottomGhost;
},
{
horizontal = 1;
origin = "{0, 16}";
target = "{0, 5}";
},
{
place = "{274.000000, 134.000000}";
},
{
horizontal = 1;
origin = "{0, 9}";
target = down;
type = TopGhost;
},
{
origin = "{0, 10}";
target = "{0, 9}";
}
);
layerId = "DDABD3A5-4A8B-4D55-9B9E-1269DFBEF3A1";
name = Regular;
paths = (
{
closed = 1;
nodes = (
"308 -12 LINE",
"413 8 LINE",
"403 385 LINE",
"484 385 LINE",
"510 552 LINE",
"175 552 LINE SMOOTH",
"148 552 OFFCURVE",
"143 554 OFFCURVE",
"131 568 CURVE SMOOTH",
"113 588 LINE",
"45 576 LINE",
"31 515 OFFCURVE",
"22 456 OFFCURVE",
"18 402 CURVE",
"60 389 OFFCURVE",
"76 385 OFFCURVE",
"89 385 CURVE SMOOTH",
"274 385 LINE",
"270 252 OFFCURVE",
"268 120 OFFCURVE",
"269 -12 CURVE"
);
}
);
width = 527;
}
);
leftKerningGroup = "dalet-hb";
rightKerningGroup = "dalet-hb";
unicode = 05D3;
},
{
color = 0;
glyphname = "he-hb";
lastChange = "2016-03-12 22:45:26 +0000";
layers = (
{
anchors = (
{
name = bottom;
position = "{293, 0}";
},
{
name = bottomleft;
position = "{9, 0}";
},
{
name = center;
position = "{321, 225}";
},
{
name = top;
position = "{310, 557}";
},
{
name = topleft;
position = "{12, 557}";
}
);
guideLines = (
{
position = "{443, -13}";
},
{
angle = 180;
position = "{559, -208}";
}
);
hints = (
{
horizontal = 1;
origin = "{1, 5}";
target = up;
type = BottomGhost;
},
{
horizontal = 1;
origin = "{0, 19}";
target = "{0, 8}";
},
{
place = "{63.500000, 145.000000}";
},
{
origin = "{0, 23}";
target = "{0, 1}";
},
{
horizontal = 1;
origin = "{0, 12}";
target = down;
type = TopGhost;
},
{
origin = "{0, 13}";
target = "{0, 12}";
},
{
horizontal = 1;
origin = "{1, 2}";
target = down;
type = TopGhost;
}
);
layerId = "DDABD3A5-4A8B-4D55-9B9E-1269DFBEF3A1";
name = Regular;
paths = (
{
closed = 1;
nodes = (
"471 -12 LINE",
"549 8 LINE",
"556 100 OFFCURVE",
"561 251 OFFCURVE",
"560 342 CURVE SMOOTH",
"558 506 OFFCURVE",
"518 552 OFFCURVE",
"382 552 CURVE SMOOTH",
"202 552 LINE SMOOTH",
"175 552 OFFCURVE",
"170 554 OFFCURVE",
"158 568 CURVE SMOOTH",
"140 588 LINE",
"72 576 LINE",
"57 515 OFFCURVE",
"49 456 OFFCURVE",
"45 402 CURVE",
"87 389 OFFCURVE",
"103 385 OFFCURVE",
"116 385 CURVE SMOOTH",
"343 385 LINE SMOOTH",
"403 385 OFFCURVE",
"419 368 OFFCURVE",
"423 301 CURVE SMOOTH",
"428 208 OFFCURVE",
"428 51 OFFCURVE",
"429 -12 CURVE"
);
},
{
closed = 1;
nodes = (
"103 -12 LINE",
"208 8 LINE",
"209 293 LINE",
"168 292 LINE",
"66 273 LINE",
"61 -12 LINE"
);
}
);
width = 614;
}
);
leftKerningGroup = "he-hb";
rightKerningGroup = "he-hb";
unicode = 05D4;
},
{
color = 0;
glyphname = "vav-hb";
lastChange = "2016-03-12 19:18:26 +0000";
layers = (
{
anchors = (
{
name = bottom;
position = "{197, 0}";
},
{
name = bottomleft;
position = "{4, 0}";
},
{
name = center;
position = "{45, 239}";
},
{
name = top;
position = "{178, 557}";
},
{
name = topleft;
position = "{190, 557}";
}
);
hints = (
{
horizontal = 1;
origin = "{0, 19}";
target = up;
type = BottomGhost;
},
{
origin = "{0, 19}";
target = "{0, 1}";
},
{
horizontal = 1;
origin = "{0, 10}";
target = down;
type = TopGhost;
}
);
layerId = "DDABD3A5-4A8B-4D55-9B9E-1269DFBEF3A1";
name = Regular;
paths = (
{
closed = 1;
nodes = (
"174 -13 LINE",
"263 8 LINE",
"271 197 OFFCURVE",
"275 321 OFFCURVE",
"276 366 CURVE SMOOTH",
"277 456 OFFCURVE",
"261 498 OFFCURVE",
"202 529 CURVE SMOOTH",
"179 542 OFFCURVE",
"133 562 OFFCURVE",
"84 581 CURVE",
"55 569 LINE",
"40 531 OFFCURVE",
"27 480 OFFCURVE",
"16 417 CURVE",
"94 380 LINE SMOOTH",
"135 359 OFFCURVE",
"135 359 OFFCURVE",
"135 287 CURVE SMOOTH",
"135 -13 LINE"
);
}
);
width = 324;
}
);
leftKerningGroup = "vav-hb";
rightKerningGroup = "vav-hb";
unicode = 05D5;
},
{
color = 0;
glyphname = "zayin-hb";
lastChange = "2016-03-12 22:48:09 +0000";
layers = (
{
anchors = (
{
name = bottom;
position = "{218, 0}";
},
{
name = bottomleft;
position = "{38, 0}";
},
{
name = center;
position = "{331, 293}";
},
{
name = top;
position = "{204, 557}";
},
{
name = topleft;
position = "{-23, 557}";
}
);
hints = (
{
horizontal = 1;
origin = "{0, 37}";
target = up;
type = BottomGhost;
},
{
horizontal = 1;
origin = "{0, 9}";
target = "{0, 19}";
},
{
origin = "{0, 31}";
target = "{0, 9}";
},
{
horizontal = 1;
origin = "{0, 23}";
target = down;
type = TopGhost;
},
{
origin = "{0, 24}";
target = "{0, 23}";
},
{
origin = "{0, 37}";
target = "{0, 6}";
}
);
layerId = "DDABD3A5-4A8B-4D55-9B9E-1269DFBEF3A1";
name = Regular;
paths = (
{
closed = 1;
nodes = (
"170 -12 LINE",
"218 -5 OFFCURVE",
"263 5 OFFCURVE",
"277 12 CURVE",
"277 38 OFFCURVE",
"280 69 OFFCURVE",
"277 99 CURVE SMOOTH",
"264 203 OFFCURVE",
"234 309 OFFCURVE",
"227 375 CURVE",
"263 378 OFFCURVE",
"299 380 OFFCURVE",
"335 385 CURVE",
"348 448 OFFCURVE",
"360 541 OFFCURVE",
"360 559 CURVE",
"346 559 OFFCURVE",
"250 552 OFFCURVE",
"185 552 CURVE SMOOTH",
"174 552 LINE SMOOTH",
"147 552 OFFCURVE",
"142 554 OFFCURVE",
"130 568 CURVE SMOOTH",
"112 588 LINE",
"44 576 LINE",
"27 524 OFFCURVE",
"17 461 OFFCURVE",
"16 402 CURVE",
"38 392 OFFCURVE",
"67 386 OFFCURVE",
"105 380 CURVE",
"105 351 LINE SMOOTH",
"105 293 OFFCURVE",
"110 225 OFFCURVE",
"124 100 CURVE SMOOTH",
"129 57 OFFCURVE",
"134 12 OFFCURVE",
"138 -12 CURVE"
);
}
);
width = 378;
}
);
leftKerningGroup = "zayin-hb";
rightKerningGroup = "zayin-hb";
unicode = 05D6;
},
{
color = 0;
glyphname = "het-hb";
lastChange = "2016-03-12 22:43:52 +0000";
layers = (
{
anchors = (
{
name = bottom;
position = "{312, 0}";
},
{
name = bottomleft;
position = "{16, 0}";
},
{
name = center;
position = "{314, 239}";
},
{
name = top;
position = "{318, 557}";
},
{
name = topleft;
position = "{23, 557}";
}
);
hints = (
{
horizontal = 1;
origin = "{0, 33}";
target = up;
type = BottomGhost;
},
{
horizontal = 1;
origin = "{0, 8}";
target = "{0, 26}";
},
{
horizontal = 1;
origin = "{0, 23}";
target = up;
type = BottomGhost;
},
{
origin = "{0, 30}";
target = "{0, 4}";
},
{
origin = "{0, 20}";
target = "{0, 26}";
},
{
horizontal = 1;
origin = "{0, 12}";
target = down;
type = TopGhost;
}
);
layerId = "DDABD3A5-4A8B-4D55-9B9E-1269DFBEF3A1";
name = Regular;
paths = (
{
closed = 1;
nodes = (
"469 -13 LINE",
"547 8 LINE",
"553 92 OFFCURVE",
"558 226 OFFCURVE",
"558 318 CURVE SMOOTH",
"558 502 OFFCURVE",
"522 552 OFFCURVE",
"380 552 CURVE SMOOTH",
"240 552 LINE SMOOTH",
"169 552 OFFCURVE",
"166 553 OFFCURVE",
"154 558 CURVE SMOOTH",
"113 574 LINE",
"81 565 LINE",
"54 491 OFFCURVE",
"45 455 OFFCURVE",
"40 417 CURVE",
"62 397 LINE SMOOTH",
"82 378 OFFCURVE",
"83 379 OFFCURVE",
"81 314 CURVE SMOOTH",
"77 198 OFFCURVE",
"74 108 OFFCURVE",
"72 -10 CURVE",
"110 -10 LINE",
"213 8 LINE",
"212 385 LINE",
"343 385 LINE SMOOTH",
"404 385 OFFCURVE",
"420 368 OFFCURVE",
"424 302 CURVE SMOOTH",
"429 209 OFFCURVE",
"428 51 OFFCURVE",
"430 -13 CURVE"
);
}
);
width = 612;
}
);
unicode = 05D7;
},
{
color = 3;
glyphname = "tet-hb";
lastChange = "2016-03-12 22:48:34 +0000";
layers = (
{
anchors = (
{
name = bottom;
position = "{288, 0}";
},
{
name = bottomleft;
position = "{31, 0}";
},
{
name = center;
position = "{301, 297}";
},
{
name = top;
position = "{323, 557}";
},
{
name = topleft;
position = "{19, 557}";
}
);
hints = (
{
horizontal = 1;
origin = "{0, 46}";
target = up;
type = BottomGhost;
},
{
origin = "{0, 22}";
target = "{0, 6}";
},
{
horizontal = 1;
origin = "{0, 35}";
target = down;
type = TopGhost;
},
{
origin = "{0, 43}";
target = "{0, 29}";
}
);
layerId = "DDABD3A5-4A8B-4D55-9B9E-1269DFBEF3A1";
name = Regular;
paths = (
{
closed = 1;
nodes = (
"148 -13 LINE",
"273 2 OFFCURVE",
"404 39 OFFCURVE",
"473 81 CURVE",
"501 143 OFFCURVE",
"540 337 OFFCURVE",
"540 421 CURVE SMOOTH",
"540 501 OFFCURVE",
"510 542 OFFCURVE",
"439 558 CURVE SMOOTH",
"392 569 OFFCURVE",
"358 575 OFFCURVE",
"335 578 CURVE SMOOTH",
"305 578 LINE",
"295 544 OFFCURVE",
"282 492 OFFCURVE",
"271 417 CURVE",
"296 412 OFFCURVE",
"351 402 OFFCURVE",
"382 396 CURVE SMOOTH",
"412 390 OFFCURVE",
"417 380 OFFCURVE",
"417 329 CURVE SMOOTH",
"417 237 OFFCURVE",
"394 209 OFFCURVE",
"314 185 CURVE SMOOTH",
"287 177 OFFCURVE",
"234 168 OFFCURVE",
"200 165 CURVE",
"207 409 LINE SMOOTH",
"209 492 OFFCURVE",
"195 519 OFFCURVE",
"155 548 CURVE SMOOTH",
"133 564 OFFCURVE",
"120 572 OFFCURVE",
"104 579 CURVE",
"76 575 LINE",
"59 547 OFFCURVE",
"38 507 OFFCURVE",
"20 448 CURVE",
"42 421 LINE SMOOTH",
"60 398 OFFCURVE",
"62 394 OFFCURVE",
"65 364 CURVE SMOOTH",
"71 303 OFFCURVE",
"83 160 OFFCURVE",
"99 -13 CURVE"
);
}
);
width = 577;
}
);
leftKerningGroup = "tet-hb";
rightKerningGroup = "tet-hb";
unicode = 05D8;
},
{
color = 0;
glyphname = "yod-hb";
lastChange = "2016-03-12 19:18:27 +0000";
layers = (
{
anchors = (
{
name = bottom;
position = "{139, -4}";
},
{
name = bottomleft;
position = "{-2, -4}";
},
{
name = center;
position = "{-2, 309}";
},
{
name = top;
position = "{137, 553}";
},
{
name = topleft;
position = "{8, 557}";
}
);
hints = (
{
horizontal = 1;
origin = "{0, 25}";
target = "{0, 12}";
},
{
origin = "{0, 16}";
target = "{0, 6}";
},
{
horizontal = 1;
origin = "{0, 12}";
target = down;
type = TopGhost;
},
{
horizontal = 1;
origin = "{0, 25}";
target = up;
type = BottomGhost;
}
);
layerId = "DDABD3A5-4A8B-4D55-9B9E-1269DFBEF3A1";
name = Regular;
paths = (
{
closed = 1;
nodes = (
"196 194 LINE",
"212 233 OFFCURVE",
"235 297 OFFCURVE",
"246 334 CURVE SMOOTH",
"256 362 OFFCURVE",
"262 392 OFFCURVE",
"262 418 CURVE SMOOTH",
"262 470 OFFCURVE",
"239 502 OFFCURVE",
"172 542 CURVE SMOOTH",
"148 556 OFFCURVE",
"123 569 OFFCURVE",
"97 583 CURVE",
"75 576 LINE",
"48 528 OFFCURVE",
"28 486 OFFCURVE",
"10 434 CURVE",
"73 392 LINE SMOOTH",
"101 374 OFFCURVE",
"106 367 OFFCURVE",
"106 355 CURVE SMOOTH",
"106 345 OFFCURVE",
"104 334 OFFCURVE",
"99 318 CURVE SMOOTH",
"64 180 LINE",
"92 169 LINE"
);
}
);
width = 296;
}
);
leftKerningGroup = "yod-hb";
rightKerningGroup = "yod-hb";
unicode = 05D9;
},
{
color = 3;
glyphname = "finalkaf-hb";
lastChange = "2016-03-12 22:49:55 +0000";
layers = (
{
anchors = (
{
name = bottom;
position = "{135, 354}";
},
{
name = bottomleft;
position = "{1, 3}";
},
{
name = center;
position = "{181, 271}";
},
{
name = top;
position = "{245, 559}";
},
{
name = topleft;
position = "{-19, 559}";
}
);
hints = (
{
horizontal = 1;
origin = "{0, 19}";
target = "{0, 8}";
},
{
origin = "{0, 23}";
target = "{0, 1}";
},
{
origin = "{0, 13}";
target = "{0, 12}";
},
{
horizontal = 1;
origin = "{0, 12}";
target = down;
type = TopGhost;
},
{
horizontal = 1;
origin = "{0, 24}";
target = up;
type = BottomGhost;
}
);
layerId = "DDABD3A5-4A8B-4D55-9B9E-1269DFBEF3A1";
name = Regular;
paths = (
{
closed = 1;
nodes = (
"343 -147 LINE",
"421 -127 LINE",
"429 33 OFFCURVE",
"433 233 OFFCURVE",
"431 361 CURVE SMOOTH",
"429 517 OFFCURVE",
"396 552 OFFCURVE",
"246 552 CURVE SMOOTH",
"189 552 LINE SMOOTH",
"162 552 OFFCURVE",
"157 554 OFFCURVE",
"145 568 CURVE SMOOTH",
"127 588 LINE",
"59 576 LINE",
"44 515 OFFCURVE",
"36 456 OFFCURVE",
"32 402 CURVE",
"74 389 OFFCURVE",
"90 385 OFFCURVE",
"103 385 CURVE SMOOTH",
"237 385 LINE SMOOTH",
"291 385 OFFCURVE",
"299 374 OFFCURVE",
"299 289 CURVE SMOOTH",
"300 -147 LINE"
);
}
);
width = 484;
}
);
leftKerningGroup = "finalkaf-hb";
rightKerningGroup = "finalkaf-hb";
unicode = 05DA;
},
{
color = 3;
glyphname = "kaf-hb";
lastChange = "2016-03-12 22:49:49 +0000";
layers = (
{
anchors = (
{
name = bottom;
position = "{237, 0}";
},
{
name = bottomleft;
position = "{14, 0}";
},
{
name = center;
position = "{186, 271}";
},
{
name = top;
position = "{267, 557}";
},
{
name = topleft;
position = "{19, 557}";
}
);
hints = (
{
horizontal = 1;
origin = "{0, 30}";
target = "{0, 29}";
},
{
horizontal = 1;
origin = "{0, 21}";
target = "{0, 10}";
},
{
origin = "{0, 28}";
target = "{0, 6}";
},
{
origin = "{0, 15}";
target = "{0, 14}";
},
{
horizontal = 1;
origin = "{0, 14}";
target = down;
type = TopGhost;
}
);
layerId = "DDABD3A5-4A8B-4D55-9B9E-1269DFBEF3A1";
name = Regular;
paths = (
{
closed = 1;
nodes = (
"435 0 LINE",
"440 33 OFFCURVE",
"444 68 OFFCURVE",
"447 102 CURVE SMOOTH",
"453 159 OFFCURVE",
"456 232 OFFCURVE",
"456 302 CURVE SMOOTH",
"456 464 OFFCURVE",
"437 552 OFFCURVE",
"294 552 CURVE SMOOTH",
"204 552 LINE SMOOTH",
"177 552 OFFCURVE",
"172 554 OFFCURVE",
"160 568 CURVE SMOOTH",
"142 588 LINE",
"74 576 LINE",
"59 515 OFFCURVE",
"51 456 OFFCURVE",
"47 402 CURVE",
"89 389 OFFCURVE",
"105 385 OFFCURVE",
"118 385 CURVE SMOOTH",
"233 385 LINE SMOOTH",
"302 385 OFFCURVE",
"320 369 OFFCURVE",
"325 300 CURVE SMOOTH",
"329 236 OFFCURVE",
"331 195 OFFCURVE",
"331 167 CURVE",
"42 167 LINE",
"27 0 LINE"
);
}
);
width = 504;
}
);
leftKerningGroup = "kaf-hb";
rightKerningGroup = "kaf-hb";
unicode = 05DB;
},
{
color = 0;
glyphname = "lamed-hb";
lastChange = "2016-03-12 19:18:27 +0000";
layers = (
{
anchors = (
{
name = bottom;
position = "{145, -9}";
},
{
name = bottomleft;
position = "{27, 0}";
},
{
name = center;
position = "{135, 303}";
},
{
name = top;
position = "{265, 592}";
},
{
name = topleft;
position = "{-81, 557}";
}
);
hints = (
{
horizontal = 1;
origin = "{0, 42}";
target = up;
type = BottomGhost;
},
{
horizontal = 1;
origin = "{0, 6}";
target = "{0, 30}";
},
{
origin = "{0, 21}";
target = "{0, 15}";
},
{
origin = "{0, 33}";
target = "{0, 3}";
},
{
horizontal = 1;
origin = "{0, 15}";
target = down;
type = TopGhost;
}
);
layerId = "DDABD3A5-4A8B-4D55-9B9E-1269DFBEF3A1";
name = Regular;
paths = (
{
closed = 1;
nodes = (
"99 -9 LINE",
"325 135 OFFCURVE",
"439 277 OFFCURVE",
"439 414 CURVE SMOOTH",
"439 501 OFFCURVE",
"400 548 OFFCURVE",
"326 552 CURVE SMOOTH",
"284 554 OFFCURVE",
"231 554 OFFCURVE",
"211 555 CURVE SMOOTH",
"172 556 OFFCURVE",
"168 560 OFFCURVE",
"164 602 CURVE SMOOTH",
"161 633 OFFCURVE",
"156 720 OFFCURVE",
"150 753 CURVE",
"126 753 OFFCURVE",
"64 739 OFFCURVE",
"25 725 CURVE",
"22 689 OFFCURVE",
"20 625 OFFCURVE",
"20 570 CURVE SMOOTH",
"20 542 OFFCURVE",
"21 517 OFFCURVE",
"22 499 CURVE SMOOTH",
"27 423 OFFCURVE",
"47 395 OFFCURVE",
"101 389 CURVE SMOOTH",
"126 386 OFFCURVE",
"176 386 OFFCURVE",
"275 386 CURVE SMOOTH",
"308 386 OFFCURVE",
"313 378 OFFCURVE",
"311 332 CURVE",
"285 300 OFFCURVE",
"199 243 OFFCURVE",
"68 173 CURVE",
"65 151 OFFCURVE",
"63 121 OFFCURVE",
"63 85 CURVE SMOOTH",
"63 53 OFFCURVE",
"65 23 OFFCURVE",
"68 -9 CURVE"
);
}
);
width = 469;
}
);
leftKerningGroup = "lamed-hb";
rightKerningGroup = "lamed-hb";
unicode = 05DC;
},
{
color = 3;
glyphname = "finalmem-hb";
lastChange = "2016-03-12 19:18:27 +0000";
layers = (
{
hints = (
{
horizontal = 1;
origin = "{0, 20}";
target = "{1, 10}";
},
{
horizontal = 1;
origin = "{1, 0}";
target = "{0, 7}";
},
{
place = "{82.000000, 134.000000}";
},
{
origin = "{1, 9}";
target = "{0, 3}";
},
{
horizontal = 1;
origin = "{0, 11}";
target = down;
type = TopGhost;
}
);
layerId = "DDABD3A5-4A8B-4D55-9B9E-1269DFBEF3A1";
name = Regular;
paths = (
{
closed = 1;
nodes = (
"580 0 LINE",
"585 78 OFFCURVE",
"590 276 OFFCURVE",
"589 364 CURVE SMOOTH",
"586 509 OFFCURVE",
"545 555 OFFCURVE",
"418 555 CURVE SMOOTH",
"244 555 LINE SMOOTH",
"171 555 OFFCURVE",
"170 555 OFFCURVE",
"157 560 CURVE SMOOTH",
"116 576 LINE",
"84 567 LINE",
"57 489 OFFCURVE",
"49 457 OFFCURVE",
"44 419 CURVE",
"65 399 LINE SMOOTH",
"85 381 OFFCURVE",
"85 383 OFFCURVE",
"84 316 CURVE SMOOTH",
"80 0 LINE"
);
},
{
closed = 1;
nodes = (
"211 388 LINE",
"325 388 OFFCURVE",
"355 388 OFFCURVE",
"390 388 CURVE SMOOTH",
"447 386 OFFCURVE",
"458 373 OFFCURVE",
"463 303 CURVE SMOOTH",
"466 268 OFFCURVE",
"467 210 OFFCURVE",
"466 167 CURVE",
"221 167 LINE"
);
}
);
width = 641;
}
);
unicode = 05DD;
},
{
color = 0;
glyphname = "mem-hb";
lastChange = "2016-03-12 19:18:27 +0000";
layers = (
{
anchors = (
{
name = bottom;
position = "{287, 0}";
},
{
name = bottomleft;
position = "{-5, 0}";
},
{
name = center;
position = "{322, 273}";
},
{
name = top;
position = "{264, 557}";
},
{
name = topleft;
position = "{10, 557}";
}
);
guideLines = (
{
position = "{341, 395}";
}
);
hints = (
{
horizontal = 1;
origin = "{0, 50}";
target = up;
type = BottomGhost;
},
{
horizontal = 1;
origin = "{0, 31}";
target = "{0, 9}";
},
{
horizontal = 1;
origin = "{0, 17}";
target = "{0, 16}";
},
{
horizontal = 1;
origin = "{0, 9}";
target = "{0, 28}";
},
{
place = "{40.500000, 149.500000}";
},
{
origin = "{0, 15}";
target = "{0, 22}";
},
{
horizontal = 1;
origin = "{0, 35}";
target = down;
type = TopGhost;
}
);
layerId = "DDABD3A5-4A8B-4D55-9B9E-1269DFBEF3A1";
name = Regular;
paths = (
{
closed = 1;
nodes = (
"88 -7 LINE",
"119 -5 OFFCURVE",
"152 1 OFFCURVE",
"190 11 CURVE",
"202 136 OFFCURVE",
"215 291 OFFCURVE",
"225 389 CURVE",
"271 393 OFFCURVE",
"307 395 OFFCURVE",
"341 395 CURVE SMOOTH",
"406 395 OFFCURVE",
"419 376 OFFCURVE",
"425 302 CURVE SMOOTH",
"428 266 OFFCURVE",
"432 221 OFFCURVE",
"432 167 CURVE",
"274 167 LINE",
"267 0 LINE",
"538 0 LINE",
"549 127 LINE",
"551 172 OFFCURVE",
"552 231 OFFCURVE",
"552 280 CURVE SMOOTH",
"552 356 OFFCURVE",
"551 425 OFFCURVE",
"531 473 CURVE SMOOTH",
"509 528 OFFCURVE",
"456 557 OFFCURVE",
"381 557 CURVE SMOOTH",
"340 557 OFFCURVE",
"250 540 OFFCURVE",
"218 540 CURVE SMOOTH",
"198 540 OFFCURVE",
"189 542 OFFCURVE",
"136 562 CURVE SMOOTH",
"91 579 LINE",
"68 572 LINE",
"56 533 OFFCURVE",
"44 480 OFFCURVE",
"38 415 CURVE",
"73 394 LINE SMOOTH",
"91 383 OFFCURVE",
"96 380 OFFCURVE",
"96 368 CURVE SMOOTH",
"96 362 OFFCURVE",
"95 353 OFFCURVE",
"93 341 CURVE SMOOTH",
"79 264 OFFCURVE",
"52 130 OFFCURVE",
"40 38 CURVE",
"41 -7 LINE"
);
}
);
width = 601;
},
{
anchors = (
{
name = bottom;
position = "{262, 0}";
},
{
name = bottomleft;
position = "{-12, 0}";
},
{
name = center;
position = "{292, 273}";
},
{
name = top;
position = "{257, 557}";
},
{
name = topleft;
position = "{-17, 557}";
}
);
associatedMasterId = "DDABD3A5-4A8B-4D55-9B9E-1269DFBEF3A1";
guideLines = (
{
position = "{334, 395}";
}
);
hints = (
{
horizontal = 1;
place = "{3.000000, 21.000000}";
target = up;
type = BottomGhost;
},
{
horizontal = 1;
place = "{579.000000, -103.000000}";
},
{
horizontal = 1;
place = "{-3.000000, 96.000000}";
},
{
horizontal = 1;
place = "{593.000000, -20.000000}";
target = down;
type = TopGhost;
},
{
place = "{541.000000, 73.000000}";
}
);
layerId = "F2984988-C842-450D-AA66-D48E3190CBE0";
name = "Bold Oct 4 15, 00:22";
paths = (
{
closed = 1;
nodes = (
"81 -7 LINE",
"112 -5 OFFCURVE",
"145 1 OFFCURVE",
"183 11 CURVE",
"196 136 OFFCURVE",
"211 291 OFFCURVE",
"221 389 CURVE",
"267 393 OFFCURVE",
"300 395 OFFCURVE",
"334 395 CURVE SMOOTH",
"399 395 OFFCURVE",
"412 376 OFFCURVE",
"418 302 CURVE SMOOTH",
"421 266 OFFCURVE",
"425 221 OFFCURVE",
"425 167 CURVE",
"267 167 LINE",
"260 0 LINE",
"531 0 LINE",
"542 127 LINE",
"544 172 OFFCURVE",
"545 231 OFFCURVE",
"545 280 CURVE SMOOTH",
"545 356 OFFCURVE",
"544 425 OFFCURVE",
"524 473 CURVE SMOOTH",
"502 528 OFFCURVE",
"449 557 OFFCURVE",
"374 557 CURVE SMOOTH",
"333 557 OFFCURVE",
"243 540 OFFCURVE",
"211 540 CURVE SMOOTH",
"195 540 OFFCURVE",
"186 542 OFFCURVE",
"133 562 CURVE SMOOTH",
"88 579 LINE",
"65 572 LINE",
"52 532 OFFCURVE",
"41 478 OFFCURVE",
"35 412 CURVE",
"65 394 LINE SMOOTH",
"83 383 OFFCURVE",
"88 380 OFFCURVE",
"88 368 CURVE SMOOTH",
"88 362 OFFCURVE",
"87 353 OFFCURVE",
"85 341 CURVE SMOOTH",
"73 266 OFFCURVE",
"50 135 OFFCURVE",
"39 32 CURVE",
"40 -7 LINE"
);
}
);
width = 594;
}
);
leftKerningGroup = "mem-hb";
rightKerningGroup = "mem-hb";
unicode = 05DE;
},
{
color = 3;
glyphname = "finalnun-hb";
lastChange = "2016-03-12 19:18:27 +0000";
layers = (
{
hints = (
{
origin = "{0, 18}";
target = "{0, 4}";
},
{
horizontal = 1;
origin = "{0, 19}";
target = up;
type = BottomGhost;
},
{
horizontal = 1;
origin = "{0, 10}";
target = down;
type = TopGhost;
}
);
layerId = "DDABD3A5-4A8B-4D55-9B9E-1269DFBEF3A1";
name = Regular;
paths = (
{
closed = 1;
nodes = (
"175 -148 LINE",
"271 -132 LINE",
"280 57 OFFCURVE",
"285 290 OFFCURVE",
"285 351 CURVE SMOOTH",
"285 459 OFFCURVE",
"270 497 OFFCURVE",
"211 528 CURVE SMOOTH",
"186 542 OFFCURVE",
"130 564 OFFCURVE",
"88 579 CURVE",
"59 570 LINE",
"45 534 OFFCURVE",
"31 481 OFFCURVE",
"20 416 CURVE",
"98 378 LINE SMOOTH",
"140 357 OFFCURVE",
"139 359 OFFCURVE",
"139 286 CURVE SMOOTH",
"141 -148 LINE"
);
}
);
width = 335;
}
);
unicode = 05DF;
},
{
color = 3;
glyphname = "nun-hb";
lastChange = "2016-03-12 19:18:27 +0000";
layers = (
{
anchors = (
{
name = bottom;
position = "{157, 0}";
},
{
name = bottomleft;
position = "{5, 0}";
},
{
name = center;
position = "{78, 275}";
},
{
name = top;
position = "{177, 557}";
},
{
name = topleft;
position = "{34, 557}";
}
);
hints = (
{
horizontal = 1;
origin = "{0, 25}";
target = "{0, 24}";
},
{
origin = "{0, 20}";
target = "{0, 3}";
},
{
horizontal = 1;
origin = "{0, 12}";
target = down;
type = TopGhost;
}
);
layerId = "DDABD3A5-4A8B-4D55-9B9E-1269DFBEF3A1";
name = Regular;
paths = (
{
closed = 1;
nodes = (
"304 0 LINE",
"308 66 OFFCURVE",
"310 180 OFFCURVE",
"310 272 CURVE SMOOTH",
"310 307 OFFCURVE",
"310 339 OFFCURVE",
"309 364 CURVE SMOOTH",
"306 468 OFFCURVE",
"292 493 OFFCURVE",
"233 528 CURVE SMOOTH",
"208 543 OFFCURVE",
"181 556 OFFCURVE",
"125 580 CURVE",
"99 575 LINE",
"82 533 OFFCURVE",
"57 472 OFFCURVE",
"43 423 CURVE",
"131 377 LINE SMOOTH",
"170 356 OFFCURVE",
"172 348 OFFCURVE",
"178 275 CURVE SMOOTH",
"181 238 OFFCURVE",
"183 203 OFFCURVE",
"185 167 CURVE",
"24 167 LINE",
"15 0 LINE"
);
}
);
width = 358;
}
);
leftKerningGroup = "nun-hb";
rightKerningGroup = "nun-hb";
unicode = 05E0;
},
{
color = 0;
glyphname = "samekh-hb";
lastChange = "2016-03-12 19:18:27 +0000";
layers = (
{
anchors = (
{
name = bottom;
position = "{281, 0}";
},
{
name = bottomleft;
position = "{25, 0}";
},
{
name = center;
position = "{306, 285}";
},
{
name = top;
position = "{304, 559}";
},
{
name = topleft;
position = "{11, 557}";
}
);
hints = (
{
horizontal = 1;
origin = "{0, 30}";
target = up;
type = BottomGhost;
},
{
horizontal = 1;
origin = "{1, 3}";
target = "{0, 15}";
},
{
origin = "{1, 9}";
target = "{0, 6}";
},
{
origin = "{0, 27}";
target = "{1, 15}";
},
{
horizontal = 1;
origin = "{0, 19}";
target = down;
type = TopGhost;
}
);
layerId = "DDABD3A5-4A8B-4D55-9B9E-1269DFBEF3A1";
name = Regular;
paths = (
{
closed = 1;
nodes = (
"161 -12 LINE",
"308 5 OFFCURVE",
"419 39 OFFCURVE",
"491 90 CURVE",
"529 174 OFFCURVE",
"558 305 OFFCURVE",
"558 395 CURVE SMOOTH",
"558 507 OFFCURVE",
"515 551 OFFCURVE",
"407 554 CURVE SMOOTH",
"386 555 OFFCURVE",
"361 555 OFFCURVE",
"335 555 CURVE SMOOTH",
"284 555 OFFCURVE",
"232 554 OFFCURVE",
"217 554 CURVE SMOOTH",
"147 554 OFFCURVE",
"145 555 OFFCURVE",
"133 560 CURVE SMOOTH",
"92 576 LINE",
"61 570 LINE",
"39 513 OFFCURVE",
"22 455 OFFCURVE",
"20 431 CURVE",
"42 409 LINE SMOOTH",
"64 388 OFFCURVE",
"66 382 OFFCURVE",
"70 315 CURVE SMOOTH",
"78 186 OFFCURVE",
"91 63 OFFCURVE",
"101 -13 CURVE"
);
},
{
closed = 1;
nodes = (
"193 388 LINE",
"208 389 OFFCURVE",
"248 389 OFFCURVE",
"289 389 CURVE SMOOTH",
"329 389 OFFCURVE",
"370 389 OFFCURVE",
"385 387 CURVE SMOOTH",
"426 383 OFFCURVE",
"435 373 OFFCURVE",
"435 324 CURVE SMOOTH",
"435 248 OFFCURVE",
"409 209 OFFCURVE",
"329 187 CURVE SMOOTH",
"297 178 OFFCURVE",
"244 171 OFFCURVE",
"202 167 CURVE"
);
}
);
width = 593;
}
);
leftKerningGroup = "samekh-hb";
rightKerningGroup = "samekh-hb";
unicode = 05E1;
},
{
color = 3;
glyphname = "ayin-hb";
lastChange = "2016-03-12 19:18:28 +0000";
layers = (
{
anchors = (
{
name = bottom;
position = "{318, 0}";
},
{
name = bottomleft;
position = "{20, 0}";
},
{
name = center;
position = "{316, 315}";
},
{
name = top;
position = "{268, 551}";
},
{
name = topleft;
position = "{9, 551}";
}
);
hints = (
{
origin = "{0, 22}";
target = "{0, 6}";
},
{
horizontal = 1;
origin = "{0, 30}";
target = up;
type = BottomGhost;
},
{
horizontal = 1;
origin = "{1, 9}";
target = down;
type = TopGhost;
}
);
layerId = "DDABD3A5-4A8B-4D55-9B9E-1269DFBEF3A1";
name = Regular;
paths = (
{
closed = 1;
nodes = (
"54 -71 LINE",
"214 -27 OFFCURVE",
"376 48 OFFCURVE",
"442 108 CURVE",
"472 181 OFFCURVE",
"511 359 OFFCURVE",
"511 424 CURVE SMOOTH",
"511 495 OFFCURVE",
"488 529 OFFCURVE",
"419 556 CURVE SMOOTH",
"399 565 OFFCURVE",
"384 570 OFFCURVE",
"369 575 CURVE",
"347 575 LINE",
"331 538 OFFCURVE",
"317 502 OFFCURVE",
"293 431 CURVE",
"312 422 OFFCURVE",
"332 412 OFFCURVE",
"351 402 CURVE SMOOTH",
"374 390 OFFCURVE",
"378 385 OFFCURVE",
"378 351 CURVE SMOOTH",
"376 251 OFFCURVE",
"356 206 OFFCURVE",
"263 172 CURVE SMOOTH",
"178 141 LINE SMOOTH",
"120 119 OFFCURVE",
"66 103 OFFCURVE",
"15 88 CURVE",
"15 -71 LINE"
);
},
{
closed = 1;
nodes = (
"287 154 LINE",
"263 290 OFFCURVE",
"255 339 OFFCURVE",
"241 412 CURVE SMOOTH",
"225 496 OFFCURVE",
"205 527 OFFCURVE",
"145 557 CURVE SMOOTH",
"130 565 OFFCURVE",
"121 569 OFFCURVE",
"100 578 CURVE",
"72 571 LINE",
"51 529 OFFCURVE",
"32 481 OFFCURVE",
"17 434 CURVE",
"47 415 LINE SMOOTH",
"90 389 OFFCURVE",
"93 384 OFFCURVE",
"102 353 CURVE SMOOTH",
"172 118 LINE"
);
}
);
width = 543;
},
{
anchors = (
{
name = bottom;
position = "{318, 0}";
},
{
name = bottomleft;
position = "{20, 0}";
},
{
name = center;
position = "{316, 315}";
},
{
name = top;
position = "{268, 551}";
},
{
name = topleft;
position = "{9, 551}";
}
);
associatedMasterId = "DDABD3A5-4A8B-4D55-9B9E-1269DFBEF3A1";
hints = (
{
horizontal = 1;
origin = "{0, 47}";
target = "{0, 34}";
},
{
origin = "{0, 22}";
target = "{0, 6}";
},
{
horizontal = 1;
origin = "{0, 34}";
target = down;
type = TopGhost;
},
{
horizontal = 1;
origin = "{0, 47}";
target = up;
type = BottomGhost;
}
);
layerId = "B281EBCB-9B24-4FAF-B9CE-BB08FAB2B111";
name = "Bold Oct 28 15, 13:17";
paths = (
{
closed = 1;
nodes = (
"63 -75 LINE",
"222 -28 OFFCURVE",
"383 50 OFFCURVE",
"447 111 CURVE",
"475 183 OFFCURVE",
"510 355 OFFCURVE",
"511 423 CURVE SMOOTH",
"511 498 OFFCURVE",
"487 532 OFFCURVE",
"417 559 CURVE SMOOTH",
"393 568 OFFCURVE",
"378 572 OFFCURVE",
"363 577 CURVE",
"342 571 LINE",
"328 536 OFFCURVE",
"315 500 OFFCURVE",
"293 432 CURVE",
"312 423 OFFCURVE",
"332 413 OFFCURVE",
"351 404 CURVE SMOOTH",
"375 392 OFFCURVE",
"379 387 OFFCURVE",
"379 353 CURVE SMOOTH",
"379 260 OFFCURVE",
"361 217 OFFCURVE",
"283 179 CURVE",
"262 296 OFFCURVE",
"254 344 OFFCURVE",
"241 412 CURVE SMOOTH",
"225 496 OFFCURVE",
"205 527 OFFCURVE",
"145 557 CURVE SMOOTH",
"130 565 OFFCURVE",
"121 569 OFFCURVE",
"100 578 CURVE",
"72 571 LINE",
"51 529 OFFCURVE",
"32 481 OFFCURVE",
"17 434 CURVE",
"47 415 LINE SMOOTH",
"90 389 OFFCURVE",
"93 384 OFFCURVE",
"102 353 CURVE SMOOTH",
"167 133 LINE",
"115 113 OFFCURVE",
"67 98 OFFCURVE",
"21 84 CURVE",
"18 -75 LINE"
);
}
);
width = 541;
},
{
anchors = (
{
name = bottom;
position = "{318, 0}";
},
{
name = bottomleft;
position = "{20, 0}";
},
{
name = center;
position = "{316, 315}";
},
{
name = top;
position = "{268, 551}";
},
{
name = topleft;
position = "{9, 551}";
}
);
associatedMasterId = "DDABD3A5-4A8B-4D55-9B9E-1269DFBEF3A1";
hints = (
{
origin = "{0, 20}";
target = "{0, 6}";
},
{
horizontal = 1;
origin = "{0, 45}";
target = up;
type = BottomGhost;
},
{
horizontal = 1;
origin = "{0, 33}";
target = down;
type = TopGhost;
}
);
layerId = "D00EA7BA-50B9-4C44-B68E-5136AA294FA4";
name = "Bold Oct 28 15, 13:53";
paths = (
{
closed = 1;
nodes = (
"63 -75 LINE",
"221 -29 OFFCURVE",
"381 49 OFFCURVE",
"446 110 CURVE",
"473 184 OFFCURVE",
"511 366 OFFCURVE",
"511 444 CURVE SMOOTH",
"511 500 OFFCURVE",
"491 530 OFFCURVE",
"419 557 CURVE SMOOTH",
"398 565 OFFCURVE",
"378 571 OFFCURVE",
"365 575 CURVE",
"344 569 LINE",
"330 534 OFFCURVE",
"316 498 OFFCURVE",
"294 430 CURVE",
"352 402 LINE SMOOTH",
"378 389 OFFCURVE",
"379 382 OFFCURVE",
"379 352 CURVE SMOOTH",
"379 268 OFFCURVE",
"367 220 OFFCURVE",
"283 178 CURVE",
"268 264 OFFCURVE",
"246 387 OFFCURVE",
"241 412 CURVE SMOOTH",
"223 506 OFFCURVE",
"200 528 OFFCURVE",
"145 557 CURVE SMOOTH",
"130 565 OFFCURVE",
"121 569 OFFCURVE",
"100 578 CURVE",
"72 571 LINE",
"51 529 OFFCURVE",
"32 481 OFFCURVE",
"17 434 CURVE",
"47 415 LINE SMOOTH",
"89 389 OFFCURVE",
"92 387 OFFCURVE",
"102 353 CURVE SMOOTH",
"167 133 LINE",
"115 113 OFFCURVE",
"67 98 OFFCURVE",
"21 84 CURVE",
"18 -75 LINE"
);
}
);
width = 541;
}
);
unicode = 05E2;
},
{
color = 3;
glyphname = "finalpe-hb";
lastChange = "2016-03-12 22:50:40 +0000";
layers = (
{
hints = (
{
origin = "{0, 17}";
target = "{0, 27}";
},
{
origin = "{0, 39}";
target = "{0, 4}";
},
{
horizontal = 1;
origin = "{0, 20}";
target = up;
type = BottomGhost;
},
{
origin = "{0, 14}";
target = "{0, 13}";
},
{
horizontal = 1;
origin = "{0, 13}";
target = down;
type = TopGhost;
},
{
horizontal = 1;
origin = "{0, 39}";
target = up;
type = BottomGhost;
}
);
layerId = "DDABD3A5-4A8B-4D55-9B9E-1269DFBEF3A1";
name = Regular;
paths = (
{
closed = 1;
nodes = (
"392 -147 LINE",
"477 -130 LINE",
"480 -59 OFFCURVE",
"482 75 OFFCURVE",
"482 196 CURVE SMOOTH",
"482 295 OFFCURVE",
"481 360 OFFCURVE",
"478 391 CURVE SMOOTH",
"471 486 OFFCURVE",
"432 525 OFFCURVE",
"324 547 CURVE SMOOTH",
"232 566 OFFCURVE",
"175 575 OFFCURVE",
"130 580 CURVE",
"89 571 LINE",
"67 488 OFFCURVE",
"36 349 OFFCURVE",
"36 284 CURVE SMOOTH",
"36 208 OFFCURVE",
"72 179 OFFCURVE",
"212 137 CURVE",
"226 182 OFFCURVE",
"237 233 OFFCURVE",
"242 286 CURVE",
"189 312 LINE SMOOTH",
"170 320 OFFCURVE",
"167 324 OFFCURVE",
"167 345 CURVE SMOOTH",
"167 366 OFFCURVE",
"169 385 OFFCURVE",
"171 411 CURVE",
"193 407 OFFCURVE",
"209 404 OFFCURVE",
"266 393 CURVE SMOOTH",
"331 381 OFFCURVE",
"349 363 OFFCURVE",
"351 306 CURVE SMOOTH",
"354 205 OFFCURVE",
"354 57 OFFCURVE",
"355 -147 CURVE"
);
}
);
width = 532;
}
);
leftKerningGroup = "finalpe-hb";
rightKerningGroup = "finalpe-hb";
unicode = 05E3;
},
{
color = 0;
glyphname = "pe-hb";
lastChange = "2016-03-12 19:18:27 +0000";
layers = (
{
anchors = (
{
name = bottom;
position = "{260, 0}";
},
{
name = bottomleft;
position = "{-36, 0}";
},
{
name = center;
position = "{302, 231}";
},
{
name = top;
position = "{240, 557}";
},
{
name = topleft;
position = "{39, 557}";
}
);
hints = (
{
horizontal = 1;
origin = "{0, 35}";
target = "{0, 34}";
},
{
origin = "{0, 13}";
target = "{0, 23}";
},
{
origin = "{0, 33}";
target = "{0, 3}";
},
{
horizontal = 1;
origin = "{0, 9}";
target = down;
type = TopGhost;
},
{
horizontal = 1;
origin = "{0, 16}";
target = up;
type = BottomGhost;
}
);
layerId = "DDABD3A5-4A8B-4D55-9B9E-1269DFBEF3A1";
name = Regular;
paths = (
{
closed = 1;
nodes = (
"482 0 LINE",
"489 61 OFFCURVE",
"498 201 OFFCURVE",
"498 304 CURVE SMOOTH",
"498 486 OFFCURVE",
"471 531 OFFCURVE",
"350 553 CURVE SMOOTH",
"289 563 OFFCURVE",
"197 574 OFFCURVE",
"130 580 CURVE",
"83 568 LINE",
"67 458 OFFCURVE",
"53 357 OFFCURVE",
"56 316 CURVE SMOOTH",
"61 249 OFFCURVE",
"87 231 OFFCURVE",
"217 195 CURVE",
"230 236 OFFCURVE",
"243 293 OFFCURVE",
"248 330 CURVE",
"207 347 LINE SMOOTH",
"187 356 OFFCURVE",
"185 359 OFFCURVE",
"183 393 CURVE SMOOTH",
"182 413 LINE",
"228 408 OFFCURVE",
"282 399 OFFCURVE",
"306 395 CURVE SMOOTH",
"357 385 OFFCURVE",
"365 375 OFFCURVE",
"369 317 CURVE SMOOTH",
"372 278 OFFCURVE",
"375 210 OFFCURVE",
"374 162 CURVE",
"43 162 LINE",
"35 0 LINE"
);
}
);
width = 546;
}
);
leftKerningGroup = "pe-hb";
rightKerningGroup = "pe-hb";
unicode = 05E4;
},
{
color = 3;
glyphname = "finaltsadi-hb";
lastChange = "2016-03-12 22:51:04 +0000";
layers = (
{
hints = (
{
origin = "{1, 16}";
target = "{1, 2}";
},
{
horizontal = 1;
origin = "{0, 7}";
target = down;
type = TopGhost;
},
{
horizontal = 1;
origin = "{0, 0}";
target = up;
type = BottomGhost;
}
);
layerId = "DDABD3A5-4A8B-4D55-9B9E-1269DFBEF3A1";
name = Regular;
paths = (
{
closed = 1;
nodes = (
"392 -149 LINE",
"475 -49 LINE",
"408 70 OFFCURVE",
"364 151 OFFCURVE",
"321 228 CURVE SMOOTH",
"196 454 OFFCURVE",
"144 545 OFFCURVE",
"120 579 CURVE",
"88 574 LINE",
"63 545 OFFCURVE",
"34 505 OFFCURVE",
"8 461 CURVE",
"79 337 OFFCURVE",
"257 29 OFFCURVE",
"356 -149 CURVE"
);
},
{
closed = 1;
nodes = (
"433 273 OFFCURVE",
"485 369 OFFCURVE",
"485 436 CURVE SMOOTH",
"485 478 OFFCURVE",
"465 515 OFFCURVE",
"417 546 CURVE SMOOTH",
"388 565 OFFCURVE",
"378 571 OFFCURVE",
"365 578 CURVE",
"336 578 LINE",
"315 551 OFFCURVE",
"288 506 OFFCURVE",
"264 457 CURVE",
"327 410 LINE SMOOTH",
"341 398 OFFCURVE",
"346 393 OFFCURVE",
"346 381 CURVE SMOOTH",
"346 363 OFFCURVE",
"334 323 OFFCURVE",
"271 156 CURVE",
"344 103 LINE"
);
}
);
width = 518;
}
);
unicode = 05E5;
},
{
color = 3;
glyphname = "tsadi-hb";
lastChange = "2016-03-12 19:18:27 +0000";
layers = (
{
anchors = (
{
name = bottom;
position = "{253, 0}";
},
{
name = bottomleft;
position = "{-5, 0}";
},
{
name = center;
position = "{101, 239}";
},
{
name = top;
position = "{268, 557}";
},
{
name = topleft;
position = "{6, 557}";
}
);
hints = (
{
horizontal = 1;
place = "{0.000000, 166.000000}";
},
{
origin = "{0, 11}";
target = "{1, 5}";
},
{
horizontal = 1;
origin = "{0, 7}";
target = down;
type = TopGhost;
}
);
layerId = "DDABD3A5-4A8B-4D55-9B9E-1269DFBEF3A1";
name = Regular;
paths = (
{
closed = 1;
nodes = (
"450 0 LINE",
"457 41 OFFCURVE",
"463 89 OFFCURVE",
"467 131 CURVE",
"415 201 LINE",
"387 233 LINE",
"284 375 LINE",
"126 580 LINE",
"85 574 LINE",
"61 547 OFFCURVE",
"40 513 OFFCURVE",
"22 475 CURVE",
"47 420 OFFCURVE",
"69 382 OFFCURVE",
"88 361 CURVE SMOOTH",
"158 287 OFFCURVE",
"235 216 OFFCURVE",
"298 159 CURVE",
"298 165 LINE",
"49 167 LINE",
"36 0 LINE"
);
},
{
closed = 1;
nodes = (
"436 228 OFFCURVE",
"472 308 OFFCURVE",
"492 364 CURVE SMOOTH",
"502 389 OFFCURVE",
"507 413 OFFCURVE",
"507 434 CURVE SMOOTH",
"507 481 OFFCURVE",
"483 516 OFFCURVE",
"430 548 CURVE SMOOTH",
"377 580 LINE",
"354 580 LINE",
"334 555 OFFCURVE",
"310 512 OFFCURVE",
"285 456 CURVE",
"348 413 LINE SMOOTH",
"363 403 OFFCURVE",
"368 398 OFFCURVE",
"368 387 CURVE SMOOTH",
"368 372 OFFCURVE",
"330 250 OFFCURVE",
"302 156 CURVE",
"376 105 LINE"
);
}
);
width = 542;
}
);
leftKerningGroup = "tsadi-hb";
rightKerningGroup = "tsadi-hb";
unicode = 05E6;
},
{
color = 3;
glyphname = "qof-hb";
lastChange = "2016-03-12 22:51:46 +0000";
layers = (
{
anchors = (
{
name = bottom;
position = "{372, 2}";
},
{
name = bottomleft;
position = "{32, 2}";
},
{
name = center;
position = "{281, 296}";
},
{
name = top;
position = "{313, 559}";
},
{
name = topleft;
position = "{15, 557}";
}
);
hints = (
{
horizontal = 1;
origin = "{0, 31}";
target = up;
type = BottomGhost;
},
{
horizontal = 1;
origin = "{0, 18}";
target = "{0, 6}";
},
{
origin = "{1, 15}";
target = "{1, 4}";
},
{
origin = "{0, 22}";
target = "{0, 3}";
},
{
horizontal = 1;
origin = "{0, 11}";
target = down;
type = TopGhost;
},
{
origin = "{0, 12}";
target = "{0, 11}";
},
{
horizontal = 1;
origin = "{1, 7}";
target = down;
type = TopGhost;
},
{
horizontal = 1;
origin = "{1, 15}";
target = up;
type = BottomGhost;
}
);
layerId = "DDABD3A5-4A8B-4D55-9B9E-1269DFBEF3A1";
name = Regular;
paths = (
{
closed = 1;
nodes = (
"325 -2 LINE",
"474 154 OFFCURVE",
"544 288 OFFCURVE",
"544 418 CURVE SMOOTH",
"544 502 OFFCURVE",
"499 551 OFFCURVE",
"422 551 CURVE SMOOTH",
"202 552 LINE SMOOTH",
"175 552 OFFCURVE",
"170 554 OFFCURVE",
"158 568 CURVE SMOOTH",
"140 588 LINE",
"72 576 LINE",
"57 515 OFFCURVE",
"49 456 OFFCURVE",
"45 402 CURVE",
"87 389 OFFCURVE",
"103 385 OFFCURVE",
"116 385 CURVE SMOOTH",
"382 385 LINE SMOOTH",
"413 385 OFFCURVE",
"419 376 OFFCURVE",
"418 332 CURVE",
"405 306 OFFCURVE",
"375 273 OFFCURVE",
"278 173 CURVE",
"278 159 OFFCURVE",
"278 145 OFFCURVE",
"278 131 CURVE SMOOTH",
"278 85 OFFCURVE",
"279 41 OFFCURVE",
"282 -2 CURVE"
);
},
{
closed = 1;
nodes = (
"84 -147 LINE",
"195 -124 LINE",
"196 -93 OFFCURVE",
"197 -50 OFFCURVE",
"197 -7 CURVE SMOOTH",
"197 89 OFFCURVE",
"193 200 OFFCURVE",
"184 306 CURVE",
"155 306 LINE",
"58 295 LINE",
"54 186 OFFCURVE",
"51 11 OFFCURVE",
"51 -108 CURVE SMOOTH",
"51 -122 OFFCURVE",
"51 -135 OFFCURVE",
"51 -147 CURVE"
);
}
);
width = 576;
}
);
leftKerningGroup = "qof-hb";
rightKerningGroup = "qof-hb";
unicode = 05E7;
},
{
color = 3;
glyphname = "resh-hb";
lastChange = "2016-03-12 22:52:13 +0000";
layers = (
{
anchors = (
{
name = bottom;
position = "{372, 0}";
},
{
name = bottomleft;
position = "{-1, 0}";
},
{
name = center;
position = "{165, 238}";
},
{
name = top;
position = "{242, 557}";
},
{
name = topleft;
position = "{-19, 557}";
}
);
hints = (
{
horizontal = 1;
origin = "{0, 26}";
target = up;
type = BottomGhost;
},
{
horizontal = 1;
origin = "{0, 19}";
target = "{0, 8}";
},
{
origin = "{0, 23}";
target = "{0, 4}";
},
{
origin = "{0, 13}";
target = "{0, 12}";
},
{
horizontal = 1;
origin = "{0, 12}";
target = down;
type = TopGhost;
}
);
layerId = "DDABD3A5-4A8B-4D55-9B9E-1269DFBEF3A1";
name = Regular;
paths = (
{
closed = 1;
nodes = (
"353 -12 LINE",
"430 8 LINE",
"438 99 OFFCURVE",
"444 249 OFFCURVE",
"444 342 CURVE SMOOTH",
"443 505 OFFCURVE",
"404 552 OFFCURVE",
"268 552 CURVE SMOOTH",
"182 552 LINE SMOOTH",
"155 552 OFFCURVE",
"150 554 OFFCURVE",
"138 568 CURVE SMOOTH",
"120 588 LINE",
"52 576 LINE",
"37 515 OFFCURVE",
"29 456 OFFCURVE",
"25 402 CURVE",
"67 389 OFFCURVE",
"83 385 OFFCURVE",
"96 385 CURVE SMOOTH",
"237 385 LINE SMOOTH",
"288 385 OFFCURVE",
"304 366 OFFCURVE",
"306 301 CURVE SMOOTH",
"310 208 OFFCURVE",
"309 51 OFFCURVE",
"310 -12 CURVE"
);
}
);
width = 494;
},
{
anchors = (
{
name = bottom;
position = "{376, 0}";
},
{
name = bottomleft;
position = "{5, 0}";
},
{
name = center;
position = "{172, 239}";
},
{
name = top;
position = "{248, 557}";
},
{
name = topleft;
position = "{-16, 557}";
}
);
associatedMasterId = "DDABD3A5-4A8B-4D55-9B9E-1269DFBEF3A1";
hints = (
{
horizontal = 1;
place = "{-13.000000, 21.000000}";
target = up;
type = BottomGhost;
},
{
horizontal = 1;
place = "{571.000000, -105.000000}";
},
{
horizontal = 1;
place = "{-6.000000, 21.000000}";
target = up;
type = BottomGhost;
},
{
horizontal = 1;
place = "{589.000000, -20.000000}";
target = down;
type = TopGhost;
},
{
place = "{376.000000, 76.000000}";
}
);
layerId = "AD7BB7A3-0444-4B89-8908-9845AB01FE9F";
name = "Regular Oct 3 15, 00:54";
paths = (
{
closed = 1;
nodes = (
"344 -13 LINE",
"376 -9 OFFCURVE",
"408 -3 OFFCURVE",
"440 7 CURVE",
"448 126 OFFCURVE",
"451 270 OFFCURVE",
"451 364 CURVE SMOOTH",
"450 519 OFFCURVE",
"417 551 OFFCURVE",
"264 551 CURVE SMOOTH",
"176 551 LINE SMOOTH",
"137 551 OFFCURVE",
"133 552 OFFCURVE",
"118 568 CURVE SMOOTH",
"96 592 LINE",
"51 582 LINE",
"39 541 OFFCURVE",
"31 486 OFFCURVE",
"26 414 CURVE",
"58 403 OFFCURVE",
"78 398 OFFCURVE",
"94 398 CURVE",
"255 398 LINE SMOOTH",
"313 398 OFFCURVE",
"323 382 OFFCURVE",
"323 288 CURVE SMOOTH",
"324 -13 LINE"
);
}
);
width = 500;
}
);
leftKerningGroup = "resh-hb";
rightKerningGroup = "resh-hb";
unicode = 05E8;
},
{
glyphname = "shin-hb";
lastChange = "2016-03-12 22:52:45 +0000";
layers = (
{
anchors = (
{
name = bottom;
position = "{345, 0}";
},
{
name = bottomleft;
position = "{15, 0}";
},
{
name = center;
position = "{439, 296}";
},
{
name = top;
position = "{373, 557}";
},
{
name = topleft;
position = "{133, 560}";
},
{
name = topright;
position = "{593, 559}";
}
);
hints = (
{
horizontal = 1;
origin = "{0, 45}";
target = up;
type = BottomGhost;
},
{
horizontal = 1;
origin = "{0, 45}";
target = "{0, 27}";
},
{
origin = "{0, 21}";
target = "{0, 9}";
},
{
horizontal = 1;
origin = "{1, 24}";
target = up;
type = BottomGhost;
},
{
horizontal = 1;
origin = "{1, 11}";
target = down;
type = TopGhost;
}
);
layerId = "DDABD3A5-4A8B-4D55-9B9E-1269DFBEF3A1";
name = Regular;
paths = (
{
closed = 1;
nodes = (
"151 -11 LINE SMOOTH",
"203 -11 OFFCURVE",
"275 -4 OFFCURVE",
"348 9 CURVE SMOOTH",
"458 28 OFFCURVE",
"540 60 OFFCURVE",
"581 99 CURVE",
"608 163 OFFCURVE",
"653 350 OFFCURVE",
"653 440 CURVE SMOOTH",
"653 508 OFFCURVE",
"625 545 OFFCURVE",
"558 565 CURVE SMOOTH",
"517 577 LINE",
"494 577 LINE",
"478 537 OFFCURVE",
"463 479 OFFCURVE",
"450 430 CURVE",
"499 409 LINE SMOOTH",
"522 400 OFFCURVE",
"526 392 OFFCURVE",
"526 355 CURVE SMOOTH",
"526 246 OFFCURVE",
"473 197 OFFCURVE",
"327 176 CURVE SMOOTH",
"299 171 OFFCURVE",
"239 166 OFFCURVE",
"196 164 CURVE",
"202 408 LINE SMOOTH",
"204 485 OFFCURVE",
"193 513 OFFCURVE",
"146 548 CURVE SMOOTH",
"128 561 OFFCURVE",
"115 569 OFFCURVE",
"99 576 CURVE",
"76 572 LINE",
"56 537 OFFCURVE",
"38 498 OFFCURVE",
"22 450 CURVE",
"27 442 OFFCURVE",
"33 433 OFFCURVE",
"39 424 CURVE SMOOTH",
"52 403 OFFCURVE",
"58 395 OFFCURVE",
"60 369 CURVE SMOOTH",
"94 -11 LINE"
);
},
{
closed = 1;
nodes = (
"278 238 OFFCURVE",
"308 242 OFFCURVE",
"340 251 CURVE",
"367 300 OFFCURVE",
"422 408 OFFCURVE",
"422 462 CURVE SMOOTH",
"422 490 OFFCURVE",
"408 517 OFFCURVE",
"383 537 CURVE SMOOTH",
"365 551 OFFCURVE",
"335 571 OFFCURVE",
"320 578 CURVE",
"296 575 LINE",
"277 543 OFFCURVE",
"257 505 OFFCURVE",
"233 454 CURVE",
"268 427 LINE SMOOTH",
"283 416 OFFCURVE",
"290 411 OFFCURVE",
"290 401 CURVE SMOOTH",
"290 393 OFFCURVE",
"286 383 OFFCURVE",
"278 365 CURVE SMOOTH",
"243 284 LINE",
"243 237 LINE"
);
}
);
width = 690;
}
);
leftKerningGroup = "shin-hb";
rightKerningGroup = "shin-hb";
unicode = 05E9;
},
{
color = 3;
glyphname = "tav-hb";
lastChange = "2016-03-12 22:53:26 +0000";
layers = (
{
anchors = (
{
name = bottom;
position = "{345, 0}";
},
{
name = bottomleft;
position = "{43, 0}";
},
{
name = center;
position = "{352, 247}";
},
{
name = top;
position = "{355, 557}";
},
{
name = topleft;
position = "{-7, 557}";
}
);
hints = (
{
horizontal = 1;
origin = "{0, 24}";
target = "{0, 23}";
},
{
horizontal = 1;
origin = "{0, 32}";
target = "{0, 8}";
},
{
horizontal = 1;
origin = "{0, 39}";
target = up;
type = BottomGhost;
},
{
place = "{39.500000, 237.500000}";
},
{
origin = "{0, 39}";
target = "{0, 4}";
},
{
origin = "{0, 13}";
target = "{0, 12}";
},
{
origin = "{0, 22}";
target = "{0, 29}";
},
{
horizontal = 1;
origin = "{0, 12}";
target = down;
type = TopGhost;
}
);
layerId = "DDABD3A5-4A8B-4D55-9B9E-1269DFBEF3A1";
name = Regular;
paths = (
{
closed = 1;
nodes = (
"483 -12 LINE",
"566 9 LINE",
"573 97 OFFCURVE",
"577 230 OFFCURVE",
"577 335 CURVE SMOOTH",
"577 498 OFFCURVE",
"539 552 OFFCURVE",
"417 552 CURVE SMOOTH",
"187 552 LINE SMOOTH",
"160 552 OFFCURVE",
"155 554 OFFCURVE",
"143 568 CURVE SMOOTH",
"125 588 LINE",
"57 576 LINE",
"42 515 OFFCURVE",
"34 456 OFFCURVE",
"30 402 CURVE",
"61 393 OFFCURVE",
"77 388 OFFCURVE",
"89 386 CURVE",
"113 305 OFFCURVE",
"136 220 OFFCURVE",
"148 167 CURVE",
"44 167 LINE",
"35 0 LINE",
"262 0 LINE",
"272 85 LINE SMOOTH",
"275 120 OFFCURVE",
"277 142 OFFCURVE",
"277 159 CURVE SMOOTH",
"277 188 OFFCURVE",
"256 302 OFFCURVE",
"240 385 CURVE",
"380 385 LINE SMOOTH",
"431 385 OFFCURVE",
"437 375 OFFCURVE",
"440 297 CURVE SMOOTH",
"443 220 OFFCURVE",
"443 82 OFFCURVE",
"443 -12 CURVE"
);
}
);
width = 627;
}
);
leftKerningGroup = "tav-hb";
rightKerningGroup = "tav-hb";
unicode = 05EA;
},
{
glyphname = "finalpedagesh-hb";
lastChange = "2016-03-12 19:18:27 +0000";
layers = (
{
hints = (
{
origin = "{0, 17}";
target = "{0, 27}";
},
{
origin = "{0, 39}";
target = "{0, 4}";
},
{
horizontal = 1;
origin = "{0, 20}";
target = up;
type = BottomGhost;
},
{
horizontal = 1;
origin = "{0, 39}";
target = up;
type = BottomGhost;
}
);
layerId = "DDABD3A5-4A8B-4D55-9B9E-1269DFBEF3A1";
name = Regular;
paths = (
{
closed = 1;
nodes = (
"400 -147 LINE",
"487 -130 LINE",
"490 -59 OFFCURVE",
"492 75 OFFCURVE",
"492 196 CURVE SMOOTH",
"492 295 OFFCURVE",
"491 360 OFFCURVE",
"488 391 CURVE SMOOTH",
"480 486 OFFCURVE",
"441 525 OFFCURVE",
"330 547 CURVE SMOOTH",
"237 566 OFFCURVE",
"178 575 OFFCURVE",
"133 580 CURVE",
"91 571 LINE",
"48 383 OFFCURVE",
"37 325 OFFCURVE",
"37 284 CURVE SMOOTH",
"37 208 OFFCURVE",
"73 179 OFFCURVE",
"216 137 CURVE",
"231 182 OFFCURVE",
"242 233 OFFCURVE",
"247 286 CURVE",
"193 312 LINE SMOOTH",
"173 320 OFFCURVE",
"170 324 OFFCURVE",
"170 345 CURVE SMOOTH",
"170 366 OFFCURVE",
"172 385 OFFCURVE",
"174 411 CURVE",
"197 407 OFFCURVE",
"213 404 OFFCURVE",
"271 393 CURVE SMOOTH",
"338 381 OFFCURVE",
"356 363 OFFCURVE",
"358 306 CURVE SMOOTH",
"361 205 OFFCURVE",
"361 57 OFFCURVE",
"362 -147 CURVE"
);
},
{
closed = 1;
nodes = (
"342 309 LINE",
"305 371 LINE",
"238 333 LINE",
"277 271 LINE"
);
}
);
width = 543;
}
);
leftKerningGroup = "finalpe-hb";
rightKerningGroup = "finalpe-hb";
unicode = FB43;
},
